<?xml version="1.0" encoding="UTF-8"?><svg id="a" xmlns="http://www.w3.org/2000/svg" viewBox="0 0 1132 320"><polygon points="241.73163 319.93973 239.04913 319.36647 236.56566 318.9951 234.08228 319.07318 231.5987 319.43866 229.11467 319.08566 226.6299 319.27523 224.14536 319.87964 221.66141 319.20589 219.17772 319.36572 216.69399 319.54494 214.20989 319.37565 211.72508 319.45025 209.24042 319.51749 206.75632 320 204.27242 319.02253 201.78832 319.84265 199.30361 319.86365 196.81871 319.96806 194.33443 319.88396 191.85031 319.46129 189.36589 319.50207 186.88068 319.01585 184.39606 319.71235 181.91177 319.5929 179.42725 319.84858 176.94193 319.43004 174.45728 319.10453 171.97283 319.83547 169.48858 319.09841 167.00403 319.7054 164.52101 319.04134 162.03875 319.98868 159.55643 319.20749 157.07322 319.99878 154.5882 319.34431 152.10371 319.16176 149.62045 319.23432 147.13733 319.93819 144.65324 319.87823 142.16725 319.44928 139.68307 319.72536 137.19934 319.47502 134.71457 319.65371 132.229 319.4421 129.7447 319.17461 127.25983 319.60161 124.77398 319.76696 122.28926 319.30337 119.80334 319.02266 117.31809 319.24385 114.83234 319.16837 112.34676 319.59566 109.86047 319.25357 107.3748 319.5294 104.88843 319.46809 102.40168 319.15508 99.91529 319.00087 97.43135 319.41621 94.94505 319.55281 92.46027 319.87635 89.97425 319.62697 87.48715 319.0183 85.00006 319.30419 82.51292 319.05447 80.0265 319.00999 77.53973 319.74762 75.0508 319.35522 72.56015 319.74229 70.20438 319.17955 68.58973 317.48848 66.40002 316.18158 65.01369 314.07499 63.1315 312.46257 61.5729 310.52635 59.36391 309.23587 57.85385 307.24948 56.04118 305.56643 54.38898 303.72365 52.90716 301.70966 50.86328 300.25325 49.32426 298.29616 47.0113 297.1111 45.66915 294.95696 44.01855 293.10914 42.17576 291.45466 40.37351 289.75897 38.82144 287.81254 36.48555 286.64896 35.09182 284.54461 33.40308 282.73524 31.31074 281.32746 29.45113 279.68795 28.13341 277.50732 26.07406 276.07055 24.49751 274.14858 23.03563 272.11619 20.87033 270.78084 19.42604 268.7288 17.76057 266.89391 15.51953 265.63483 14.3335 263.32246 11.90057 262.25138 10.53326 260.11819 8.47315 258.67959 6.9912 256.66077 5.56098 254.58991 3.29491 253.35127 1.94441 251.19444 .42882 249.48473 .10844 247.19987 0 244.73047 .97262 242.35968 .76539 239.88218 1.44584 237.48531 1.229 235.00685 1.6967 232.59193 1.55776 230.12278 2.28292 227.73188 2.64168 225.30689 2.13118 222.80135 2.97638 220.41919 2.94555 217.95884 3.03631 215.50967 3.11363 213.05831 3.97767 210.67636 4.13282 208.23197 3.7414 205.73849 4.40706 203.33977 4.6722 200.90397 5.07665 198.48205 5.23672 196.03742 4.7091 193.5295 5.10404 191.10631 5.49057 188.68115 5.39032 186.21256 5.56434 183.76832 6.59358 181.40175 6.78606 178.95865 6.20773 176.44632 7.21683 174.07714 6.88873 171.5864 7.52371 169.18331 7.76785 166.74721 7.53062 164.26517 7.56447 161.80919 8.07277 159.39497 8.5547 156.9773 8.43781 154.50537 8.49852 152.0495 9.18659 149.65117 9.33073 147.20322 9.22699 144.73066 9.90952 142.32766 10.21931 139.93304 10.88716 137.54197 12.34035 135.48771 13.70187 133.38933 14.6664 131.09843 15.31294 128.65255 16.28144 126.36053 17.46477 124.1721 18.2762 121.80546 19.41002 119.59561 20.53579 117.38182 22.08197 115.3704 22.85701 112.98394 24.14457 110.846 24.8183 108.41247 26.43839 106.43692 27.20392 104.04687 28.18263 101.75786 29.69788 99.73041 31.06082 97.62977 31.70265 95.17914 32.59143 92.84709 34.04645 90.79037 34.94356 88.46312 36.20906 86.31298 37.18461 84.02386 38.12547 81.7166 39.00105 79.37851 40.54398 77.36271 41.68974 75.15496 42.89497 72.97519 44.07087 70.78192 44.44144 68.19828 45.91272 66.1467 46.79746 63.81285 47.61309 61.44713 48.88948 59.30168 50.0295 57.09195 50.98781 54.79294 52.05624 52.546 53.86367 50.65657 54.75903 48.32587 55.72824 46.03168 56.47817 43.63103 58.08395 41.642 58.80109 39.22119 59.89284 36.86733 62.45989 36.52179 64.80388 35.77561 67.21259 35.25402 69.51451 34.35757 71.97546 34.02054 74.32199 33.28321 76.54019 32.09518 78.96906 31.6424 81.45832 31.40338 83.61936 30.01551 85.94272 29.19556 88.532 29.30444 90.85886 28.50719 93.193 27.73173 95.5835 27.14755 97.94426 26.45814 100.23844 25.54091 102.57403 24.77153 105.03685 24.44775 107.38914 23.7334 109.77652 23.13556 111.96969 21.85912 114.49434 21.74853 116.9061 21.24295 119.31437 20.72162 121.62484 19.85077 123.88412 18.80713 126.41997 18.73406 128.66986 17.65538 131.16343 17.42762 133.36949 16.19702 135.80983 15.78524 138.16835 15.08323 140.49066 14.25849 142.86425 13.60904 145.35887 13.38607 147.548 12.09096 150.02974 11.82168 152.32148 10.88413 154.57865 9.82768 157.17026 9.94053 159.32538 8.52259 161.88642 8.53174 164.30193 8.03602 166.58741 7.07622 168.83621 5.99335 171.39161 5.98031 173.54538 4.55611 176.12396 4.62041 178.34811 3.44269 180.83835 3.19984 183.06248 2.02339 185.36075 1.09888 187.87296 .91784 190.25441 0 192.03256 1.80947 193.71111 3.61842 195.6856 5.09355 197.43191 6.82255 199.4615 8.23276 200.96909 10.228 203.09916 11.52586 204.62707 13.50048 206.91146 14.62938 208.59079 16.43717 210.36067 18.14117 212.46306 19.4712 214.37793 21.01157 216.01302 22.86701 217.62701 24.74877 219.94101 25.84481 221.25086 28.06502 223.06331 29.72143 225.28348 30.9221 227.09137 32.58789 228.73153 34.43907 230.59063 36.04409 232.35946 37.75186 234.48115 39.06515 235.97014 41.08601 238.12924 42.35633 239.97835 43.97569 241.92523 45.48373 243.37312 47.5531 245.08415 49.32641 247.44809 50.36832 248.98767 52.33436 250.86364 53.92426 252.72742 55.5229 254.26905 57.48699 256.08468 59.13972 258.39839 60.23828 259.85151 62.29975 261.84283 63.76123 264.02106 65.01088 265.43892 67.11496 267.1509 68.89087 268.99405 70.51967 271.40659 71.51007 273.19585 73.19831 274.93211 74.9465 276.9711 76.35616 278.75667 78.05594 280.20544 80.06962 281.35771 82.26403 281.16295 84.85973 282.09957 87.15443 282.69701 89.53933 283.86148 91.77391 283.87936 94.31396 284.7469 96.62803 285.3448 99.01318 286.28713 101.30659 286.90524 103.68638 287.65875 106.03081 288.27096 108.41298 288.90923 110.7876 289.62248 113.14211 289.69446 115.66739 290.24419 118.06649 290.68644 120.49355 291.34079 122.8639 292.81386 125.01687 293.35143 127.41932 293.77401 129.84854 293.85564 132.36945 294.91893 134.63118 295.436 137.0384 296.09352 139.40673 297.2532 141.64081 297.83959 144.02732 297.82837 146.5736 298.36869 148.97512 299.80891 151.13691 300.36521 153.5324 300.63534 156.00379 301.77052 158.24626 302.39692 160.6259 302.49424 163.1443 303.17081 165.5083 303.66266 167.92246 304.36689 170.28097 304.75932 172.72107 305.70977 175.01344 306.41827 177.37112 307.22486 179.70156 307.87811 182.074 308.23034 184.52575 308.97177 186.87457 309.09881 189.38651 310.52263 191.55451 311.28116 193.8987 311.00424 196.51883 312.29661 198.72225 312.46007 201.22435 313.65402 203.45112 314.35913 205.81024 314.98868 208.18789 314.87741 210.76371 315.98004 213.01799 316.74916 215.36091 317.29909 217.76213 318.17786 220.07522 318.9492 222.41722 319.18022 224.90505 319.78419 227.2955 320 229.59834 318.95414 231.74682 316.77966 233.15207 315.77051 235.57188 313.66475 237.03427 311.85993 238.75884 310.17292 240.58672 308.95536 242.8254 307.17034 244.57145 305.57584 246.48406 303.88206 248.30804 302.01554 249.98037 300.60655 252.0518 299.41219 254.31161 297.2093 255.69424 295.89513 257.85124 293.81715 259.34049 292.78508 261.74171 290.95657 263.44962 289.27973 265.29233 287.58661 267.11842 285.71 268.78391 284.57799 271.10017 282.26644 272.38876 281.18808 274.75118 279.42418 276.51648 277.58935 278.22121 275.9293 280.07688 274.35913 282.01253 273.02675 284.15467 270.99971 285.69164 269.26091 287.47976 268.10778 289.77961 266.33156 291.53523 264.91816 293.60721 263.11982 295.33981 261.45634 297.19388 259.35994 298.66854 258.17812 300.94396 256.35527 302.65831 254.80689 304.61368 253.22832 306.54414 251.53181 308.37175 249.96308 310.31085 247.7629 311.69829 246.79201 314.15831 244.79687 315.72587 242.88259 317.41025 241.73163 319.93973" fill="#c93020"/><path d="M146.49192,81.4011c.10601-.16301.23801-.30752.39077-.42802.11976-.12951-.003-.49327-.0285-.74679-.086-.85229-.19326-1.70283-.26376-2.55638-.03625-.43977-.0135-.88454-.014-1.32732,0-.11826-.028-.31652.0255-.34377,1.52983-.78079.43477-2.36137,1.0408-3.44167.21201-.37802.041-.9538.12626-1.42457.07575-.50853.22326-1.00355.43802-1.47057.43752-.86779.9578-1.69383,1.44957-2.53387.0405-.06575.10401-.11426.17826-.13551,1.70108-.35902,2.91089-2.31361,4.95249-1.46357l-.25601.72329,1.98535-.9478c.0525.07.28301.40352.54203.71329.23451.28051.54103.79254.74529.75979,1.57433-.25176,1.64283,1.15231,2.1036,1.96035.48077.97905.84929,2.0091,1.09905,3.07065.15076.64678.26376,1.30181.33827,1.96185l.31202.14476c-.06375.40902-.10476.82129-.12276,1.23506.00975.56928.10926,1.13806.10751,1.70683.0135.63928-.02925,1.27856-.12801,1.91034-.14151,1.33032.37602,2.64563,1.38607,3.52292-.48352.53478-1.21656,1.0493.0965,1.69158-1.07955.29151-1.28981.82554-1.0953,1.74159.08125.38227-.48427.87779-.68978,1.35057-.33627.77329.18401,1.33832.61503,1.84384.98305,1.15281,1.0103,1.12956.27951,2.33036l1.04905.53203-1.51482,1.13506c.03925.85604.01575,1.77109.13601,2.66688.23801,1.77209.61503,3.52692.81104,5.30251-.031.74154-.11326,1.48007-.24651,2.21036-.10576.60278-.0345,1.22356.20526,1.78659.65278,1.28156.96655,2.70888.91104,4.14595.09275.64078.31052,1.34457-.38927,1.92834-.25151.20976-.25301.81379-.23476,1.23206.17276.71979.24251,1.46032.20776,2.19961-.28926,1.0363.27026,1.52583.79554,2.18736.31727.39877.86354.89579.27326,1.56633-.10526.11951.12801.53678.24851.97505-1.66408,2.44562.29101,4.45297,1.30731,6.66233-.12726.03925-.25051.0905-.36802.15276-.10426.09375-.19676.19976-.27476.31602,1.54408.87279,1.12181,2.36387,1.15906,3.77819-1.62858-.43952-1.03255,1.01855-1.34257,1.72834-.33902.67703-.76954,1.30456-1.27931,1.86459-.43677.58553-.9328,1.12406-1.48057,1.60758-.61303.38902-1.71008.25276-2.08135.73904-.92155,1.20706-1.71208.19101-2.56688.22676-1.75659.07375-2.95065-1.03155-4.42497-1.49807.16526-1.24881-1.22131-1.30806-1.62733-2.12085.13151-.16901.26401-.33627.39577-.50302l-.78804-.60353c.47002-1.35382-1.25256-2.27211-.44227-3.81469.47652-.90779-.19801-2.44887-.42827-3.69168-.25301-1.36532-.61328-2.71063-.88429-4.0732-.25576-1.28606-.45627-2.58288-.65528-3.72668.03975-.41502.035-.83304-.0145-1.24706-.18876-.74304-.43702-1.46982-.74254-2.17311-.48077-.76404-.60153-1.70058-.33077-2.56163.27176-.70028,1.06305-1.69658.26251-2.70413-.16826-.21176.10326-.76954.16601-1.16881.16926-.64428.25976-1.30681.26901-1.9731-.07875-.81954-.43327-1.60858-.59103-2.42587-.04825-.47802-.0585-.9593-.03025-1.43907-.036-1.28931-.04425-2.58113-.14226-3.86619-.11576-.39752-.29876-.77204-.54103-1.1078.01725-.0255.26876-.22851.24001-.37702-.21976-1.12981-.50327-2.24686-.74204-3.37317-.015-.19476.014-.39027.08475-.57253.45227-1.02005.72879-2.1091.81779-3.22141-.10501-1.0893.36927-2.42012-.73704-3.34841-.13926-.11676-.019-.54328-.019-1.0273l.37477.72479.17676-.05775c-.01825-.12526.01025-.30226-.062-.36752-.82704-.53828-1.0613-1.64483-.52328-2.47212ZM116.53944,83.4507c.05975.27776.0735.56328.041.84529-.04375.42902-.29201.89579-.18551,1.27006.34652,1.21606-.63103,2.53837.32402,3.68943.033.03975-.11301.20026-.12326.30927-.033.35227-.01775.71003-.064,1.0598-.11451.86379.87829,1.9411-.16001,2.38112.12051.63403.46402,1.28106.27101,1.63958-.51778,1.04255-.50502,2.27011.03475,3.30141.47702.98105-.0845,1.28381-.51403,1.84259l.80054.64678c-.56803,1.67433-.46927,3.50317.27576,5.1065.18801.33102.90554,1.42432-.41252,1.66433-.15976.0145-.32027.0145-.48002-.0005.10125.18001.21926.35002.35227.50777.08925.08775.16501.18801.22476.29801.33352.61353.10676,1.38157-.50702,1.71533.50002,2.33887,1.0168,4.65598,1.46082,6.98684.045.23751-.34752.55828-.42752.67703.20176.57503.55578,1.05955.47602,1.45682-.22801.9963.15451,2.03335.97505,2.64313-.37552.28026-.98655.54078-.9713.75679.08575,1.20756.33902,2.40212.50127,3.60543.078.57678.08225,1.16331.11976,1.74534.32477.45227.75929,1.14956.56678,1.46907-.57803,1.17231-.44402,2.57088.34627,3.61218,1.19006,2.52662,3.67168,4.19521,6.46057,4.34421.19726-.0155.39552.0205.57478.10426,1.03405.71554,2.44412.51828,3.24241-.45327.65003-.59978.94905-.63178,1.34257-.12701l1.9451-3.51267.24601-1.41957c-.0435-1.14781-.17851-2.29036-.40352-3.41692-.18926-.54078-.44027-1.05805-.74779-1.54158l.28826-1.82834,1.0098-.32477c-.20476-.65253-1.46932-.71379-.65678-1.62533.62328-.69903.30527-1.30681-.0665-2.0181-.31427-.54353-.42702-1.18031-.31877-1.79884.34152-.9838.23326-2.0681-.29651-2.9649-.14776-.94505-.24851-1.63233-.36352-2.31711-.20001-1.19006-.42577-2.37587-.60678-3.56868-.089-.58578-.10251-1.18331-.17276-2.0586l-.65128-.62178c.34527-.13551.81079-.24501.80579-.32702.18526-1.53158-.19851-3.0779-1.07805-4.34546.10176-.05.19726-.11201.28451-.18451.60928-.50677.69253-1.41182.18551-2.02135-.52678-.84129-.36377-1.18781.45877-1.45082-.31952-.62578-1.15706-1.13056-.20326-1.83959.0985-.073.075-.38777.02625-.56828-.31477-1.16806-.68253-2.32286-.96655-3.49792-.15351-.43252-.15376-.90479-.00075-1.33757.43802-.9208.60003-1.94885.46577-2.95965-.12126-1.61658-.37052-3.22091-.74529-4.79799l1.0508.26251c-.47802-.81629-1.0998-1.51157.11001-2.0666.09625-.044.028-.57803-.058-.85504-.13776-.36502-.30101-.71979-.48877-1.0618-.84179-1.77084-1.65533-3.55693-2.54838-5.30176-.18976-.37102-.68853-.57403-1.0113-.88904-.46202-.45027-.89304-.93255-1.50232-1.57508.21601-1.0428-1.18106-.69628-1.80884-1.0698-.75029-.62828-1.86609-.53728-2.50487.20426l-.30426-1.31981c-.37127.34027-.80879.54478-.86529.82579-.34052,1.69408-1.85709,2.53162-2.73763,3.82569-.56603.70578-.70428,1.66308-.36127,2.50012-.19851.10676-.39527.21351-.61328.33177l.44652.84554c-.80254.25401.42527,1.29181-.56828,1.47207.26326,1.03955.53753,2.07685.78229,3.1209ZM244.03097,88.74696c-.36477-.10601-.66303-.36977-.81279-.71879-.31402-.91555-.71454-1.14956-1.57833-.85579-.37252.068-.75304.081-1.12931.03875l.07775-.84954h-3.78769l.59678-.73479c-.70228-.02975-1.40482.04975-2.0826.23576-1.10705.53028-1.41282-.034-1.55833-.88579-.58278.32177-1.22156.52903-1.88234.60978-1.25981-.13251-2.48737-.54828-3.73968-.78954-.45602-.03075-.91354-.0285-1.36932.00675-.68578-.028-1.37007-.09125-2.05485-.13926l.01425.32002-.48127-.62528c-.12251.18576-.20401.45177-.37652.54078-.38252.18951-.78579.33327-1.20181.42852-.44952.10951-.91505.15301-1.45082.23751-.101-.11376-.33377-.58128-.53928-.56953-.66553.09025-1.32482.22151-1.97435.39302-.60853.11201-1.57058.46502-1.78059.21376-1.0243-1.22656-1.58108-.14026-2.28561.28976-1.23431-.51278-1.65683-.41402-2.07785.46227l-.31327-.39727c-.79379.76304-2.25036-.28326-2.85214,1.04305-.09925.12726-.25401.19851-.41527.19176-1.14706-.12626-1.67558.80429-2.23486,1.46257-.71579,1.0858-1.0318,2.38637-.89404,3.67943-.20676,1.45507.49802,2.88839,1.77684,3.61268.14801.0995.24026.26326.24851.44152-.048.68703.40327,1.30956,1.07105,1.47807,1.20231-.02225.62828.76004.73954,1.37782h7.00534c-.81979.48002-.60478.87504.09025,1.10605.92305.30677.82979,1.0918.92855,1.78584.0635.44477.05625.89954.0935,1.59033-.67028.55128-.46402,2.00585.70803,2.68713-.76829,1.26906.18151,2.20711.71829,3.34441l-1.26556-.46977c.10801.63228.21226,1.16156.28601,1.69483.07625.55128.37627,1.31631.12851,1.61508-.38977.46477-.52878,1.0903-.37277,1.67658.0415.80729-.03425,1.61633-.22476,2.40187-.10351.57778-.40627,1.12131-.49677,1.69933-.02575.47352.00025.9483.07775,1.41607l1.17631.72504-1.73384.14276.31602,1.15331.98305-.13201.30276,1.46107c-.33402.23351-.77104.39377-.78129.57803.02675.27826.12026.54603.27226.78054-.27801.94405-.49502,1.90509-.64978,2.87714-.051,1.0518-.046,2.1056.01475,3.15691.00675.67228.028,1.34532-.00325,2.01585-.0405.39802-.10526.79304-.19401,1.18306-.14551.33877.12801.70803.11001,1.06255-.10276,2.0246-.30126,4.04445-.41002,6.06905-.0405.75554-.85204,1.28656-.85029,1.70333.005,1.40682-.73529,2.74289-.32852,4.17321.11126.39027.16901,1.06155-.04575,1.23406-1.0753.86429-.46927,2.22161-1.07105,3.21666-.36177.64328-.62353,1.33782-.77604,2.05985-.06575.45127-.0735.90904-.02275,1.36232l.49352.59403-1.00505.32527c1.57658,1.97735.0745,3.85644-.30101,5.77553-.15701.80254-1.48932.92605-1.30581,2.31011-.05325,1.31456-.33527,2.60988-.83329,3.82769-.11451.46127-.26051.91455-.45977,1.60708-1.24606.9433-1.28931,1.09355-.79954,2.85164.1015.27876.11526.58178.04.86879-.27601.78604-.64853,1.53483-1.10855,2.22936-1.09455,1.20656-1.46007,2.90664-.9583,4.45647.0785.23076-.10851.55153-.17276.83079l-.68003-.26051c.51803.91905.34402,2.0731-.42202,2.79864-.41152.36402-.65053.88479-.65803,1.43407.23526,1.35057-.56128,2.19636-1.16381,3.20366-.52903,1.02655-.99355,2.0851-1.39057,3.16966-.66553.22251-1.14856,1.72358-.49502,2.86339-.86479-.21426-.84279.79129-1.01305.84404-1.16681.36177-.9368,1.20431-1.0773,2.0696-.30426,1.61958-.70728,3.21891-1.20656,4.78899-.16026.32277-.42827.57903-.75754.72454-.71604.38602-1.59508.65303-1.64333,1.61483-.04225,1.28906-.60228,2.50687-1.55383,3.37767-.11501.08425-.11176.31727-.19026.46727-.10376.18626-.21751.36677-.34077.54078-.29801.44227-.9548,1.06905-.83804,1.29081.50727.9638-.37927,1.55383-.71279,1.75334-1.27281.97405-2.16186,2.36512-2.51162,3.92919-.32352.83879-.31477,1.47007-1.53383,1.24156l.44127,1.0648c-.51328.27176-1.17506.41302-1.45457.81804-.36502.64203-.65403,1.32432-.86129,2.0331-1.30856-.04275-1.0263.91279-1.23256,1.50357-.17151.61078-.41552,1.19856-.72629,1.75134-.84329,1.29031-1.77134,2.52512-2.66513,3.78219-.47527.21901-.48702.23001-1.0378,1.0643-.03375.051-.13851.0625-.21326.07775-1.51807.30652-1.9886,1.78384-2.66338,2.79689-.53828.80879-.79254,1.60958-1.77184,1.64808l-.23826,1.13206c-.67078-.49077-1.09055.12476-1.57908.37527-.9158.46977-1.81959.96105-2.0426,2.11635-.05225.29626-.15426.58128-.30176.84354-.27026.45477-.59503.87729-.91705,1.34207-.44927-.27301-1.88484.32377-2.35512,1.20856-1.0408-.29801-2.15936.59253-2.53287,2.01635-1.21806-.49002-5.08875,1.86834-5.84079,3.47642l-1.77959.17076-1.76684-.52703.53553.83679c-.54853.13901-1.48732.19826-1.52533.41577-.24301,1.38332-.9438.50627-1.44232.59453l-1.53758.37177-.21676.65553-.71354-.58078c-.47852.75929-1.33032,1.20006-2.22636,1.15256-.61303-.05275-1.44482-.23501-1.81434.075-.76204.71053-1.93735.73279-2.72563.05125-.22151-.13201-.72004.073-1.0293.23826-1.20806.64603-2.31361.63453-2.73613.12576-.41102.0905-.83079.13476-1.25156.13226-.66103-.09375-1.30181-.34227-1.9636-.42052-1.28556-.15226-2.63913.78554-3.88569-.24101-.15226-.04475-.31677-.00875-.43602.0955-.92855,1.19406-1.84734.22451-2.75539-.009-.58278-.14976-1.14406-.38077-1.89759-.63728-.05275-.064-.23676-.50727-.52553-.59153-.72354-.21101-1.50557-.21326-2.24461-.38377-1.27231-.29376-2.53662-.62828-3.79144-.99055-.90129-.21551-1.77834-.52203-2.61788-.91455-.77129-.40777-1.37482-1.12456-2.1306-1.57308-.56203-.25501-1.15181-.44402-1.75734-.56278l.44077-.24326c-.85929-.54978-2.0781-.90529-2.50137-1.69008-.83904-1.55633-2.52362-1.92134-3.58268-3.10615-.78379-.87704-1.80159-1.54208-2.60863-2.40212-.86304-.9198-1.52007-2.0406-2.42187-2.91389-.68253-.49302-1.41182-.9178-2.17736-1.26831-.31127-.21926-.57878-.49527-.78804-.81354-.97105-1.35707-1.9951-2.68488-2.85114-4.11245-.78429-1.14081-1.36182-2.41062-1.70633-3.75143-.15476-.85504-.40952-1.08755-1.1168-1.16981.02875-.37127.18426-.75954.05325-.96255-.66653-1.03205-1.46407-1.9816-2.1031-3.02865-.45702-.78204-.83154-1.60983-1.1173-2.46937-.20451-1.1143-.54553-2.19911-1.0153-3.23016-1.0538-1.58283-1.66383-3.41942-1.76609-5.31826-.01325-.19051.01675-.38152.08825-.55853.33727-.83354.11051-1.17006-.55953-1.13631-.07075-.45877-.001-.96205-.21776-1.24956-.9773-1.29781-2.03585-2.53462-3.09915-3.83519l1.0293-.52153c-.86429-.38602-1.22406-.82029-.71479-1.67183.12326-.33627.07825-.71129-.12151-1.00855-1.02705-1.55783-1.66483-3.33941-1.85959-5.19501-.21426-1.02705-.15151-2.10935-.32177-3.1489-.18976-.83629-.42827-1.66083-.71429-2.46937.015-.03925.32027-.42427.23701-.68603-.24651-.77704-.68678-1.49007-.9743-2.25711-.28976-.78154-.53103-1.58008-.72254-2.39112-.24451-1.0193-.42202-2.05485-.62678-3.0839-.12276-.61653-.24176-1.23381-.36252-1.85084-.80479-1.21956-1.00755-2.10435-.28576-2.51437l-.54853-1.16906.77979-.47527c-.27601-.62653-.72004-1.21231-.58728-1.40957.47302-.70228.54203-1.20381-.19576-1.72333-.11326-.0795-.12251-.34002-.13801-.52028-.0435-1.33857-.16351-2.67363-.35952-3.9987-.31902-1.17281-.72229-2.32111-1.20656-3.43592l1.64883-2.72363-.81054-.87479c1.44057-1.22956.079-2.57838-.36502-3.28116-.89354-1.41357.15701-1.86259.61928-2.73188l-.91555.075.74954-2.64763-.57553-.62453.31127-.004-.41102-3.45717c.31702-.77729.9278-1.86109.77904-1.97785-.92555-.72704-.28626-1.42407-.19501-2.14836.00325-.38527-.04175-.76929-.13351-1.14356l.58703-.38052c-.19901-.38752-.59403-.80129-.50978-1.05705.30451-.9258-.079-1.81859.00475-2.68188-.12876-1.40107.45052-2.77364,1.54408-3.65868-.26651-.09675-.58028-.16676-.57703-.21551.07975-1.16156-.10951-2.34712-.018-3.46542.12151-1.48882,1.47757-2.66888,1.51082-4.30046.01975-.9673.19701-1.93185.30802-2.89689.01525-.06425.03975-.12601.0725-.18326l.97355-.23351.06175-.29276-1.28231-.59703.64653-1.24706.20426.51928.29201-.20151c-.14851-.51253-.51253-1.08455-.39102-1.52207.14801-.53303.70428-.9528,1.0993-1.44057.55953.41777,1.06405,1.17681,1.58333-.09525.15626-.38302.82004-1.47807,1.57658-.14701.45302-1.61758,2.0256-2.19711,2.69763-3.70118.56078-1.81584.78754-3.71818.66953-5.61503.00825-.14476-.0445-.28626-.14576-.39027-.84379-.68228-1.73334-1.31156-2.53963-2.03435-.26876-.24051-.24826-.91029-.51403-1.02405-.50752-.094-1.02305-.14026-1.53933-.13801-.76654-.15151-1.60433-.71879-2.25336-.53878-1.81584.22551-3.59418.68828-5.28976,1.37657-.80779.46902-1.66558.85179-2.40462,1.22531l-.60328-1.0453-.44027.36827.15626.99505-2.62913-.33152-.31127.80354-2.0186-.58553-.52003,1.60058-.37702-.82004c-1.06505.67053-2.21486,1.19581-3.41917,1.56158-.71279.12076-1.47582-.23001-2.01935.54953-.03875.0555-.21476.009-.32577.0205-.39402.0405-.78729.08525-1.13806.12401l-3.66268,1.02955-.093-.9423c-.0035.01875-.00725.03725-.0115.0555-.21351.94205-1.15031,1.53283-2.09235,1.31931l.40652.82304c-1.74209-.24451-2.03935,1.21906-2.65263,2.16486-.57078.88054-1.82984,1.69808-1.0118,2.80539-.28026.46902-.46777.83029-.70378,1.15681-.13751.13651-.29576.25026-.46902.33727v.23776c.40327.085.44027.25576.59178.69228.30276.63753.42502,1.34582.35352,2.0481-.50878,1.85859,2.19761,3.67893,3.86469,3.20966l.16551.86404q1.91684-.14226,1.9416-.43902l2.61588.55478.88354-1.52858c.13726.49677.13801.76279.23901.80854.22001.061.44877.085.67678.071-.098-1.18331.77229-1.12981,1.54683-1.24006.29951-.04275.70753-.12026.84929-.32927.54153-.79854.88629-.72029,1.27356.11351.20026.29751.44327.56378.72104.79079-.48852.71654-.10176,2.09235-1.61458,1.86309l.68953,1.58083-.64128,1.00705.96955.40027-1.43607,1.16606c.48327.69278,1.15531,1.37507.41502,2.49287-.28351.42827.071,1.27881.11501,1.73384-.10551.43427-.18101.87554-.22626,1.32031-.0265,1.0618.062,2.1316-.044,3.18341-.12576.40952-.43727.73629-.84054.88129-.67778.20751-.53153.42252-.26126.88279.20526.39277.33652.82004.38727,1.26006-.90154.37302-.30552,1.01105-.27476,1.49732.05425.39352.15276.77979.29401,1.15106l-1.11806.68778,1.03155,1.59133-1.18631.74954c.64653.46527.96405,1.26331.81404,2.04535-.083.65478.51103,1.39457-.36302,1.92909,1.33782.64528.34002,1.89259.70828,2.80364.11051.49402.15901.9998.14451,1.50582.07775.65003.44552,1.34257-.42052,1.79909-.08325.25951-.04725.54253.09825.77279.60678.58278.53278.46352.0255,1.0143-.27851.30251-.15351.9768-.21051,1.48332.94155.087.45902.55778.32052,1.0193-.16176.53828-.43052,1.24456-.21826,1.65083.37152.71078.72029,1.29381.27651,2.07885-.0665.18551-.07225.38702-.017.57603.21101,1.0843.44127,2.16486.66178,3.24741.26351,1.29406-.48202,2.76239.60253,3.72243l-1.0383.82204c1.33957,1.19631,1.45882,2.11535.84154,2.57113l2.75939,7.71988-1.40007-.0945c-.04375.20601-.09125.42927-.085.40052.29051.28401.56503.58378.82279.89804.47127.66253.15451,1.0828-.50302,1.39457.17076.15951.31402.34602.42452.55203.64428,1.9796,1.31556,3.95369,1.84259,5.96479.091.34752.75504.0515.52203.9153-.27426,1.28081-.032,2.61813.67428,3.72143.59653.84979.49652,1.20406.20376,1.74759.62903,3.41842,2.74839,6.18655,3.73043,9.65823.0225-.03475-.27826.24876-.22326.36952.45402,1.07855.9858,2.12235,1.59158,3.12365.46827.72204.64878,1.24006-.28551,1.68208.96755.63403,1.36057,1.85759.94305,2.93639.20001.11451.50352.18051.58228.35077.52678,1.13681.9348,2.33311,1.51882,3.43742.67428,1.27531.73779,2.80989,1.83909,3.91744.58428.58753,1.12831,1.06805,2.01635.87104l-1.35757,1.14231c1.45932.50177,1.84084,1.87709,2.62263,2.9794,1.13506,1.60058,2.03935,3.06915,1.57208,3.50667.23051.20251.54528.36002.67253.61203.53553,1.0608.73004,2.64138,1.57233,3.1299,1.9636,1.13856,2.47687,3.29991,3.99695,4.72498,1.32982,1.47832,2.55538,3.0474,3.66768,4.69573.67928.84679,1.48182,1.59458,2.23336,2.39187l.22076-.33877c.48952.66178.85154,1.60133,1.25806,1.62108,1.62008.0785,1.95535,1.56033,2.72088,2.41087.73954.82179,1.19456,1.88759,2.25286,2.47912,1.37532.76804,2.67738,1.66833,4.0607,2.42087.75329.40977,1.89009.40527,2.35812.9868.69228.94305,1.92834,1.30856,3.0224.89429l-.065.37352c.81554.42102,1.45582.79779,2.1326,1.08905.80254.34327,1.62183.64603,2.45487.90754.48427.13451.9798.22451,1.48057.26851.26326.0325.56228-.095.79979-.0155.64278.21526,1.24206.57578,1.89334.74479,1.16206.30176,2.35587.47977,3.52492.75779.83779.19976,1.64958.50828,2.48637.71454,1.10255.27126,2.21686.49577,3.32866.72904.79054.16576,1.79934.06575,2.32736.52528.55703.55378,1.43282.62378,2.0706.16526.0585-.028.14901.0115.27626.02525l-.0415.74029c.30902-.16401.64128-.47027.78879-.39802,1.38432.67628,2.51812-.82629,4.11245-.24876,1.28656.46627,3.04715-.38702,4.60073-.63403.23601-.0065.47202.01825.70128.07425.81429.1,1.62833.20026,2.44212.30051l.11676-.33927.22426.68303c.28951-.22301.58903-.59053.72629-.53778,1.14006.44002,1.81609-.14476,2.72513-.76529,1.08555-.53403,2.25436-.87829,3.45592-1.0183.72554-.04825,1.44207-.18976,2.13135-.42127.71579-.40827,1.23256-1.15456,2.14186-.39952.05975.0495.33202-.17376.51378-.25001.29876-.12501.64378-.38602.89979-.32027.73829.19001,1.06005-.27701,1.56533-.64153.78929-.56878,1.13881-1.68483,2.45787-1.67608.9548-.062,1.87609-.37652,2.66963-.91179.84204-.51828,2.04085-.55203,2.49337-1.68083.053-.13251.39027-.15126.64878-.24126l-.11026,1.17131.35727.14451c.28076-.44252.56778-.88154.84029-1.32907.22226-.36502.33827-.87154.65603-1.08705,1.0453-.70778,2.20161-1.25406,3.23516-1.97685.62178-.53053,1.21356-1.0953,1.77259-1.69158.44502-.39427.92655-.74479,1.43857-1.04705.71304-.41802,1.69233-.52603,1.73959-1.64258.91204.22926,1.03255-.30877,1.1128-1.0328.07875-.35227.30426-.65428.61953-.82979.53428-.23501,1.08605-.42802,1.65058-.57728l-.42677-1.53158,1.24381.84279c.85429-1.82809,1.55983-3.62768,3.84744-3.99845.35777-.05825.87529-1.18056.76629-1.69333-.36302-1.70983.18926-2.42312,1.96135-2.0661.31027-.80754.61403-1.62408.9413-2.43087.06775-.18651.18876-.34877.34852-.46627,1.68483-.74429,2.89114-2.27561,3.21991-4.0882.0385-.33977.55328-.62803.85279-.9353.69528-.71379,1.42307-1.39907,2.08085-2.14586.43402-.49327.71704-1.12206,1.16181-1.60283.60453-.49752.86254-1.30231.66053-2.0586-.06175-.21801.21826-.57603.41102-.81304.37927-.46677.80754-.89354,1.21556-1.33682l-.23801-.21926c1.42582-.53953,1.77984-1.31256,1.17056-2.46762l.93605-.16376c-.16176-.78954.51103-1.08005.90004-1.55758.54228-.66628,1.14356-1.34557.69178-2.33336-.02625-.05775.20376-.23276.31452-.35327l.19726.27076c1.14156-1.05855,1.86159-2.49437,2.0276-4.0422.00075-.0265.06475-.04575.08625-.0775.75454-.9628,1.37482-2.02385,1.84384-3.15366.19401-.55928-.11076-2.0151,1.34732-1.82659l-1.19906-.45127,1.9321-2.07385-.32802-1.70608c1.03355-.23526,1.12706-.22276,1.29156-1.47282.13576-1.0333,1.19831-1.72934.95105-2.88814-.01725-.0815.59153-.29651,1.08455-.53403-.12551-.49052-.20601-.9918-.24001-1.49707-.00225-.28951.24026-.78704.45652-.83879,1.37557-.32977,1.17456-1.64208,1.65483-2.51712.16351-.29776.39227-.69403.31452-.9663-.33102-1.15681.19476-1.32857,1.0588-1.0993-1.32682-1.53558.31027-2.89989.28976-4.34246.01625-.30251.0545-.60353.11426-.90029l.33277.46877.39202-2.70988.59678-.045c.029-.38952.097-.77504.20301-1.15106.23326-.58303.62553-1.11005.80829-1.70458.26626-.86679.40627-1.77234.60003-2.66138.16576-.30301-.02975-.74279.09125-1.0628.27201-.57653.20401-1.25606-.17726-1.76684-.40277-.62953-.31152-1.45482.21876-1.98135,1.01255-.90529,1.58833-2.20161,1.58108-3.55993-.0775-.77954.33527-1.0788,1.1028-.75779.58753-.88454-1.0938-1.78934.12051-2.83214.45002-.38652.08925-1.62983.26551-2.44637.24726-.91379.54778-1.81234.89979-2.69113l-.40127-4.31021c.29176-.15001.80054-.26101.83329-.45302.20326-1.19806.30051-2.41412.43277-3.62418-.06125-.23826.37077-.38252.45827-.64253.20976-.69178.35502-1.40157.43452-2.1201.09375-.67203.11701-1.35382.18201-2.16586l.72254-.35352c-.34902-.80454-.56053-1.66208-.62528-2.53662.37427-1.16381.59203-2.37212.64728-3.59343-.01575-.11001.42627-.28476.51603-.34127-.13626-.53153-.16826-1.08405-.094-1.62758.49527-1.26231.53203-2.65813.10451-3.94494l1.55483-.08225c-1.77159-.44202-.30977-1.89534-1.05055-2.70088l.60628-.42377c-.0505-.52578-.21676-.96255-.07925-1.25756.09975-.21376.60203-.24026.68878-.26976-.35577-1.55958-.74504-3.16166-1.0773-4.77524-.11701-.56853-.023-1.18231-.15351-1.74559-.15951-.68928-.15376-.75479.61928-.75629-.51128-1.79334-.33077-3.71343.50577-5.38026-.16951-.54703-.31102-1.10205-.42477-1.66333-.09075-.58153.13301-1.51007-.16251-1.70383-.77604-.50828.49177-1.18306-.27276-1.52958.81454-.60253.31927-1.06305-.089-1.64933-.0405-.07225-.07425-.14826-.1005-.22676-.23526-.69903.14076-1.45657.83979-1.69183-.30677-.28901-.56553-.62503-.76679-.9953-.20901-.59903-.32752-1.22581-.35127-1.85984-.0575-.94655-.013-1.89659.13351-2.83389.054-.29426.67353-.54853,1.08005-.69153.25401-.0895.63278.17601.88679.0865.96555-.34052.64803.35352.66828.78279l4.0882.36927.80679.80304.20626-1.38532c.65628.14551,1.32307.50352,1.79884.33202.38327-.13826.53578-.91655.79354-1.41682.73129.65028,1.24431.15401,1.63083-.62578.13201-.26626.04475-.70303.23051-.87079.9338-1.0383,1.51832-2.34337,1.67108-3.73118.38202-.9183.55803-1.90909.51578-2.90264-.15926-1.45057-1.21606-2.64338-2.63688-2.97615Z" fill="#fff"/><path d="M413.96605,216.84287v-110.95606h22.41354v44.98627c8.05267,0,15.04695-1.82866,20.98351-5.48465,5.93393-3.656,10.65094-8.84728,14.14775-15.57779,3.49747-6.72919,5.45703-14.70424,5.88196-23.92383h24.16261c-.21378,6.03983-1.40636,11.97573-3.57706,17.80375-2.17334,5.82934-4.9821,11.20611-8.42498,16.13428-3.44485,4.92816-7.28766,9.16828-11.52514,12.71772-4.23946,3.55207-8.69072,6.06746-13.35248,7.55012,6.99428,2.01415,13.35248,5.56359,19.07526,10.65094,5.72277,5.08735,10.46478,11.52448,14.22734,19.31404,3.76059,7.78955,6.1727,16.7184,7.23306,26.78522h-24.16261c-.63608-10.06682-2.91598-18.62336-6.83576-25.67224-3.92175-7.04625-9.08803-12.42434-15.49885-16.13559-6.4128-3.70731-13.85701-5.56359-22.33461-5.56359v47.37142h-22.41354Z" fill="#c93020"/><path d="M559.09892,217.95585c-6.78313,0-13.0624-1.06036-18.83714-3.17976-5.77737-2.11808-10.80947-5.13866-15.10155-9.0604-4.29208-3.92043-7.63037-8.60916-10.01486-14.06882-2.38449-5.45703-3.57641-11.52448-3.57641-18.20106,0-6.88706,1.21691-13.1387,3.656-18.75755,2.43646-5.61621,5.82736-10.4365,10.17404-14.46612,4.34405-4.02568,9.32418-7.12518,14.94236-9.29852,5.61621-2.17202,11.54948-3.26001,17.80375-3.26001,5.29784,0,10.27863.71568,14.94236,2.14703,4.66242,1.43004,8.76834,3.44419,12.32041,6.03983,3.54944,2.59827,6.30295,5.69778,8.26579,9.29984,1.96021,3.60469,2.94032,7.52644,2.94032,11.76392,0,5.51097-1.58922,10.12076-4.76898,13.82938-3.17844,3.71125-7.39093,6.65157-12.63747,8.82228-5.24522,2.17334-10.99562,3.656-17.24726,4.45061-6.25427.79461-12.39869,1.08799-18.43983.87486-.9538-.10525-2.06612-.15919-3.33829-.15919-1.27151,0-2.41146-.025-3.41722-.07893-1.00839-.05262-1.66947-.08025-1.98718-.08025.63608,2.86139,2.14571,5.51228,4.5302,7.94874,2.38449,2.43909,5.32547,4.31905,8.82294,5.64252,3.49681,1.32611,7.2574,1.98784,11.28636,1.98784,3.49681,0,6.88706-.58149,10.17338-1.74972,3.28369-1.16429,6.33057-2.78114,9.14065-4.84791,2.80613-2.06678,5.11103-4.31642,6.91469-6.75551l15.41992,11.60342c-3.39288,4.45192-7.31331,8.13555-11.76392,11.04824-4.45061,2.91664-9.21959,5.06235-14.30694,6.43845-5.08603,1.3761-10.38651,2.06678-15.89616,2.06678ZM544.31574,168.83602c3.49681,0,7.01928-.15919,10.57069-.47756,3.54944-.31705,6.83576-.92617,9.85633-1.82734,3.01926-.89986,5.45571-2.17071,7.312-3.81518,1.85234-1.64184,2.78114-3.73625,2.78114-6.27927,0-2.11808-.71436-3.99936-2.14571-5.64252-1.43004-1.64184-3.33763-2.96663-5.72277-3.97437-2.38383-1.00642-5.11366-1.51029-8.1862-1.51029-4.87554,0-9.19525,1.11298-12.95518,3.33763-3.76322,2.22596-6.7042,5.11498-8.82294,8.66441-2.12137,3.55207-3.28566,7.23306-3.49681,11.04693,1.27151.10788,2.86073.21444,4.76832.31837,1.90759.10656,3.91977.15919,6.04115.15919Z" fill="#c93020"/><path d="M626.97497,118.12697c-4.45192,0-8.16186-1.3511-11.1285-4.05462-2.96795-2.7022-4.45061-6.06483-4.45061-10.09313,0-4.02699,1.48266-7.41724,4.45061-10.1747,2.96663-2.75483,6.67657-4.13224,11.1285-4.13224,4.45061,0,8.15923,1.37741,11.12718,4.13224,2.96532,2.75746,4.45061,6.14771,4.45061,10.1747,0,4.02831-1.48529,7.39093-4.45061,10.09313-2.96795,2.70352-6.67657,4.05462-11.12718,4.05462ZM615.52942,216.84287v-88.06627h22.57273v88.06627h-22.57273Z" fill="#c93020"/><path d="M662.58247,216.84287v-69.62578h-10.17338v-18.44049h10.17338v-5.4044c0-5.61621.89986-10.35756,2.7022-14.22669,1.80103-3.86781,4.34405-6.99494,7.63037-9.38009,3.28369-2.38383,7.20543-4.10461,11.76392-5.16628,4.55454-1.05773,9.59058-1.48266,15.10286-1.27085v18.75755c-2.8627,0-5.38072.31837-7.55143.9538-2.17334.63543-3.89412,1.82866-5.1676,3.57706-1.27085,1.74841-1.90759,4.26643-1.90759,7.55012v4.60979h15.5791v18.44049h-15.5791v69.62578h-22.57273Z" fill="#c93020"/><path d="M754.30343,217.95585c-8.48023,0-16.08297-1.85365-22.81085-5.56359-6.73183-3.70862-12.08229-8.95516-16.05534-15.73829-3.97437-6.7805-5.96221-14.78318-5.96221-24.00277s2.01284-17.19332,6.04115-23.92383c4.02699-6.72919,9.4827-11.92311,16.37371-15.5791,6.88706-3.656,14.57005-5.48465,23.04897-5.48465,8.4776,0,16.13559,1.82866,22.97135,5.48465,6.83444,3.656,12.26516,8.84991,16.29346,15.5791,4.02568,6.73051,6.04115,14.70424,6.04115,23.92383s-2.04178,17.22226-6.1214,24.00277c-4.07962,6.78313-9.5919,12.02967-16.53158,15.73829-6.94232,3.70994-14.70424,5.56359-23.28841,5.56359ZM754.30343,198.40238c3.91911,0,7.63037-.92617,11.12718-2.78114,3.49813-1.85365,6.35952-4.71372,8.58416-8.58416,2.22596-3.86649,3.33894-8.6631,3.33894-14.38587s-1.08799-10.49175-3.25869-14.30694c-2.17334-3.81518-4.98342-6.64894-8.42498-8.50391-3.44551-1.85365-7.12913-2.78245-11.04824-2.78245-3.92175,0-7.55143.9288-10.88906,2.78245-3.33894,1.85497-6.06877,4.68873-8.18686,8.50391-2.12072,3.81518-3.17976,8.58416-3.17976,14.30694s1.00642,10.51938,3.02057,14.38587c2.01152,3.87044,4.69004,6.73051,8.02767,8.58416,3.33894,1.85497,6.96731,2.78114,10.88906,2.78114Z" fill="#c93020"/><path d="M816.45803,216.84287v-88.06627h22.41486v88.06627h-22.41486ZM834.10391,175.67178l4.76898-26.70628c2.01152-6.57001,5.4294-11.76392,10.25232-15.5791,4.8216-3.81518,10.572-5.72277,17.24858-5.72277v23.52784c-.9538-.31837-1.8826-.50255-2.78245-.55649-.90117-.05262-1.82734-.08025-2.78114-.08025-4.13355,0-7.8698.9538-11.20743,2.86139-3.33894,1.90759-5.9609,4.71767-7.86849,8.42498-1.90759,3.71125-2.86139,8.32105-2.86139,13.8307h-4.76898Z" fill="#c93020"/><path d="M914.69637,217.95585c-6.99363,0-13.0624-1.48266-18.20106-4.45061-5.14129-2.96663-9.08803-7.25806-11.84286-12.8769-2.75746-5.61621-4.13355-12.39935-4.13355-20.34677v-51.50497h22.25567v47.68979c0,7.10019,1.80103,12.58484,5.4044,16.45265,3.60206,3.86912,8.31842,5.80171,14.14775,5.80171,4.02699,0,7.5238-1.03273,10.49175-3.09951,2.96532-2.06678,5.24522-4.90054,6.83576-8.50523,1.58922-3.60074,2.38383-7.68167,2.38383-12.23885l3.49813,4.60979c-.31837,8.79729-1.93522,16.05534-4.84923,21.7768-2.91533,5.72277-6.62395,9.93526-11.12718,12.63878-4.50586,2.7022-9.45902,4.0533-14.86343,4.0533ZM942.03808,204.92108v-76.14448h22.57273v88.06627h-10.64962c-3.60469,0-6.49371-1.08535-8.66441-3.25869-2.17334-2.17071-3.25869-5.05972-3.25869-8.6631Z" fill="#c93020"/><path d="M986.38761,216.84287v-88.06627h22.41486v18.59968c1.3761-3.92043,3.49681-7.36462,6.3582-10.33257,2.86139-2.96663,6.14508-5.27153,9.85633-6.91601,3.70731-1.64184,7.52249-2.46408,11.44423-2.46408,8.05267,0,14.78449,2.25359,20.1889,6.75682,5.4044,4.50586,8.74335,10.62594,10.01551,18.36024,1.27085-5.29784,3.39025-9.80107,6.3582-13.51233,2.96532-3.70862,6.57001-6.57001,10.80881-8.58416,4.23748-2.01152,8.79597-3.02057,13.67151-3.02057,10.59569,0,18.99567,3.23501,25.196,9.69714,6.19902,6.46608,9.29984,15.73829,9.29984,27.81926v51.66284h-22.41486v-47.37142c0-7.09887-1.80235-12.66246-5.4044-16.69077-3.60469-4.02568-8.32105-6.04115-14.14775-6.04115-5.9359,0-10.70488,2.3049-14.30694,6.91601-3.60337,4.60979-5.4044,10.4115-5.4044,17.40645v45.78088h-22.25567v-47.37142c0-7.09887-1.80235-12.66246-5.4044-16.69077-3.60469-4.02568-8.32105-6.04115-14.14775-6.04115-3.92175,0-7.36725,1.06167-10.33257,3.17976-2.96795,2.12072-5.27285,5.0071-6.91469,8.6631-1.64448,3.656-2.46408,7.81718-2.46408,12.4796v45.78088h-22.41486Z" fill="#c93020"/></svg>