<?xml version="1.0" encoding="UTF-8"?><svg id="a" xmlns="http://www.w3.org/2000/svg" viewBox="0 0 640 640"><polygon points="483.46326 639.87946 478.09826 638.73294 473.13133 637.99021 468.16455 638.14636 463.19741 638.87731 458.22934 638.17131 453.2598 638.55045 448.29073 639.75928 443.32281 638.41179 438.35545 638.73144 433.38799 639.08989 428.41978 638.75131 423.45015 638.90051 418.48083 639.03497 413.51265 640 408.54484 638.04506 403.57663 639.6853 398.60722 639.72731 393.63742 639.93612 388.66885 639.76793 383.70062 638.92257 378.73178 639.00413 373.76136 638.03171 368.79212 639.42471 363.82354 639.1858 358.85451 639.69715 353.88386 638.86007 348.91456 638.20905 343.94565 639.67095 338.97716 638.19683 334.00806 639.41079 329.04202 638.08267 324.0775 639.97737 319.11287 638.41498 314.14643 639.99756 309.1764 638.68862 304.20743 638.32352 299.24089 638.46865 294.27466 639.87638 289.30647 639.75646 284.3345 638.89856 279.36615 639.45072 274.39867 638.95003 269.42913 639.30742 264.458 638.88421 259.4894 638.34922 254.51966 639.20323 249.54795 639.53391 244.57853 638.60675 239.60667 638.04531 234.63617 638.4877 229.66468 638.33675 224.69353 639.19132 219.72095 638.50714 214.74961 639.0588 209.77687 638.93618 204.80335 638.31017 199.83059 638.00174 194.8627 638.83243 189.8901 639.10562 184.92053 639.75269 179.9485 639.25394 174.9743 638.0366 170.00011 638.60838 165.02584 638.10894 160.05299 638.01998 155.07945 639.49523 150.10159 638.71044 145.12031 639.48458 140.40875 638.3591 137.17946 634.97695 132.80004 632.36315 130.02739 628.14998 126.263 624.92514 123.1458 621.0527 118.72782 618.47173 115.70769 614.49897 112.08237 611.13285 108.77795 607.4473 105.81433 603.41932 101.72656 600.50649 98.64853 596.59232 94.02261 594.2222 91.3383 589.91392 88.0371 586.21828 84.35153 582.90932 80.74702 579.51794 77.64287 575.62508 72.9711 573.29792 70.18364 569.08921 66.80616 565.47048 62.62147 562.65493 58.90225 559.3759 56.26682 555.01465 52.14811 552.1411 48.99502 548.29715 46.07125 544.23239 41.74067 541.56168 38.85208 537.4576 35.52114 533.78781 31.03906 531.26965 28.66699 526.64491 23.80114 524.50277 21.06652 520.23637 16.94629 517.35917 13.9824 513.32153 11.12196 509.17981 6.58983 506.70255 3.88882 502.38888 .85764 498.96947 .21689 494.39975 0 489.46093 1.94525 484.71935 1.53078 479.76436 2.89169 474.97063 2.458 470.0137 3.39339 465.18385 3.11552 460.24556 4.56584 455.46377 5.28335 450.61378 4.26235 445.60271 5.95277 440.83837 5.8911 435.91769 6.07262 431.01934 6.22726 426.11661 7.95534 421.35272 8.26564 416.46394 7.48281 411.47698 8.81412 406.67954 9.3444 401.80794 10.1533 396.9641 10.47344 392.07484 9.4182 387.059 10.20808 382.21261 10.98114 377.3623 10.78065 372.42511 11.12869 367.53664 13.18716 362.8035 13.57213 357.9173 12.41545 352.89264 14.43367 348.15427 13.77746 343.17281 15.04742 338.36662 15.5357 333.49442 15.06124 328.53034 15.12893 323.61837 16.14554 318.78994 17.10941 313.9546 16.87561 309.01075 16.99703 304.09899 18.37318 299.30234 18.66146 294.40644 18.45398 289.46133 19.81904 284.65533 20.43863 279.86609 21.77433 275.08395 24.6807 270.97543 27.40375 266.77865 29.3328 262.19687 30.62588 257.3051 32.56288 252.72106 34.92955 248.3442 36.55241 243.61092 38.82003 239.19123 41.07158 234.76364 44.16394 230.7408 45.71403 225.96787 48.28914 221.692 49.63661 216.82494 52.87678 212.87383 54.40784 208.09375 56.36526 203.51572 59.39576 199.46083 62.12164 195.25954 63.40529 190.35827 65.18287 185.69418 68.0929 181.58073 69.88713 176.92623 72.41812 172.62597 74.36922 168.04771 76.25094 163.43319 78.0021 158.75702 81.08796 154.72541 83.37948 150.30992 85.78994 145.95038 88.14175 141.56384 88.88288 136.39656 91.82545 132.29339 93.59492 127.62571 95.22618 122.89425 97.77896 118.60337 100.059 114.18389 101.97561 109.58587 104.11248 105.092 107.72733 101.31313 109.51807 96.65173 111.45648 92.06335 112.95635 87.26206 116.1679 83.284 117.60218 78.44237 119.78569 73.73466 124.91979 73.04359 129.60776 71.55122 134.42518 70.50803 139.02903 68.71514 143.95092 68.04107 148.64397 66.56643 153.08038 64.19037 157.93812 63.28481 162.91664 62.80677 167.23872 60.03101 171.88544 58.39112 177.064 58.60888 181.71771 57.01438 186.386 55.46346 191.16699 54.2951 195.88852 52.91627 200.47688 51.08182 205.14806 49.54305 210.07371 48.89549 214.77827 47.46679 219.55305 46.27113 223.93937 43.71824 228.98867 43.49706 233.81219 42.48591 238.62874 41.44323 243.24967 39.70154 247.76824 37.61425 252.83993 37.46813 257.33972 35.31075 262.32686 34.85523 266.73898 32.39403 271.61966 31.57048 276.33669 30.16646 280.98132 28.51699 285.72851 27.21809 290.71774 26.77214 295.096 24.18191 300.05948 23.64336 304.64296 21.76825 309.1573 19.65537 314.34053 19.88106 318.65076 17.04518 323.77283 17.06349 328.60386 16.07204 333.17482 14.15245 337.67242 11.9867 342.78323 11.96062 347.09075 9.11221 352.24792 9.24082 356.69622 6.88537 361.67669 6.39967 366.12496 4.04678 370.72149 2.19776 375.74593 1.83568 380.50882 0 384.06512 3.61895 387.42222 7.23684 391.37119 10.1871 394.86383 13.6451 398.923 16.46552 401.93818 20.45601 406.19832 23.05172 409.25414 27.00096 413.82291 29.25875 417.18158 32.87435 420.72134 36.28234 424.92612 38.9424 428.75587 42.02313 432.02603 45.73402 435.25403 49.49754 439.88203 51.68963 442.50172 56.13005 446.12661 59.44287 450.56696 61.84421 454.18274 65.17579 457.46305 68.87814 461.18125 72.08818 464.71893 75.50372 468.96231 78.13029 471.94029 82.17203 476.25848 84.71265 479.95671 87.95138 483.85047 90.96746 486.74624 95.10621 490.1683 98.65282 494.89619 100.73664 497.97534 104.66873 501.72727 107.84852 505.45484 111.04581 508.5381 114.97398 512.16937 118.27945 516.79678 120.47655 519.70303 124.5995 523.68566 127.52246 528.04212 130.02175 530.87785 134.22993 534.30179 137.78174 537.9881 141.03934 542.81318 143.02014 546.3917 146.39663 549.86421 149.893 553.9422 152.71231 557.51334 156.11187 560.41088 160.13925 562.71542 164.52806 562.32589 169.71946 564.19914 174.30887 565.39403 179.07867 567.72297 183.54781 567.75872 188.62793 569.49379 193.25606 570.6896 198.02636 572.57426 202.61318 573.81048 207.37277 575.3175 212.06161 576.54191 216.82597 577.81846 221.5752 579.24496 226.28423 579.38893 231.33477 580.48837 236.13298 581.37288 240.9871 582.68157 245.7278 585.62772 250.03374 586.70286 254.83864 587.54803 259.69707 587.71127 264.73889 589.83786 269.26236 590.872 274.0768 592.18703 278.81346 594.5064 283.28162 595.67917 288.05464 595.65674 293.14719 596.73737 297.95025 599.61782 302.27383 600.73043 307.06479 601.27068 312.00757 603.54103 316.49251 604.79384 321.25179 604.98848 326.2886 606.34162 331.0166 607.32532 335.84491 608.73378 340.56195 609.51864 345.44214 611.41953 350.02687 612.83653 354.74223 614.44972 359.40311 615.75621 364.14799 616.46067 369.0515 617.94355 373.74913 618.19762 378.77302 621.04526 383.10902 622.56231 387.79741 622.00848 393.03766 624.59322 397.44449 624.92013 402.4487 627.30804 406.90225 628.71825 411.62048 629.97735 416.37579 629.75482 421.52743 631.96008 426.03598 633.49832 430.72182 634.59819 435.52427 636.35571 440.15045 637.89841 444.83444 638.36043 449.81009 639.56838 454.59099 640 459.19667 637.90828 463.49365 633.55931 466.30414 631.54102 471.14377 627.32951 474.06854 623.71985 477.51768 620.34584 481.17344 617.91072 485.65081 614.34067 489.1429 611.15168 492.96811 607.76412 496.61608 604.03108 499.96074 601.2131 504.1036 598.82437 508.62322 594.4186 511.38848 591.79025 515.70249 587.63429 518.68097 585.57017 523.48342 581.91313 526.89923 578.55946 530.58466 575.17321 534.23684 571.42 537.56783 569.15598 542.20034 564.53288 544.77752 562.37617 549.50237 558.84837 553.03296 555.17869 556.44243 551.85861 560.15375 548.71825 564.02505 546.05349 568.30934 541.99943 571.38328 538.52182 574.95952 536.21555 579.55922 532.66313 583.07046 529.83632 587.21442 526.23965 590.67963 522.91267 594.38776 518.71988 597.33709 516.35623 601.88792 512.71054 605.31663 509.61379 609.22736 506.45663 613.08829 503.06363 616.7435 499.92616 620.6217 495.5258 623.39659 493.58402 628.31661 489.59374 631.45174 485.76519 634.82049 483.46326 639.87946" fill="#c93020"/><path d="M292.98383,162.80219c.21201-.32602.47602-.61503.78154-.85604.23951-.25901-.006-.98655-.057-1.49357-.17201-1.70458-.38652-3.40567-.52753-5.11275-.0725-.87954-.027-1.76909-.028-2.65463,0-.23651-.056-.63303.051-.68753,3.05965-1.56158.86954-4.72273,2.0816-6.88334.42402-.75604.082-1.90759.25251-2.84914.15151-1.01705.44652-2.0071.87604-2.94114.87504-1.73559,1.91559-3.38767,2.89914-5.06775.081-.13151.20801-.22851.35652-.27101,3.40217-.71804,5.82179-4.62723,9.90499-2.92714l-.51203,1.44657,3.9707-1.89559c.10501.14001.56603.80704,1.08405,1.42657.46902.56103,1.08205,1.58508,1.49057,1.51957,3.14865-.50352,3.28566,2.30461,4.20721,3.92069.96155,1.9581,1.69858,4.0182,2.19811,6.1413.30151,1.29356.52753,2.60363.67653,3.92369l.62403.28951c-.12751.81804-.20951,1.64258-.24551,2.47012.0195,1.13856.21851,2.27611.21501,3.41367.027,1.27856-.0585,2.55713-.25601,3.82069-.28301,2.66063.75204,5.29126,2.77214,7.04585-.96705,1.06955-2.43312,2.0986.19301,3.38317-2.15911.58303-2.57963,1.65108-2.19061,3.48317.16251.76454-.96855,1.75559-1.37957,2.70113-.67253,1.54658.36802,2.67663,1.23006,3.68768,1.9661,2.30561,2.0206,2.25911.55903,4.66073l2.0981,1.06405-3.02965,2.27011c.0785,1.71208.0315,3.54217.27201,5.33376.47602,3.54417,1.23006,7.05385,1.62208,10.60502-.062,1.48307-.22651,2.96015-.49302,4.42072-.21151,1.20556-.069,2.44712.41052,3.57318,1.30556,2.56313,1.9331,5.41777,1.82209,8.29191.18551,1.28156.62103,2.68913-.77854,3.85669-.50302.41952-.50602,1.62758-.46952,2.46412.34552,1.43957.48502,2.92064.41552,4.39922-.57853,2.0726.54053,3.05165,1.59108,4.37472.63453.79754,1.72709,1.79159.54653,3.13265-.21051.23901.25601,1.07355.49702,1.9501-3.32816,4.89124.58203,8.90594,2.61463,13.32466-.25451.0785-.50102.18101-.73604.30552-.20851.18751-.39352.39952-.54953.63203,3.08815,1.74559,2.24361,4.72773,2.31811,7.55637-3.25716-.87904-2.0651,2.0371-2.68513,3.45667-.67803,1.35407-1.53908,2.60913-2.55863,3.72918-.87354,1.17106-1.86559,2.24811-2.96115,3.21516-1.22606.77804-3.42017.50552-4.1627,1.47807-1.84309,2.41412-3.42417.38202-5.13375.45352-3.51317.14751-5.90129-2.0631-8.84994-2.99615.33052-2.49762-2.44262-2.61613-3.25466-4.24171.26301-.33802.52803-.67253.79154-1.00605l-1.57608-1.20706c.94005-2.70763-2.50512-4.54422-.88454-7.62938.95305-1.81559-.39602-4.89774-.85654-7.38336-.50602-2.73063-1.22656-5.42127-1.76859-8.1464-.51153-2.57213-.91254-5.16575-1.31056-7.45337.0795-.83004.07-1.66608-.029-2.49412-.37752-1.48607-.87404-2.93964-1.48507-4.34621-.96155-1.52808-1.20306-3.40117-.66153-5.12325.54353-1.40057,2.1261-3.39317.52503-5.40827-.33652-.42352.20651-1.53908.33202-2.33762.33852-1.28856.51953-2.61363.53803-3.94619-.15751-1.63908-.86654-3.21716-1.18206-4.85174-.0965-.95605-.11701-1.91859-.0605-2.87814-.072-2.57863-.0885-5.16225-.28451-7.73238-.23151-.79504-.59753-1.54408-1.08205-2.21561.0345-.051.53753-.45702.48002-.75404-.43952-2.25961-1.00655-4.49372-1.48407-6.74633-.03-.38952.028-.78054.16951-1.14506.90454-2.0401,1.45757-4.21821,1.63558-6.44282-.21001-2.17861.73854-4.84024-1.47407-6.69683-.27851-.23351-.038-1.08655-.038-2.0546l.74954,1.44957.35352-.11551c-.0365-.25051.0205-.60453-.12401-.73504-1.65408-1.07655-2.1226-3.28966-1.04655-4.94424ZM233.07888,166.90139c.11951.55553.14701,1.12656.082,1.69058-.0875.85804-.58403,1.79159-.37102,2.54013.69303,2.43212-1.26206,5.07675.64803,7.37886.066.0795-.22601.40052-.24651.61853-.066.70453-.0355,1.42007-.12801,2.1196-.22901,1.72759,1.75659,3.88219-.32002,4.76223.24101,1.26806.92805,2.56213.54203,3.27916-1.03555,2.0851-1.01005,4.54022.0695,6.60282.95405,1.9621-.16901,2.56763-1.02805,3.68518l1.60108,1.29356c-1.13606,3.34866-.93855,7.00634.55153,10.213.37602.66203,1.81109,2.84864-.82504,3.32866-.31952.029-.64053.029-.96005-.001.20251.36002.43852.70003.70453,1.01555.17851.17551.33002.37602.44952.59603.66703,1.22706.21351,2.76314-1.01405,3.43067,1.00005,4.67773,2.0336,9.31196,2.92164,13.97369.09.47502-.69503,1.11655-.85504,1.35407.40352,1.15006,1.11155,2.1191.95205,2.91364-.45602,1.9926.30902,4.0667,1.9501,5.28626-.75104.56053-1.9731,1.08155-1.9426,1.51357.17151,2.41512.67803,4.80424,1.00255,7.21085.15601,1.15356.16451,2.32661.23951,3.49067.64953.90454,1.51857,2.29911,1.13356,2.93814-1.15606,2.34462-.88804,5.14175.69253,7.22436,2.38012,5.05325,7.34336,8.39041,12.92114,8.68843.39452-.031.79104.041,1.14956.20851,2.0681,1.43107,4.88824,1.03655,6.48482-.90654,1.30006-1.19956,1.89809-1.26356,2.68513-.25401l3.89019-7.02535.49202-2.83914c-.087-2.29561-.35702-4.58073-.80704-6.83384-.37852-1.08155-.88054-2.1161-1.49557-3.08315l.57653-3.65668,2.0196-.64953c-.40952-1.30506-2.93864-1.42757-1.31356-3.25066,1.24656-1.39807.61053-2.61363-.13301-4.0362-.62853-1.08705-.85404-2.36062-.63753-3.59768.68303-1.9676.46652-4.1362-.59303-5.92979-.29551-1.89009-.49702-3.26466-.72704-4.63423-.40002-2.38012-.85154-4.75173-1.21356-7.13735-.17801-1.17156-.20501-2.36662-.34552-4.1172l-1.30256-1.24356c.69053-.27101,1.62158-.49002,1.61158-.65403.37052-3.06315-.39702-6.1558-2.15611-8.69093.20351-.1.39452-.22401.56903-.36902,1.21856-1.01355,1.38507-2.82364.37102-4.0427-1.05355-1.68258-.72754-2.37562.91755-2.90164-.63903-1.25156-2.31411-2.26111-.40652-3.67918.19701-.14601.15001-.77554.0525-1.13656-.62953-2.33611-1.36507-4.64573-1.9331-6.99584-.30702-.86504-.30752-1.80959-.0015-2.67513.87604-1.84159,1.20006-3.89769.93155-5.91929-.24251-3.23316-.74104-6.44182-1.49057-9.59597l2.1016.52503c-.95605-1.63258-2.19961-3.02315.22001-4.1332.19251-.088.056-1.15606-.11601-1.71008-.27551-.73004-.60203-1.43957-.97755-2.1236-1.68358-3.54167-3.31066-7.11385-5.09675-10.60352-.37952-.74204-1.37707-1.14806-2.0226-1.77809-.92405-.90054-1.78609-1.86509-3.00465-3.15016.43202-2.0856-2.36212-1.39257-3.61768-2.13961-1.50057-1.25656-3.73218-1.07455-5.00975.40852l-.60853-2.63963c-.74254.68053-1.61758,1.08955-1.73059,1.65158-.68103,3.38817-3.71418,5.06325-5.47527,7.65138-1.13206,1.41157-1.40857,3.32616-.72254,5.00025-.39702.21351-.79054.42702-1.22656.66353l.89304,1.69108c-1.60508.50803.85054,2.58363-1.13656,2.94414.52653,2.0791,1.07505,4.1537,1.56458,6.24181ZM488.06193,177.49392c-.72954-.21201-1.32607-.73954-1.62558-1.43757-.62803-1.83109-1.42907-2.29911-3.15666-1.71158-.74504.13601-1.50607.16201-2.25861.0775l.15551-1.69908h-7.57537l1.19356-1.46957c-1.40457-.0595-2.80964.0995-4.16521.47152-2.21411,1.06055-2.82564-.068-3.11665-1.77159-1.16556.64353-2.44312,1.05805-3.76469,1.21956-2.51962-.26501-4.97474-1.09655-7.47937-1.57908-.91204-.0615-1.82709-.057-2.73863.0135-1.37157-.056-2.74013-.18251-4.1097-.27851l.0285.64003-.96255-1.25056c-.24501.37152-.40802.90354-.75304,1.08155-.76504.37902-1.57158.66653-2.40362.85704-.89904.21901-1.83009.30602-2.90164.47502-.20201-.22751-.66753-1.16256-1.07855-1.13906-1.33107.18051-2.64963.44302-3.94869.78604-1.21706.22401-3.14115.93005-3.56118.42752-2.0486-2.45312-3.16216-.28051-4.57122.57953-2.46862-1.02555-3.31366-.82804-4.1557.92455l-.62653-.79454c-1.58758,1.52608-4.50072-.56653-5.70428,2.0861-.19851.25451-.50803.39702-.83054.38352-2.29411-.25251-3.35116,1.60858-4.46972,2.92514-1.43157,2.17161-2.0636,4.77273-1.78809,7.35886-.41352,2.91014.99605,5.77678,3.55367,7.22536.29601.19901.48052.52653.49702.88304-.096,1.37407.80654,2.61913,2.14211,2.95615,2.40462-.0445,1.25656,1.52007,1.47907,2.75564h14.01069c-1.63958.96005-1.20956,1.75009.18051,2.21211,1.84609.61353,1.65958,2.18361,1.85709,3.57168.12701.88954.11251,1.79909.18701,3.18066-1.34057,1.10255-.92805,4.0117,1.41607,5.37426-1.53658,2.53812.36302,4.41422,1.43657,6.68883l-2.53112-.93955c.21601,1.26456.42452,2.32311.57203,3.38967.15251,1.10255.75254,2.63263.25701,3.23016-.77954.92955-1.05755,2.18061-.74554,3.35317.083,1.61458-.0685,3.23266-.44952,4.80374-.20701,1.15556-.81254,2.24261-.99355,3.39867-.0515.94705.0005,1.89659.15551,2.83214l2.35262,1.45007-3.46767.28551.63203,2.30661,1.9661-.26401.60553,2.92214c-.66803.46702-1.54208.78754-1.56258,1.15606.0535.55653.24051,1.09205.54453,1.56108-.55603,1.88809-.99005,3.81019-1.29956,5.75428-.10201,2.1036-.092,4.21121.0295,6.31381.0135,1.34457.056,2.69063-.0065,4.0317-.081.79604-.21051,1.58608-.38802,2.36612-.29101.67753.25601,1.41607.22001,2.1251-.20551,4.0492-.60253,8.0889-.82004,12.1381-.081,1.51107-1.70408,2.57313-1.70058,3.40667.01,2.81364-1.47057,5.48577-.65703,8.34641.22251.78054.33802,2.1231-.0915,2.46812-2.15061,1.72859-.93855,4.44322-2.14211,6.43332-.72354,1.28656-1.24706,2.67563-1.55208,4.1197-.13151.90254-.14701,1.81809-.0455,2.72463l.98705,1.18806-2.0101.65053c3.15316,3.95469.14901,7.71288-.60203,11.55107-.31402,1.60508-2.97865,1.85209-2.61163,4.62023-.10651,2.62913-.67053,5.21976-1.66658,7.65538-.22901.92255-.52103,1.82909-.91955,3.21416-2.49212,1.88659-2.57863,2.18711-1.59908,5.70328.20301.55753.23051,1.16356.08,1.73759-.55203,1.57208-1.29706,3.06965-2.21711,4.45872-2.18911,2.41312-2.92014,5.81329-1.91659,8.91294.15701.46152-.21701,1.10305-.34552,1.66158l-1.36007-.52103c1.03605,1.83809.68803,4.1462-.84404,5.59728-.82304.72804-1.30106,1.76959-1.31606,2.86814.47052,2.70113-1.12256,4.39272-2.32761,6.40732-1.05805,2.0531-1.9871,4.17021-2.78114,6.33931-1.33107.44502-2.29711,3.44717-.99005,5.72678-1.72959-.42852-1.68558,1.58258-2.0261,1.68808-2.33361.72354-1.87359,2.40862-2.15461,4.1392-.60853,3.23916-1.41457,6.43782-2.41312,9.57797-.32052.64553-.85654,1.15806-1.51507,1.44907-1.43207.77204-3.19016,1.30606-3.28666,3.22966-.0845,2.57813-1.20456,5.01375-3.10765,6.75533-.23001.16851-.22351.63453-.38052.93455-.20751.37252-.43502.73354-.68153,1.08155-.59603.88454-1.90959,2.13811-1.67608,2.58163,1.01455,1.92759-.75854,3.10765-1.42557,3.50667-2.54563,1.9481-4.32371,4.73023-5.02325,7.85839-.64703,1.67758-.62953,2.94014-3.06765,2.48312l.88254,2.1296c-1.02655.54353-2.35012.82604-2.90914,1.63608-.73004,1.28406-1.30806,2.64863-1.72258,4.0662-2.61713-.0855-2.0526,1.82559-2.46512,3.00715-.34302,1.22156-.83104,2.39712-1.45257,3.50267-1.68658,2.58063-3.54267,5.05025-5.33026,7.56437-.95055.43802-.97405.46002-2.0756,2.1286-.0675.10201-.27701.12501-.42652.15551-3.03615.61303-3.9772,3.56768-5.32676,5.59378-1.07655,1.61758-1.58508,3.21916-3.54367,3.29616l-.47652,2.26411c-1.34157-.98155-2.18111.24951-3.15816.75054-1.83159.93955-3.63918,1.92209-4.0852,4.23271-.10451.59253-.30852,1.16256-.60353,1.68708-.54053.90954-1.19006,1.75459-1.83409,2.68413-.89854-.54603-3.76969.64753-4.71023,2.41712-2.0816-.59603-4.31871,1.18506-5.06575,4.0327-2.43612-.98005-10.1775,3.73668-11.68157,6.95284l-3.55918.34152-3.53367-1.05405,1.07105,1.67358c-1.09705.27801-2.97465.39652-3.05065.83154-.48602,2.76664-1.88759,1.01255-2.88464,1.18906l-3.07515.74354-.43352,1.31106-1.42707-1.16156c-.95705,1.51857-2.66063,2.40012-4.45272,2.30511-1.22606-.10551-2.88964-.47002-3.62868.15001-1.52408,1.42107-3.87469,1.46557-5.45127.10251-.44302-.26401-1.44007.14601-2.0586.47652-2.41612,1.29206-4.62723,1.26906-5.47227.25151-.82204.18101-1.66158.26951-2.50312.26451-1.32207-.18751-2.60363-.68453-3.92719-.84104-2.57113-.30451-5.27826,1.57108-7.77138-.48202-.30451-.0895-.63353-.0175-.87204.19101-1.85709,2.38812-3.69468.44902-5.51077-.018-1.16556-.29951-2.28811-.76154-3.79519-1.27456-.10551-.12801-.47352-1.01455-1.05105-1.18306-1.44707-.42202-3.01115-.42652-4.48922-.76754-2.54463-.58753-5.07325-1.25656-7.58287-1.9811-1.80259-.43102-3.55668-1.04405-5.23576-1.82909-1.54258-.81554-2.74964-2.24911-4.26121-3.14615-1.12406-.51003-2.30361-.88804-3.51467-1.12556l.88154-.48652c-1.71858-1.09955-4.1562-1.81059-5.00275-3.38017-1.67808-3.11265-5.04725-3.84269-7.16535-6.21231-1.56758-1.75409-3.60318-3.08415-5.21726-4.80424-1.72608-1.83959-3.04015-4.0812-4.84374-5.82779-1.36507-.98605-2.82364-1.83559-4.35471-2.53662-.62253-.43852-1.15756-.99055-1.57608-1.62708-1.9421-2.71413-3.9902-5.36976-5.70228-8.2249-1.56858-2.28161-2.72363-4.82124-3.41267-7.50287-.30952-1.71008-.81904-2.17511-2.23361-2.33962.0575-.74254.36852-1.51907.10651-1.92509-1.33307-2.0641-2.92814-3.9632-4.20621-6.0573-.91404-1.56408-1.66308-3.21966-2.23461-4.93874-.40902-2.22861-1.09105-4.39822-2.0306-6.46032-2.1076-3.16566-3.32766-6.83884-3.53217-10.63652-.0265-.38102.0335-.76304.17651-1.11705.67453-1.66708.22101-2.34012-1.11906-2.27261-.14151-.91755-.002-1.92409-.43552-2.49912-1.9546-2.59563-4.0717-5.06925-6.19831-7.67038l2.0586-1.04305c-1.72859-.77204-2.44812-1.64058-1.42957-3.34366.24651-.67253.15651-1.42257-.24301-2.0171-2.0541-3.11565-3.32966-6.67883-3.71918-10.39001-.42852-2.0541-.30301-4.21871-.64353-6.29781-.37952-1.67258-.85654-3.32166-1.42857-4.93874.03-.0785.64053-.84854.47402-1.37207-.49302-1.55408-1.37357-2.98015-1.9486-4.51422-.57953-1.56308-1.06205-3.16016-1.44507-4.78224-.48902-2.0386-.84404-4.1097-1.25356-6.1678-.24551-1.23306-.48352-2.46762-.72504-3.70168-1.60958-2.43912-2.0151-4.20871-.57153-5.02875l-1.09705-2.33812,1.55958-.95055c-.55203-1.25306-1.44007-2.42462-1.17456-2.81914.94605-1.40457,1.08405-2.40762-.39152-3.44667-.22651-.15901-.24501-.68003-.27601-1.04055-.087-2.67713-.32702-5.34726-.71904-7.99739-.63803-2.34562-1.44457-4.64223-2.41312-6.87184l3.29766-5.44727-1.62108-1.74959c2.88114-2.45912.15801-5.15675-.73004-6.56232-1.78709-2.82714.31402-3.72518,1.23856-5.46377l-1.83109.15001,1.49907-5.29526-1.15106-1.24906.62253-.008-.82204-6.91434c.63403-1.55458,1.85559-3.72218,1.55808-3.95569-1.85109-1.45407-.57253-2.84814-.39002-4.29671.0065-.77054-.0835-1.53858-.26701-2.28711l1.17406-.76104c-.39802-.77504-1.18806-1.60258-1.01955-2.1141.60903-1.85159-.15801-3.63718.0095-5.36376-.25751-2.80214.90104-5.54727,3.08815-7.31736-.53303-.19351-1.16056-.33352-1.15406-.43102.15951-2.32311-.21901-4.69423-.036-6.93084.24301-2.97765,2.95515-5.33776,3.02165-8.60092.0395-1.9346.39402-3.86369.61603-5.79379.0305-.12851.0795-.25201.14501-.36652l1.9471-.46702.12351-.58553-2.56463-1.19406,1.29306-2.49412.40852,1.03855.58403-.40302c-.29701-1.02505-1.02505-2.16911-.78204-3.04415.29601-1.06605,1.40857-1.90559,2.19861-2.88114,1.11906.83554,2.1281,2.35362,3.16666-.19051.31252-.76604,1.64008-2.95615,3.15316-.29401.90604-3.23516,4.0512-4.39422,5.39527-7.40236,1.12156-3.63168,1.57508-7.43637,1.33907-11.23005.0165-.28951-.089-.57253-.29151-.78054-1.68758-1.36457-3.46667-2.62313-5.07925-4.0687-.53753-.48102-.49652-1.82059-1.02805-2.0481-1.01505-.18801-2.0461-.28051-3.07865-.27601-1.53308-.30301-3.20866-1.43757-4.50672-1.07755-3.63168.45102-7.18835,1.37657-10.57952,2.75314-1.61558.93805-3.33116,1.70358-4.80924,2.45062l-1.20656-2.0906-.88054.73654.31252,1.9901-5.25826-.66303-.62253,1.60708-4.0372-1.17106-1.04005,3.20116-.75404-1.64008c-2.1301,1.34107-4.42972,2.39162-6.83834,3.12315-1.42557.24151-2.95165-.46002-4.0387,1.09905-.0775.11101-.42952.018-.65153.041-.78804.081-1.57458.17051-2.27611.24801l-7.32536,2.0591-.18601-1.88459c-.007.0375-.0145.0745-.023.11101-.42702,1.88409-2.30061,3.06565-4.18471,2.63863l.81304,1.64608c-3.48417-.48902-4.0787,2.43812-5.30526,4.32971-1.14156,1.76109-3.65968,3.39617-2.0236,5.61078-.56053.93805-.93555,1.66058-1.40757,2.31361-.27501.27301-.59153.50052-.93805.67453v.47552c.80654.17001.88054.51153,1.18356,1.38457.60553,1.27506.85004,2.69163.70703,4.0962-1.01755,3.71718,4.39522,7.35786,7.72938,6.41932l.33102,1.72809q3.83369-.28451,3.88319-.87804l5.23176,1.10955,1.76709-3.05715c.27451.99355.27601,1.52558.47802,1.61708.44002.12201.89754.17001,1.35357.14201-.19601-2.36662,1.54458-2.25961,3.09365-2.48012.59903-.0855,1.41507-.24051,1.69858-.65853,1.08305-1.59708,1.77259-1.44057,2.54713.22701.40052.59503.88654,1.12756,1.44207,1.58158-.97705,1.43307-.20351,4.18471-3.22916,3.72618l1.37907,3.16166-1.28256,2.0141,1.9391.80054-2.87214,2.33211c.96655,1.38557,2.31061,2.75014.83004,4.98575-.56703.85654.14201,2.55763.23001,3.46767-.21101.86854-.36202,1.75109-.45252,2.64063-.053,2.1236.12401,4.26321-.088,6.36681-.25151.81904-.87454,1.47257-1.68108,1.76259-1.35557.41502-1.06305.84504-.52253,1.76559.41052.78554.67303,1.64008.77454,2.52012-1.80309.74604-.61103,2.0221-.54953,2.99465.10851.78704.30552,1.55958.58803,2.30211l-2.23611,1.37557,2.0631,3.18266-2.37262,1.49907c1.29306.93055,1.92809,2.52662,1.62808,4.0907-.16601,1.30956,1.02205,2.78914-.72604,3.85819,2.67563,1.29056.68003,3.78519,1.41657,5.60728.22101.98805.31802,1.9996.28901,3.01165.15551,1.30006.89104,2.68513-.84104,3.59818-.16651.51903-.0945,1.08505.19651,1.54558,1.21356,1.16556,1.06555.92705.051,2.0286-.55703.60503-.30702,1.9536-.42102,2.96665,1.88309.17401.91805,1.11555.64103,2.0386-.32352,1.07655-.86104,2.48912-.43652,3.30166.74304,1.42157,1.44057,2.58763.55303,4.1577-.13301.37102-.14451.77404-.034,1.15206.42202,2.16861.88254,4.32971,1.32357,6.49482.52703,2.58813-.96405,5.52477,1.20506,7.44487l-2.0766,1.64408c2.67913,2.39262,2.91764,4.23071,1.68308,5.14225l5.51877,15.43976-2.80014-.18901c-.0875.41202-.18251.85854-.17001.80104.58103.56803,1.13006,1.16756,1.64558,1.79609.94255,1.32507.30902,2.16561-1.00605,2.78914.34152.31902.62803.69203.84904,1.10405,1.28856,3.95919,2.63113,7.90739,3.68518,11.92959.18201.69503,1.51007.10301,1.04405,1.83059-.54853,2.56163-.064,5.23626,1.34857,7.44287,1.19306,1.69958.99305,2.40812.40752,3.49517,1.25806,6.83684,5.49677,12.37311,7.46087,19.31645.045-.0695-.55653.49752-.44652.73904.90804,2.15711,1.9716,4.24471,3.18316,6.24731.93655,1.44407,1.29756,2.48012-.57103,3.36417,1.9351,1.26806,2.72113,3.71518,1.88609,5.87279.40002.22901,1.00705.36102,1.16456.70153,1.05355,2.27361,1.86959,4.66623,3.03765,6.87484,1.34857,2.55063,1.47557,5.61978,3.67818,7.83489,1.16856,1.17506,2.25661,2.13611,4.0327,1.74209l-2.71513,2.28461c2.91864,1.00355,3.68168,3.75418,5.24526,5.95879,2.27011,3.20116,4.0787,6.1383,3.14415,7.01335.46102.40502,1.09055.72004,1.34507,1.22406,1.07105,2.1216,1.46007,5.28276,3.14465,6.25981,3.92719,2.27711,4.95374,6.59982,7.99389,9.44997,2.65963,2.95665,5.11075,6.0948,7.33536,9.39146,1.35857,1.69358,2.96365,3.18916,4.46672,4.78374l.44152-.67753c.97905,1.32357,1.70308,3.20266,2.51612,3.24216,3.24016.15701,3.91069,3.12065,5.44177,4.82174,1.47907,1.64358,2.38912,3.77519,4.50572,4.95824,2.75064,1.53608,5.35476,3.33666,8.1214,4.84174,1.50657.81954,3.78019.81054,4.71623,1.9736,1.38457,1.88609,3.85669,2.61713,6.0448,1.78859l-.13001.74704c1.63108.84204,2.91164,1.59558,4.26521,2.17811,1.60508.68653,3.24366,1.29206,4.90974,1.81509.96855.26901,1.9596.44902,2.96115.53703.52653.065,1.12456-.19001,1.59958-.031,1.28556.43052,2.48412,1.15156,3.78669,1.48957,2.32411.60353,4.71173.95955,7.04985,1.51557,1.67558.39952,3.29916,1.01655,4.97274,1.42907,2.20511.54253,4.43372.99155,6.65733,1.45807,1.58108.33152,3.59868.13151,4.65473,1.05055,1.11405,1.10755,2.86564,1.24756,4.1412.33052.11701-.056.29801.023.55253.0505l-.083,1.48057c.61803-.32802,1.28256-.94055,1.57758-.79604,2.76864,1.35257,5.03625-1.65258,8.2249-.49752,2.57313.93255,6.0943-.77404,9.20145-1.26806.47202-.013.94405.0365,1.40257.14851,1.62858.20001,3.25666.40052,4.88424.60103l.23351-.67853.44852,1.36607c.57903-.44602,1.17806-1.18106,1.45257-1.07555,2.28011.88004,3.63218-.28951,5.45027-1.53058,2.17111-1.06805,4.50872-1.75659,6.91184-2.0366,1.45107-.0965,2.88414-.37952,4.26271-.84254,1.43157-.81654,2.46512-2.30911,4.28371-.79904.11951.099.66403-.34752,1.02755-.50002.59753-.25001,1.28756-.77204,1.79959-.64053,1.47657.38002,2.1201-.55403,3.13065-1.28306,1.57858-1.13756,2.27761-3.36967,4.91574-3.35216,1.90959-.12401,3.75218-.75304,5.33926-1.82359,1.68408-1.03655,4.0817-1.10405,4.98675-3.36167.10601-.26501.78054-.30251,1.29756-.48252l-.22051,2.34262.71454.28901c.56153-.88504,1.13556-1.76309,1.68058-2.65813.44452-.73004.67653-1.74309,1.31206-2.17411,2.0906-1.41557,4.40322-2.50812,6.47032-3.95369,1.24356-1.06105,2.42712-2.19061,3.54517-3.38317.89004-.78854,1.85309-1.48957,2.87714-2.0941,1.42607-.83604,3.38467-1.05205,3.47917-3.28516,1.82409.45852,2.0651-.61753,2.22561-2.0656.15751-.70453.60853-1.30856,1.23906-1.65958,1.06855-.47002,2.17211-.85604,3.30116-1.15456l-.85354-3.06315,2.48762,1.68558c1.70858-3.65618,3.11965-7.25536,7.69488-7.99689.71554-.11651,1.75059-2.36112,1.53258-3.38667-.72604-3.41967.37852-4.84624,3.92269-4.1322.62053-1.61508,1.22806-3.24816,1.88259-4.86174.13551-.37302.37752-.69753.69703-.93255,3.36967-1.48857,5.78228-4.55122,6.43982-8.1764.077-.67953,1.10655-1.25606,1.70558-1.87059,1.39057-1.42757,2.84614-2.79814,4.1617-4.29171.86804-.98655,1.43407-2.24411,2.32361-3.20566,1.20906-.99505,1.72508-2.60463,1.32107-4.1172-.12351-.43602.43652-1.15206.82204-1.62608.75854-.93355,1.61508-1.78709,2.43112-2.67363l-.47602-.43852c2.85164-1.07905,3.55968-2.62513,2.34112-4.93524l1.87209-.32752c-.32352-1.57908,1.02205-2.16011,1.80009-3.11515,1.08455-1.33257,2.28711-2.69113,1.38357-4.66673-.0525-.11551.40752-.46552.62903-.70653l.39452.54153c2.28311-2.1171,3.72318-4.98875,4.0552-8.0844.0015-.053.12951-.0915.17251-.15501,1.50907-1.92559,2.74964-4.0477,3.68768-6.30731.38802-1.11856-.22151-4.0302,2.69463-3.65318l-2.39812-.90254,3.86419-4.1477-.65603-3.41217c2.0671-.47052,2.25411-.44552,2.58313-2.94564.27151-2.0666,2.39662-3.45867,1.90209-5.77628-.0345-.16301,1.18306-.59303,2.16911-1.06805-.25101-.98105-.41202-1.9836-.48002-2.99415-.0045-.57903.48052-1.57408.91304-1.67758,2.75114-.65953,2.34912-3.28416,3.30966-5.03425.32702-.59553.78454-1.38807.62903-1.9326-.66203-2.31361.38952-2.65713,2.1176-2.19861-2.65363-3.07115.62053-5.79979.57953-8.68493.0325-.60503.10901-1.20706.22851-1.80059l.66553.93755.78404-5.41977,1.19356-.09c.058-.77904.19401-1.55008.40602-2.30211.46652-1.16606,1.25106-2.22011,1.61658-3.40917.53253-1.73359.81254-3.54467,1.20006-5.32276.33152-.60603-.0595-1.48557.18251-2.1256.54403-1.15306.40802-2.51212-.35452-3.53367-.80554-1.25906-.62303-2.90964.43752-3.9627,2.0251-1.81059,3.17666-4.40322,3.16216-7.11985-.15501-1.55908.67053-2.15761,2.20561-1.51557,1.17506-1.76909-2.18761-3.57868.24101-5.66428.90004-.77304.17851-3.25966.53103-4.89274.49452-1.82759,1.09555-3.62468,1.79959-5.38226l-.80254-8.62042c.58353-.30001,1.60108-.52203,1.66658-.90604.40652-2.39612.60103-4.82824.86554-7.24836-.12251-.47652.74154-.76504.91655-1.28506.41952-1.38357.71003-2.80314.86904-4.24021.18751-1.34407.23401-2.70763.36402-4.33171l1.44507-.70703c-.69803-1.60908-1.12106-3.32416-1.25056-5.07325.74854-2.32761,1.18406-4.74423,1.29456-7.18685-.0315-.22001.85254-.56953,1.03205-.68253-.27251-1.06305-.33652-2.16811-.18801-3.25516.99055-2.52462,1.06405-5.31626.20901-7.88989l3.10965-.16451c-3.54317-.88404-.61953-3.79069-2.1011-5.40177l1.21256-.84754c-.101-1.05155-.43352-1.92509-.15851-2.51512.19951-.42752,1.20406-.48052,1.37757-.53953-.71154-3.11915-1.49007-6.32331-2.15461-9.55047-.23401-1.13706-.046-2.36462-.30702-3.49117-.31902-1.37857-.30752-1.50957,1.23856-1.51257-1.02255-3.58668-.66153-7.42687,1.01155-10.76053-.33902-1.09405-.62203-2.20411-.84954-3.32666-.18151-1.16306.26601-3.02015-.32502-3.40767-1.55208-1.01655.98355-2.36612-.54553-3.05915,1.62908-1.20506.63853-2.1261-.17801-3.29866-.081-.14451-.14851-.29651-.20101-.45352-.47052-1.39807.28151-2.91314,1.67958-3.38367-.61353-.57803-1.13106-1.25006-1.53358-1.9906-.41802-1.19806-.65503-2.45162-.70253-3.71968-.11501-1.89309-.026-3.79319.26701-5.66778.10801-.58853,1.34707-1.09705,2.16011-1.38307.50803-.17901,1.26556.35202,1.77359.17301,1.9311-.68103,1.29606.70703,1.33657,1.56558l8.1764.73854,1.61358,1.60608.41252-2.77064c1.31256.29101,2.64613,1.00705,3.59768.66403.76654-.27651,1.07155-1.83309,1.58708-2.83364,1.46257,1.30056,2.48862.30802,3.26166-1.25156.26401-.53253.0895-1.40607.46102-1.74159,1.86759-2.0766,3.03665-4.68673,3.34216-7.46237.76404-1.83659,1.11605-3.81819,1.03155-5.80529-.31852-2.90114-2.43212-5.28676-5.27376-5.95229Z" fill="#fff"/></svg>