<?xml version="1.0" encoding="UTF-8"?><svg id="a" xmlns="http://www.w3.org/2000/svg" viewBox="0 0 640 640"><path d="M639.56836,454.591l-1.20795-4.78094-.46198-4.97565-1.54272-4.68396-1.75751-4.62622-1.09991-4.80243-1.53821-4.68585-2.20526-4.50854.22253-5.15161-1.25909-4.75531-1.41022-4.71826-2.38794-4.45355-.3269-5.00421-2.58472-4.4068.55383-5.24023-1.51703-4.68842-2.84766-4.336-.25409-5.02393-1.48285-4.69757-.70447-4.90356-1.30652-4.74487-1.61316-4.66089-1.41699-4.71533-1.90094-4.58472-.78485-4.88019-1.40845-4.71704-.9837-4.82831-1.35315-4.72803-.19464-5.0368-1.25281-4.75928-2.27032-4.48492-.54028-4.94281-1.11261-4.79095-2.88043-4.32355-1.08063-4.8031.02246-5.09253-1.17279-4.77301-2.3194-4.4682-1.315-4.73663-1.03418-4.81445-2.12659-4.52344-.16321-5.04181-.84515-4.85846-1.07513-4.80487-2.94617-4.30597-1.30872-4.74066-.88452-4.85413-1.09943-4.79822-.14398-5.05054-1.42645-4.70905-1.27655-4.74921-1.22443-4.7644-1.50702-4.68884-1.23621-4.75958-1.8847-4.58679-1.1958-4.77032-1.73505-4.62811-.03577-5.08014-2.32892-4.46912-1.19489-4.76984-1.87329-4.58936.38953-5.19141-2.3045-4.38885-2.89752-4.02734-3.57117-3.3996-4.078-2.81927-3.47247-3.4964-3.57855-3.37646-4.82507-1.98083-3.68628-3.25757-3.42395-3.55182-2.83575-4.20819-4.35645-2.49927-3.98267-2.92297-2.90625-4.12292-4.62738-2.19714-3.63129-3.30542-3.08325-3.92822-3.72754-3.19727-3.75195-3.17981-3.07916-3.93207-4.72784-2.0838-3.42206-3.54663-2.89581-4.13873-3.89374-3.01611-3.69824-3.23871-4.31818-2.54065-2.97797-4.04169-4.24341-2.62659-3.53766-3.41553-3.7182-3.21008-3.28033-3.70233-3.61578-3.33154-4.44031-2.40137-3.62494-3.31281-2.61969-4.44043-4.62799-2.19208-3.22797-3.76355-3.2702-3.71088-3.82971-3.08075-4.20477-2.66003-3.53979-3.40802-3.35864-3.6156-4.56879-2.25775-3.05579-3.94928-4.26019-2.5957-3.01514-3.99048-4.0592-2.82043-3.49261-3.45801-3.94897-2.95026-3.35712-3.61786-3.55627-3.61896-4.76288,1.83569-5.02448.36206-4.5965,1.849-4.4483,2.35291-4.98047.48572-4.4483,2.35547-5.15717-.12866-4.3075,2.84845-5.11084.02606-4.49756,2.16577-4.57098,1.91956-4.83105.99146-5.12207-.01831-4.31024,2.83588-5.18323-.22565-4.51428,2.11285-4.5835,1.87512-4.9635.53851-4.37823,2.59027-4.98926.44592-4.74719,1.29889-4.64459,1.64948-4.71704,1.40405-4.88068.82355-4.41211,2.46118-4.98718.45551-4.49976,2.15741-5.07172.14612-4.51855,2.08728-4.62097,1.7417-4.81653,1.04266-4.82355,1.01117-5.04926.22119-4.38635,2.55286-4.77478,1.19568-4.70453,1.42871-4.92566.64752-4.6712,1.53882-4.58832,1.83441-4.72156,1.37885-4.78101,1.16833-4.66827,1.55096-4.65369,1.59448-5.17859-.21777-4.64673,1.63989-4.32208,2.77576-4.97852.47803-4.85773.90558-4.4364,2.37604-4.69305,1.47467-4.92188.67407-4.60388,1.79291-4.81738,1.04315-4.68799,1.49237-5.13409.6911-2.18353,4.7077-1.43427,4.84161-3.21155,3.97809-1.49988,4.80127-1.93842,4.58838-1.79071,4.66138-3.61487,3.77887-2.1369,4.4939-1.91656,4.59802-2.28003,4.41949-2.5528,4.29083-1.63129,4.73151-1.76947,4.66766-2.94257,4.10315-.74115,5.1673-2.35181,4.38654-2.41046,4.35956-2.2915,4.41547-3.08588,4.03162-1.75116,4.67615-1.88171,4.61456-1.95105,4.57825-2.53101,4.30023-1.79425,4.65454-2.91003,4.1134-1.77759,4.66412-1.28363,4.90125-2.72589,4.20129-3.03052,4.05487-1.9574,4.57806-1.53107,4.78009-3.24017,3.95111-1.34747,4.86707-2.57507,4.27582-1.55011,4.77295-3.09235,4.02283-2.25159,4.42761-2.26758,4.41968-1.62286,4.73328-2.3667,4.37689-1.93701,4.58405-1.29303,4.89172-1.92908,4.58179-2.72302,4.19678-2.90637,4.10852-1.33569,4.78217-.61963,4.78925-1.36505,4.80597.20746,4.94513-.28827,4.89587-1.37616,4.79669-.1214,4.91174.23383,4.94385-.96387,4.83533-1.01666,4.82843-.06769,4.91199.47449,4.96405-.48828,4.87219-1.26996,4.80621.65619,4.98145-2.01819,4.7384,1.15668,5.02466-.38501,4.88617-2.05847,4.73315-.34802,4.88849.2005,4.93719-.77307,4.85028-.78986,4.84637,1.05524,5.01587-.32013,4.88928-.8089,4.84381-.53027,4.87158-1.33136,4.79749.78284,4.98694-.3103,4.88879-1.72809,4.76385-.1546,4.90277-.18152,4.89832.06165,4.92072-1.69043,4.76434,1.021,5.01105-.71747,4.84998-1.45032,4.7818.27783,4.93829-.93536,4.82983.43365,4.95697-1.3609,4.7937.41449,4.95502-1.94525,4.74158.21692,4.93878.64075,4.56976,3.03113,3.41937,2.70105,4.31366,4.5321,2.47729,2.86047,4.14172,2.96387,4.03766,4.12024,2.8772,2.73462,4.26636,4.86584,2.14215,2.37207,4.62476,4.48206,2.51813,3.33099,3.6698,2.88855,4.10413,4.33057,2.67065,2.92377,4.06482,3.15314,3.84393,4.11871,2.87354,2.63538,4.36127,3.71924,3.27899,4.18469,2.81555,3.3775,3.61877,2.78748,4.20868,4.67175,2.32715,3.10413,3.89288,3.60455,3.39136,3.68555,3.30896,3.30121,3.69568,2.68433,4.30829,4.62592,2.37012,3.078,3.91412,4.08777,2.91284,2.96362,4.02802,3.30444,3.68555,3.62531,3.36609,3.02014,3.97278,4.41797,2.58093,3.11719,3.87244,3.7644,3.22485,2.77264,4.2132,4.37939,2.61377,3.22931,3.38214,4.71155,1.12549,4.98132-.77411,4.97784.78479,4.97351-1.47528,4.97284.08899,4.9743.49945,4.97418-.57178,4.97418,1.21735,4.97205.49872,4.9696-.64709,4.9726-.27313,4.9679-.83069,4.97272.30841,4.97351.62598,4.97278.12262,4.97131-.55164,4.9726.6842,4.97113-.85461,4.9715.15094,4.97052-.44238,4.97186.56146,4.96942.92719,4.97168-.33069,4.96979-.854,4.96857.53497,4.97113.42322,4.96954-.35742,4.96747.50073,4.96838-.55219,4.97192.85791,4.9682.11993,4.96625-1.40778,4.96655-.14508,4.96893.36505,4.97003,1.30896,4.96649-1.58258,4.9646,1.56238,4.96454-1.89471,4.966,1.32812,4.96912-1.21393,4.96851,1.47412,4.96887-1.46191,4.9693.651,4.9707.8371,4.96899-.51135,4.96857.23889,4.96924-1.39294,4.97046.97241,4.96881-.0816,4.96826.8454,4.96857.16815,4.96979-.2088,4.96942-.04199,4.9682-1.64026,4.96783,1.95496,4.96814-.96503,4.96936-.13446,4.9696-.14923,4.9682.33862,4.96747-.35846,4.96735-.31964,4.96796,1.34747,4.96906-1.2088,4.96954-.37915,4.96808.70599,4.9671-.73096,4.9668-.15613,4.96692.74268,5.36499,1.14655,2.30194-5.05896,3.82855-3.36877,3.9903-3.13513,1.94177-4.91998,4.40033-2.7749,3.13751-3.87817,3.39301-3.65521,3.15717-3.86096,3.09668-3.91071,3.64569-3.42871,2.36371-4.55084,4.19275-2.94934,3.32697-3.70813,3.59668-3.46521,2.82684-4.14398,3.55243-3.51123,2.30621-4.59967,3.47766-3.57623,4.05402-3.07397,2.66479-4.2843,3.14032-3.87128,3.32013-3.7113,3.66968-3.40948,3.52777-3.53058,2.15674-4.72485,4.62311-2.57721,2.26398-4.63251,3.75323-3.33099,3.38623-3.65216,3.3537-3.68542,3.65704-3.41583,2.06409-4.80243,4.15594-2.97845,2.62836-4.31403,4.40576-2.76526,2.38873-4.51965,2.81799-4.14282,3.73303-3.34467,3.38757-3.64801,3.18903-3.8252,3.57001-3.49207,2.43512-4.47742,3.37402-3.65576,3.60968-3.4491,4.21149-2.9248,2.01831-4.8396,4.34894-2.81049,2.09174-4.297-.43164-4.60565ZM292.98383,162.80219c.21204-.32605.47601-.61505.78156-.85602.2395-.25903-.00598-.98657-.05701-1.49359-.172-1.70459-.38647-3.4057-.52753-5.11273-.07251-.87958-.02698-1.7691-.02802-2.65466,0-.23651-.05597-.633.05103-.6875,3.05963-1.56158.86951-4.72278,2.0816-6.88336.42401-.75604.08197-1.90759.2525-2.84912.15149-1.01709.44653-2.00714.87604-2.94116.875-1.7356,1.91559-3.3877,2.89911-5.06775.08099-.13153.20801-.22852.35651-.271,3.40216-.71808,5.82178-4.62726,9.90503-2.92719l-.51202,1.44659,3.9707-1.89557c.10498.14001.56604.80701,1.08405,1.42657.46899.56104,1.08203,1.58508,1.49054,1.51953,3.14868-.50348,3.28571,2.30463,4.20721,3.92072.96155,1.95807,1.69861,4.01819,2.19812,6.1413.30151,1.29358.52753,2.60364.67657,3.92371l.62402.28949c-.1275.81805-.20953,1.64258-.24554,2.47009.01953,1.13861.21851,2.27612.21503,3.4137.02698,1.27856-.05853,2.55713-.25604,3.82068-.28302,2.66064.75208,5.29126,2.77216,7.04584-.96704,1.06958-2.43311,2.09863.19299,3.38318-2.15912.58301-2.57959,1.65106-2.19061,3.48315.16254.76459-.96851,1.75562-1.37958,2.70117-.67249,1.54657.36804,2.67664,1.2301,3.68768,1.96606,2.3056,2.02057,2.25909.55902,4.66071l2.09808,1.06409-3.02966,2.27008c.07849,1.7121.03149,3.54218.27203,5.33374.47601,3.54419,1.23004,7.05389,1.62207,10.60504-.06201,1.48309-.2265,2.96014-.49304,4.42072-.21149,1.20557-.06897,2.44714.41052,3.57318,1.3056,2.56311,1.93311,5.41779,1.82208,8.29193.18555,1.28156.62103,2.68915-.7785,3.85669-.50305.41949-.50604,1.62756-.46954,2.46411.34552,1.43958.48505,2.92065.41553,4.39923-.57849,2.07257.54053,3.05164,1.59113,4.37469.63452.79755,1.72705,1.79163.54651,3.13269-.21051.23901.25604,1.07355.49701,1.95007-3.32812,4.89124.58203,8.90594,2.61462,13.32465-.25452.07855-.50098.18103-.73602.30554-.2085.1875-.39355.39954-.54956.63202,3.08813,1.74561,2.24365,4.72772,2.31812,7.5564-3.25714-.87903-2.06506,2.03711-2.68512,3.45667-.67804,1.35406-1.53906,2.60913-2.55859,3.72919-.87354,1.17102-1.8656,2.24811-2.96118,3.21515-1.22607.77802-3.42017.50549-4.16266,1.47803-1.84308,2.41412-3.42419.38202-5.13379.45355-3.51318.14752-5.90125-2.06311-8.84991-2.99615.33051-2.49762-2.44263-2.61615-3.2547-4.2417.263-.33801.52802-.67255.79156-1.00604l-1.57611-1.20709c.94006-2.70764-2.50513-4.54419-.88452-7.62933.95306-1.81561-.39606-4.89777-.85657-7.38336-.50598-2.73065-1.22656-5.42126-1.76855-8.14642-.51154-2.57214-.91254-5.16577-1.31055-7.45337.07947-.83008.07001-1.66608-.02899-2.49414-.37756-1.48608-.87408-2.93964-1.48511-4.34619-.96155-1.52808-1.20306-3.40118-.6615-5.12323.54352-1.40057,2.1261-3.39319.52502-5.40826-.33655-.42352.20648-1.53912.33203-2.33765.3385-1.28857.51953-2.61365.53802-3.94617-.15753-1.6391-.86658-3.21716-1.18207-4.85175-.0965-.95605-.117-1.91864-.06049-2.87817-.07202-2.57861-.0885-5.16223-.28455-7.73236-.23151-.79504-.59753-1.54407-1.08203-2.21564.03448-.05096.53754-.45697.47998-.75403-.43951-2.25958-1.00653-4.49371-1.48407-6.74634-.02997-.38953.02802-.78052.16956-1.14502.90454-2.0401,1.45758-4.21826,1.63556-6.44287-.21002-2.17859.73853-4.84021-1.47406-6.69678-.2785-.23352-.03796-1.08655-.03796-2.05463l.74951,1.44958.35352-.11554c-.0365-.25049.02051-.60449-.12402-.73505-1.65405-1.07654-2.12256-3.28961-1.04651-4.94421h-.00006ZM232.65088,157.71533l-.89307-1.6911c.43604-.23651.82953-.45001,1.22656-.66351-.68604-1.67407-.40955-3.58868.72253-5.00024,1.76111-2.58813,4.79425-4.26318,5.47528-7.65137.11298-.56201.98804-.97107,1.73059-1.65161l.60852,2.63965c1.27759-1.48309,3.50922-1.6651,5.00977-.40851,1.25555.74701,4.04968.05402,3.61768,2.13959,1.21857,1.2851,2.08057,2.24963,3.00464,3.15015.64551.63007,1.64307,1.03607,2.02258,1.77814,1.78613,3.48962,3.41321,7.06183,5.0968,10.60352.37549.68402.70203,1.39355.97754,2.1236.172.55402.30847,1.62207.11597,1.71008-2.41962,1.11005-1.17603,2.50061-.21997,4.13318l-2.10162-.52502c.74957,3.15417,1.24805,6.36279,1.4906,9.59595.26849,2.02161-.05554,4.07776-.93158,5.91931-.30603.86554-.30548,1.81012.00153,2.67511.56799,2.3501,1.30359,4.65973,1.93311,6.99585.09753.36102.14453.99054-.05249,1.1366-1.90759,1.41803-.23254,2.42761.40649,3.67914-1.64508.52606-1.97107,1.21906-.91754,2.90167,1.01404,1.21906.84753,3.02911-.37103,4.04266-.1745.14502-.36548.26904-.56903.36902,1.75909,2.53516,2.52661,5.62781,2.15613,8.69098.01001.164-.92108.383-1.61157.65399l1.30255,1.24359c.1405,1.75055.16748,2.94562.34552,4.11719.362,2.38562.81354,4.7572,1.21356,7.13733.23004,1.36957.43152,2.74414.72705,4.63428,1.05951,1.79358,1.27606,3.96216.59302,5.92975-.21649,1.23706.00897,2.51068.63751,3.59772.74353,1.42255,1.37958,2.63812.133,4.03619-1.62506,1.82306.90405,1.94562,1.3136,3.25067l-2.01959.64954-.57654,3.65668c.61499.96704,1.11707,2.00159,1.49554,3.08313.45001,2.25311.72003,4.53821.80707,6.8338l-.49207,2.83917-3.8902,7.02533c-.78699-1.00952-1.38507-.94556-2.68512.25403-1.59656,1.94312-4.41669,2.33759-6.4848.90656-.35852-.16754-.75507-.2395-1.1496-.2085-5.57776-.29803-10.54102-3.63519-12.92114-8.68842-1.58057-2.08264-1.84857-4.87976-.6925-7.22437.38501-.63904-.48401-2.03363-1.13354-2.93817-.07501-1.16406-.08356-2.3371-.23956-3.49066-.32452-2.40662-.83099-4.79572-1.0025-7.21082-.03052-.43207,1.19153-.95306,1.94257-1.51361-1.64105-1.21954-2.40613-3.29364-1.95007-5.28625.15948-.79449-.54858-1.76355-.95209-2.91364.16003-.23749.94507-.87903.85504-1.35406-.88806-4.66168-1.92157-9.29596-2.92163-13.97369,1.22754-.66748,1.68109-2.20355,1.01404-3.43066-.11951-.21997-.271-.42047-.44952-.59601-.26599-.31549-.50201-.65552-.70453-1.01556.31952.03003.64056.03003.96008.00104,2.63611-.48004,1.20105-2.66663.82501-3.32867-1.49005-3.20667-1.68756-6.86432-.55151-10.21301l-1.60107-1.29352c.85901-1.11755,1.98212-1.72308,1.02802-3.68518-1.07953-2.06262-1.10504-4.51776-.06946-6.60284.38599-.71704-.30103-2.01111-.54205-3.27917,2.0766-.88.091-3.03461.32001-4.76221.09253-.69952.06201-1.4151.12805-2.11963.02045-.21802.3125-.539.24646-.61853-1.91003-2.30206.04504-4.94672-.64801-7.37885-.21301-.74854.28351-1.68207.37103-2.5401.065-.56403.03748-1.13507-.08203-1.69061v-.00006c-.4895-2.08813-1.03802-4.16272-1.56458-6.24182,1.98712-.36053-.46851-2.4361,1.1366-2.94415ZM492.30402,189.25189c-.30554,2.77563-1.47461,5.38574-3.34216,7.46234-.37152.33557-.19702,1.20911-.46106,1.74164-.77301,1.55957-1.79907,2.55206-3.26166,1.25153-.5155,1.00055-.8205,2.55713-1.58704,2.83362-.9516.34302-2.28516-.37299-3.59772-.664l-.41248,2.77063-1.61359-1.60608-8.17639-.73853c-.04053-.85858.59448-2.24664-1.33661-1.56561-.508.17902-1.26556-.35199-1.77356-.17297-.81305.28601-2.05212.79456-2.1601,1.38306-.29303,1.87457-.38202,3.77472-.26703,5.66779.04755,1.26807.28455,2.52161.70258,3.71967.40247.74054.92004,1.4126,1.53357,1.9906-1.39807.47052-2.15009,1.9856-1.67957,3.38367.05249.15704.12.30902.20099.45355.81653,1.17255,1.80713,2.09357.17804,3.29865,1.52905.69305-1.00659,2.0426.54553,3.05914.591.38751.14349,2.24463.32501,3.40765.22748,1.12256.5105,2.2326.84955,3.32666-1.6731,3.33368-2.03412,7.17389-1.01154,10.76056-1.54608.00299-1.55762.13397-1.23859,1.51257.26105,1.12653.073,2.35413.30701,3.49115.66455,3.22717,1.44305,6.43134,2.1546,9.55048-.17346.05902-1.17804.112-1.37756.53955-.27502.59003.0575,1.46356.15851,2.51508l-1.21252.84753c1.48157,1.61108-1.44208,4.51776,2.10107,5.40179l-3.10962.16449c.85504,2.57367.78149,5.3653-.20905,7.88989-.1485,1.08704-.08447,2.19214.18805,3.25519-.1795.11298-1.06354.46252-1.03204.6825-.11053,2.44263-.54602,4.85925-1.29456,7.18689.12946,1.74908.55249,3.46417,1.25055,5.07324l-1.44507.70703c-.13,1.62402-.17651,2.98761-.36401,4.33167-.15906,1.43707-.44952,2.85663-.86908,4.24023-.17499.52002-1.03906.80853-.91656,1.28503-.26447,2.4201-.45898,4.85223-.86554,7.24835-.06549.38403-1.08301.60602-1.66656.90607l.80255,8.62042c-.70404,1.75757-1.30505,3.55469-1.79956,5.38226-.35254,1.63306.36902,4.11969-.53107,4.8927-2.42859,2.08563.93408,3.8952-.24097,5.66431-1.5351-.64209-2.3606-.04352-2.20563,1.51556.01453,2.71661-1.13708,5.30927-3.16217,7.11981-1.06055,1.0531-1.24304,2.70367-.4375,3.96271.76251,1.02155.89856,2.38062.35449,3.53369-.242.64001.14905,1.51959-.1825,2.12561-.38751,1.77808-.66754,3.58917-1.20007,5.32275-.36548,1.18903-1.15002,2.2431-1.61658,3.40918-.21198.75201-.34796,1.52307-.40601,2.30212l-1.19354.08997-.78406,5.4198-.66553-.93756c-.11951.59351-.19598,1.19556-.22852,1.8006.04102,2.88513-3.23315,5.61377-.57953,8.68494-1.72809-.45856-2.7796-.11499-2.11761,2.19861.15552.54449-.302,1.33704-.62903,1.93256-.96051,1.75012-.55853,4.37476-3.30963,5.03424-.4325.10352-.91754,1.09857-.91302,1.67761.06799,1.0105.229,2.01306.47998,2.99414-.98602.47504-2.20355.90503-2.16907,1.06805.49451,2.31757-1.63062,3.70966-1.9021,5.77625-.32904,2.50012-.51605,2.47516-2.58313,2.94568l.65601,3.41217-3.8642,4.14771,2.39813.90253c-2.91614-.37708-2.30658,2.53461-2.69464,3.65314-.93805,2.25964-2.17859,4.38171-3.68768,6.30731-.04297.06354-.17102.10199-.17249.15503-.33203,3.09564-1.77209,5.96729-4.05524,8.08441l-.39453-.54156c-.2215.24103-.68152.59106-.62903.70654.90356,1.97559-.29901,3.33417-1.38354,4.66675-.77802.95502-2.1236,1.53607-1.80011,3.11511l-1.87207.32751c1.21857,2.31012.5105,3.8562-2.34113,4.93524l.47601.43854c-.81604.88654-1.67261,1.74005-2.43115,2.67365-.3855.474-.94556,1.19-.82202,1.62604.40399,1.51257-.11206,3.12213-1.32111,4.11719-.88953.96155-1.45557,2.21912-2.32361,3.20569-1.31555,1.49359-2.77112,2.86414-4.16168,4.29169-.59906.6145-1.6286,1.19104-1.70557,1.87061-.65753,3.62518-3.07019,6.68781-6.43982,8.17639-.31952.23499-.56152.55951-.69702.93256-.65454,1.61359-1.26208,3.24664-1.88263,4.86176-3.54419-.71405-4.64874.71252-3.92267,4.1322.21796,1.02551-.81708,3.27014-1.53259,3.38666-4.57526.74152-5.98633,4.3407-7.69489,7.99689l-2.48761-1.68561.85352,3.06317c-1.12903.29852-2.2326.68451-3.30115,1.15454-.63055.35101-1.08154.95508-1.23907,1.65961-.16052,1.44806-.40149,2.52411-2.22559,2.06561-.09448,2.23309-2.0531,2.4491-3.47919,3.28516-1.02405.60449-1.98706,1.30554-2.87714,2.09406-1.11804,1.19257-2.30157,2.32214-3.54517,3.38318-2.06708,1.44562-4.3797,2.53815-6.47028,3.95374-.63556.43097-.86755,1.44403-1.31207,2.17407-.54504.89508-1.11908,1.77313-1.6806,2.65814l-.71454-.289.22052-2.34259c-.51697.17999-1.19153.21747-1.29755.48248-.90503,2.25763-3.30267,2.32513-4.98676,3.36169-1.5871,1.07056-3.42969,1.69958-5.33923,1.82361-2.63812-.01752-3.33716,2.2146-4.91577,3.35217-1.01056.72906-1.65405,1.66309-3.13062,1.28308-.51202-.13153-1.20209.3905-1.79962.6405-.36353.15247-.90802.599-1.02753.5-1.8186-1.51007-2.85217-.01752-4.28375.79901-1.37854.46301-2.81158.74603-4.2627.84253-2.40308.28003-4.74072.96857-6.9118,2.03662-1.81812,1.24109-3.17017,2.41064-5.45026,1.53058-.27454-.10547-.87354.62952-1.45258,1.07556l-.44855-1.36609-.23352.67853c-1.62756-.2005-3.25568-.401-4.88422-.60101-.4585-.112-.93054-.1615-1.40259-.1485-3.10712.49402-6.6283,2.20062-9.20142,1.26807-3.18866-1.15509-5.4563,1.8501-8.22491.4975-.29504-.14453-.95953.46802-1.57758.79602l.08301-1.48059c-.25452-.02747-.43555-.10651-.55255-.05048-1.27557.91705-3.02716.77704-4.14117-.33051-1.05603-.91901-3.07367-.71899-4.65472-1.05054-2.22363-.46649-4.45221-.91553-6.65735-1.45807-1.67358-.41254-3.29712-1.02954-4.97272-1.42908-2.33813-.55603-4.72577-.91205-7.04987-1.51556-1.30255-.33801-2.50116-1.05902-3.78668-1.48956-.47504-.159-1.07306.09601-1.59961.03101-1.00153-.08801-1.99255-.26807-2.96112-.53705-1.66608-.52301-3.30469-1.12854-4.90973-1.81506-1.35358-.58252-2.63416-1.33606-4.26526-2.1781l.13-.74707c-2.18811.82855-4.66022.09753-6.0448-1.78857-.93604-1.16302-3.20966-1.15405-4.71619-1.97357-2.76666-1.50507-5.37079-3.30566-8.1214-4.84174-2.11664-1.18311-3.02667-3.3147-4.50574-4.95825-1.53107-1.70111-2.2016-4.66473-5.44177-4.82178-.81305-.03949-1.53705-1.91858-2.51611-3.24213l-.44153.67749c-1.50305-1.5946-3.10815-3.09015-4.46674-4.78375-2.22461-3.29663-4.67572-6.43475-7.33533-9.39142-3.04016-2.85016-4.06671-7.17291-7.9939-9.45001-1.68457-.97705-2.07361-4.13818-3.14465-6.25977-.25452-.50403-.88409-.81903-1.34509-1.22406.93457-.87506-.87402-3.81219-3.14417-7.01337-1.56354-2.20459-2.3266-4.95526-5.24524-5.9588l2.71515-2.28461c-1.77612.39404-2.86414-.56702-4.03271-1.74207-2.20258-2.21515-2.32959-5.2843-3.67816-7.8349-1.16809-2.20862-1.98413-4.60126-3.03766-6.87488-.15753-.34052-.76453-.47253-1.16455-.70154.83502-2.15759.04901-4.60474-1.88611-5.8728,1.86859-.88403,1.50757-1.9201.57104-3.36414-1.21155-2.00262-2.27515-4.09021-3.18317-6.24731-.11005-.24152.49152-.80853.44653-.73907-1.96411-6.9433-6.20282-12.47955-7.46088-19.31641.58551-1.0871.78552-1.79559-.40753-3.49518-1.4126-2.2066-1.89709-4.88129-1.34857-7.44287.466-1.7276-.86206-1.13556-1.04407-1.83063-1.05402-4.02222-2.39661-7.9704-3.68518-11.92957-.22101-.41205-.50751-.78503-.84906-1.10406,1.31506-.62354,1.94861-1.46411,1.00604-2.78918-.5155-.62848-1.06451-1.22803-1.64557-1.79608-.01251.05756.08252-.38898.17004-.80103l2.80011.18903-5.51874-15.43976c1.23456-.91156.99603-2.74963-1.68311-5.14227l2.0766-1.64404c-2.16913-1.9201-.67804-4.85675-1.20508-7.44489-.44098-2.1651-.90149-4.32617-1.32355-6.49481-.11053-.37799-.099-.78101.034-1.15204.88757-1.57013.19-2.73615-.55304-4.15771-.4245-.81256.11304-2.22516.43652-3.3017.27704-.92303,1.24207-1.86456-.64099-2.03857.11395-1.01306-.13605-2.36163.42102-2.96667,1.01453-1.1015,1.16254-.86304-.05103-2.02856-.29102-.46057-.36298-1.02655-.19647-1.54559,1.73206-.91309.99652-2.29816.841-3.59821.02899-1.01202-.06799-2.02362-.289-3.01166-.73657-1.82208,1.25903-4.31671-1.41656-5.60724,1.74811-1.06903.56-2.54865.72601-3.85822.30005-1.56409-.33502-3.16016-1.62805-4.0907l2.37262-1.49908-2.06311-3.18262,2.23615-1.37561c-.28253-.74255-.47955-1.51508-.58807-2.30212-.06146-.97253-1.25354-2.2486.54956-2.99463-.1015-.88007-.36401-1.73456-.77454-2.52014-.54053-.92053-.83307-1.35059.52252-1.76556.80652-.29004,1.42957-.9436,1.68109-1.76263.21198-2.10358.03497-4.24323.08801-6.36682.09045-.88953.24146-1.77209.45251-2.64062-.08801-.91003-.79706-2.61115-.23004-3.46765,1.48059-2.23566.13654-3.60022-.83002-4.98578l2.87213-2.33209-1.93909-.80054,1.28253-2.0141-1.37903-3.16168c3.02563.45856,2.25208-2.29309,3.22913-3.7262-.55554-.45398-1.04156-.98651-1.44208-1.58154-.77454-1.6676-1.46405-1.8241-2.54712-.22699-.28351.41797-1.09955.573-1.69861.65851-1.54901.22052-3.28961.11346-3.09363,2.4801-.45599.02802-.91351-.02002-1.35358-.14203-.20203-.09149-.20349-.62354-.47803-1.61707l-1.76709,3.05713-5.23175-1.1095c-.03296.39569-1.32739.68835-3.88318.87799l-.33099-1.72809c-3.33417.93854-8.74695-2.70215-7.72937-6.41931.14301-1.40454-.1015-2.82117-.70703-4.09619-.30304-.87305-.37708-1.21454-1.18359-1.38458v-.47552c.3465-.17401.66302-.40149.93805-.6745.47205-.65308.84705-1.37561,1.40759-2.31366-1.63611-2.2146.88202-3.84967,2.02356-5.61078,1.22656-1.89154,1.82111-4.81873,5.3053-4.32971l-.81305-1.64606c1.88409.427,3.75769-.75452,4.18469-2.63861.00848-.03656.01599-.07355.02301-.11102l.18604,1.88458,7.32532-2.05908c.70154-.07751,1.4881-.16705,2.27612-.24805.22205-.02301.57404.07001.65155-.04102,1.08704-1.55902,2.6131-.85748,4.0387-1.099,2.40863-.73157,4.70825-1.7821,6.83832-3.12317l.75403,1.64008,1.0401-3.20117,4.03717,1.17108.62256-1.60712,5.25824.66302-.3125-1.99005.88049-.73657,1.2066,2.09064c1.47803-.74707,3.1936-1.51257,4.8092-2.45062,3.39117-1.37659,6.94781-2.30212,10.57953-2.75317,1.29803-.36005,2.97363.77454,4.50671,1.07758,1.03253-.00452,2.0636.08801,3.07861.276.53156.22748.49054,1.56708,1.02808,2.0481,1.61255,1.44556,3.39166,2.7041,5.07922,4.06866.20251.20801.30804.49103.2915.78058.23602,3.79364-.21747,7.59833-1.33905,11.23004-1.34406,3.00812-4.4892,4.16718-5.39526,7.40234-1.51306-2.66211-2.84064-.47205-3.15314.29401-1.03857,2.54413-2.04761,1.02606-3.16669.19049-.79004.97559-1.90259,1.81512-2.19861,2.88116-.24298.875.48505,2.0191.78204,3.04413l-.58405.40302-.40851-1.03851-1.29303,2.49408,2.56464,1.19409-.12354.58551-1.94708.46704c-.06549.1145-.1145.23798-.14502.36652-.22198,1.93011-.57654,3.85919-.61603,5.79376-.06647,3.26318-2.77863,5.62329-3.02167,8.60095-.18298,2.23657.19556,4.60773.03601,6.93085-.00647.09747.62103.23749,1.15405.43103-2.18707,1.77008-3.34564,4.5152-3.08813,7.31732-.16754,1.72662.59949,3.51221-.00952,5.36377-.16852.51154.62152,1.33905,1.01953,2.11414l-1.17401.76105c.18347.74854.2735,1.51654.26697,2.28711-.1825,1.44855-1.46106,2.84265.39001,4.29669.29755.23352-.92401,2.40112-1.55804,3.95569l.82202,6.91437-.6225.008,1.15106,1.24902-1.49908,5.29529,1.83105-.15002c-.9245,1.73859-3.02563,2.6366-1.23853,5.46375.88806,1.40558,3.61115,4.10321.73004,6.56232l1.62109,1.74963-3.29767,5.44727c.96857,2.22955,1.77509,4.52618,2.41309,6.87183.39203,2.65009.63208,5.32025.71906,7.99738.03101.36053.0495.88153.276,1.04053,1.47559,1.03906,1.33759,2.04211.39154,3.44666-.2655.39453.62256,1.5661,1.17456,2.81915l-1.55957.95056,1.09705,2.33813c-1.4436.82007-1.03802,2.58966.57153,5.02875.24152,1.23407.47949,2.46863.72504,3.70172.40948,2.05804.76453,4.12915,1.25354,6.16779.383,1.62207.86554,3.21912,1.44507,4.78223.57501,1.53406,1.45557,2.96014,1.94861,4.51422.1665.5235-.44403,1.29358-.474,1.37207.57202,1.61707,1.04901,3.26617,1.42853,4.93872.34052,2.0791.21503,4.24371.64355,6.29785.38953,3.71118,1.6651,7.27435,3.71918,10.39001.39954.59448.4895,1.34454.24298,2.01709-1.01855,1.70306-.29901,2.57159,1.42957,3.34363l-2.05859,1.04309c2.12665,2.60114,4.24371,5.07471,6.1983,7.67035.43353.57501.29401,1.5816.43555,2.49915,1.34009-.0675,1.79358.60553,1.11908,2.27258-.14307.354-.20306.73602-.17651,1.11707.20447,3.79767,1.42456,7.47083,3.53217,10.63647.93951,2.06213,1.62152,4.23175,2.03058,6.46033.57153,1.71912,1.32056,3.37469,2.23462,4.93878,1.27802,2.09412,2.87311,3.99323,4.20618,6.05731.26202.40601-.04901,1.1825-.10651,1.92505,1.41455.16455,1.92407.62958,2.23364,2.33966.68903,2.68164,1.84406,5.22125,3.41266,7.50287,1.7121,2.85516,3.76019,5.51074,5.70227,8.22491.41852.63654.95355,1.18854,1.57611,1.62708,1.53107.70099,2.98962,1.55054,4.35468,2.53662,1.80359,1.74658,3.11768,3.98816,4.84375,5.82776,1.61407,1.72009,3.64966,3.05017,5.21722,4.80426,2.1181,2.36963,5.4873,3.09967,7.16534,6.21228.84656,1.56958,3.28418,2.28064,5.00275,3.38019l-.88153.48651c1.21106.23749,2.39062.61548,3.51465,1.12555,1.5116.89703,2.71863,2.33057,4.26123,3.14612,1.67908.7851,3.43317,1.39807,5.23578,1.8291,2.50964.72455,5.03821,1.39362,7.58289,1.98114,1.47803.341,3.04211.34552,4.4892.76752.57758.16852.94556,1.05505,1.05109,1.18311,1.50708.513,2.62964.97504,3.79517,1.27454,1.8161.46704,3.65369,2.40613,5.5108.01801.23846-.2085.5675-.28052.87201-.19098,2.49316,2.0531,5.20026.17749,7.77142.48199,1.32355.15649,2.6051.65356,3.92719.84106.84149.005,1.68103-.0835,2.50311-.26453.84503,1.01758,3.05615,1.04059,5.47223-.25146.61853-.33057,1.6156-.74054,2.05859-.47656,1.5766,1.3631,3.92719,1.3186,5.45129-.10248.73901-.62006,2.40259-.25555,3.62866-.15002,1.79211.09497,3.49567-.78656,4.45276-2.30511l1.42706,1.16156.43353-1.3111,3.07513-.74353c.99707-.17651,2.39862,1.57758,2.88464-1.18903.07605-.43506,1.95361-.55353,3.05066-.83154l-1.07104-1.67358,3.53369,1.05402,3.55914-.34149c1.50409-3.21619,9.24548-7.93292,11.68158-6.95288.74707-2.84766,2.98413-4.62872,5.06573-4.03271.94055-1.76959,3.81171-2.96313,4.71027-2.41711.64398-.92957,1.29352-1.7746,1.83405-2.68414.29498-.52448.49902-1.09454.60352-1.68707.44604-2.31061,2.2536-3.29315,4.08521-4.23267.97705-.50104,1.81659-1.73212,3.1582-.75055l.4765-2.2641c1.95862-.07703,2.46716-1.67859,3.5437-3.2962,1.34955-2.02606,2.29059-4.98071,5.32672-5.59375.14954-.03052.35901-.05353.42651-.15552,1.10156-1.66858,1.12506-1.69061,2.07562-2.1286,1.7876-2.5141,3.64368-4.98376,5.33026-7.56439.62152-1.10553,1.10956-2.28107,1.45258-3.50262.41248-1.18158-.15204-3.09265,2.46509-3.00714.41455-1.4176.99255-2.78217,1.7226-4.06622.55902-.81,1.88263-1.09253,2.90918-1.63605l-.88257-2.12964c2.43817.45703,2.42065-.80554,3.06769-2.48309.69952-3.12817,2.4776-5.91034,5.02325-7.8584.66699-.39905,2.44012-1.5791,1.42554-3.50671-.23346-.44348,1.08008-1.69708,1.67609-2.5816.24652-.34802.474-.70905.68152-1.08154.15704-.30005.15051-.76605.38055-.93457,1.90308-1.74158,3.02313-4.17719,3.1076-6.75531.0965-1.92358,1.85461-2.45764,3.28668-3.22968.65851-.29102,1.19452-.80353,1.51508-1.44904.99854-3.1402,1.80457-6.33881,2.41309-9.578.28101-1.73053-.17902-3.41565,2.1546-4.13916.34052-.10553.29651-2.11664,2.02612-1.68811-1.30707-2.2796-.34106-5.28174.99005-5.72675.79401-2.16913,1.72308-4.28625,2.78113-6.33936,1.20502-2.01459,2.7981-3.70618,2.32758-6.40729.01501-1.09857.49304-2.14014,1.3161-2.86816,1.53204-1.45105,1.88007-3.75916.84406-5.59729l1.36005.52106c.12854-.55853.50256-1.20007.34552-1.66162-1.00354-3.09961-.27252-6.49982,1.91663-8.9129.92004-1.3891,1.66504-2.88666,2.2171-4.45874.15051-.57397.12299-1.18005-.08002-1.73755-.97955-3.51617-.89301-3.81671,1.59912-5.70331.3985-1.38507.69055-2.29163.91956-3.21417.99603-2.43561,1.56006-5.02625,1.66656-7.65533-.367-2.76819,2.29761-3.0152,2.61163-4.62024.75104-3.8382,3.75519-7.59637.60199-11.55109l2.01013-.65051-.98706-1.18805c-.1015-.90656-.086-1.82214.04547-2.72467.30505-1.44403.82855-2.83313,1.55212-4.11969,1.20355-1.99011-.00848-4.70471,2.14209-6.43329.4295-.34503.31403-1.68756.09149-2.46814-.81354-2.8606.66705-5.53278.65704-8.34637-.00348-.83356,1.61963-1.89563,1.70062-3.40668.21747-4.04919.6145-8.08893.82001-12.13812.03601-.70898-.51099-1.44757-.21997-2.12506.17749-.78003.30701-1.57007.388-2.36615.0625-1.34106.02002-2.68713.00653-4.03168-.12152-2.1026-.13153-4.21021-.02954-6.31384.30951-1.94403.74353-3.86615,1.29956-5.75427-.30402-.46899-.49103-1.00452-.54449-1.56104.02051-.36853.89453-.68909,1.56256-1.15607l-.60553-2.92218-1.96606.26404-.63202-2.30664,3.46765-.28546-2.3526-1.45007c-.15503-.93555-.20703-1.88513-.15552-2.83215.18103-1.15607.78656-2.2431.99353-3.39868.38104-1.57104.53253-3.18915.44952-4.80371-.31201-1.17261-.034-2.42365.74554-3.35321.49554-.59753-.10449-2.12756-.25702-3.23016-.14746-1.06653-.35602-2.12506-.57202-3.38965l2.53113.93958c-1.07355-2.27466-2.97314-4.15076-1.43658-6.68884-2.34412-1.36255-2.75665-4.27173-1.41608-5.37427-.07446-1.38159-.06-2.29114-.18701-3.18066-.19751-1.38806-.01099-2.95819-1.85706-3.57172-1.39008-.46198-1.82013-1.25201-.18054-2.2121h-14.01068c-.22247-1.2356.9256-2.80011-1.47906-2.75562-1.33557-.33704-2.2381-1.58209-2.14209-2.95618-.01648-.35651-.20099-.68402-.49701-.88306-2.55762-1.44855-3.96722-4.31519-3.55371-7.22534-.27551-2.58612.35651-5.18726,1.78809-7.35883,1.11859-1.31659,2.17566-3.17767,4.46973-2.92517.32251.01349.63202-.12897.83057-.38348,1.20355-2.65265,4.1167-.56006,5.70428-2.08612l.62653.79456c.84204-1.75262,1.68707-1.95013,4.1557-.92456,1.40906-.86005,2.52258-3.03265,4.57123-.57953.42004.5025,2.34412-.20349,3.56116-.42755,1.29907-.34302,2.61761-.60553,3.94873-.78601.41101-.0235.87653.91156,1.07855,1.13904,1.07153-.16901,2.00256-.25598,2.90161-.47504.83203-.19049,1.63861-.47803,2.40363-.85699.34503-.17804.50806-.71002.75305-1.08154l.96259,1.25055-.0285-.64001c1.36957.09595,2.7381.22247,4.10968.2785.91156-.07056,1.8266-.07501,2.73865-.01355,2.50464.48254,4.95972,1.31409,7.47937,1.5791,1.32153-.1615,2.59912-.57605,3.76465-1.21954.29102,1.70361.90253,2.83215,3.11664,1.77161,1.35559-.37207,2.76068-.53107,4.16522-.47156l-1.19354,1.4696h7.57538l-.15552,1.69904c.7525.08453,1.51355.05853,2.25861-.07745,1.72754-.58752,2.52863-.11951,3.15662,1.71155.2995.69806.89606,1.22559,1.62561,1.43756l-.00018.00043c2.84167.66553,4.95526,3.05115,5.2738,5.95227.08447,1.98712-.26752,3.96869-1.03156,5.8053Z"/></svg>