<?xml version="1.0" encoding="UTF-8"?><svg id="a" xmlns="http://www.w3.org/2000/svg" viewBox="0 0 1440 720"><g opacity=".75"><path d="M554.70103,692.14439c-12.72327-7.24658-7.40375-10.75983,1.45929-17.15619,12.19226-9.89783,26.17987-17.48486,39.04193-26.50671,6.25671-4.27899,12.90253-7.9632,19.04987-12.38739,5.95551-4.211,11.42261-8.81873,17.34564-12.93915,15.61987-9.35486,28.85498-22.04089,43.12079-33.33722,5.58527-3.98755,13.04059-5.62646,18.49493-9.6156,5.89142-4.41095,11.19263-9.58221,17.35449-13.59186,8.37659-5.67157,14.70538-13.58472,23.69617-18.2323,12.83228-6.16272,24.47339-14.14655,36.00769-22.33209,13.04871-9.27344,16.04987-18.66162,20.4502-33.63544,3.08405-8.80939,8.41205-16.91125,11.43921-25.81238,4.65131-14.72662,13.69928-27.55573,19.80334-41.76624,5.07935-12.42755,9.40601-25.22137,13.10785-38.18591,2.32477-8.17596,4.00378-16.62164,7.10254-24.54724,2.99969-8.05548,7.22394-15.46991,10.53333-23.37415,3.758-9.15289,5.49237-18.92731,9.49298-27.97357,2.61102-6.27136,7.0686-11.66016,9.96118-17.80737,2.68762-5.68542,5.46667-11.55115,7.37823-17.5957,1.23096-3.72174,1.74719-7.67963,2.83942-11.44061,1.68597-6.34558,5.5799-11.68231,8.58008-17.4671,4.49084-9.36786,7.68427-19.04791,12.13702-28.35242,2.09967-4.91711,1.96655-10.71423,3.42902-15.84442,4.4184-14.59857,10.79645-28.6698,16.76068-42.70483,3.60724-8.07654,7.27368-16.09369,10.50262-24.33466,4.95282-12.1424,8.02832-24.69775,13.99158-36.38293,3.53607-6.44287,4.75989-13.84772,6.62836-20.95007,2.23492-7.5459,7.06409-14.52539,10.32385-21.75659,2.41425-5.34058,4.2298-10.93402,6.40118-16.38702,2.27625-5.59344,3.29639-11.57965,5.16553-17.30609,2.88391-7.85223,7.15686-15.06519,11.11243-22.42114h-5.84393c-.63885,1.30542-1.27747,2.61121-1.88025,3.94037-2.46973,5.48175-4.39008,11.18787-6.31079,17.04669-1.93817,5.79163-3.69678,11.57471-6.00342,17.24347-3.14111,7.62518-5.84851,15.38397-8.97272,23.00604-4.74353,9.83893-7.91296,20.01306-12.47046,29.86725-7.63428,13.49451-9.44867,29.16974-15.11682,43.5163-3.19025,8.05157-7.36237,15.65784-10.88507,23.56824-5.99768,14.13287-11.31903,28.29785-15.81476,43.05707-2.09906,8.11078-6.35651,15.51978-9.88568,23.1048-2.86603,6.51782-4.24408,13.87628-7.521,20.20416-2.0564,4.078-4.21985,8.01984-5.922,12.2724-2.30182,5.50702-4.8924,10.86023-6.72968,16.5174-1.88354,6.00494-4.29114,11.68011-6.96832,17.36597-3.61353,7.90399-8.15442,15.58984-11.22504,23.76184-2.78015,7.44659-2.10919,16.07526-5.17279,23.32324-2.91138,7.02606-7.11621,13.53296-10.10175,20.63959-3.79852,8.81421-6.47601,17.89612-9.08978,27.09509-6.495,21.5672-16.04669,42.22107-25.09839,62.77856-3.35162,7.54071-7.62506,14.56689-10.75708,22.14484-2.75903,6.67853-6.24164,13.17902-8.66644,20.13483-2.48022,6.9472-4.05884,14.00427-8.4165,20.09082-4.9906,7.1908-12.1059,12.59186-19.40375,17.50427-6.07788,4.07477-11.0462,9.9104-17.52704,13.25006-4.73035,2.49304-9.85052,4.28558-14.27094,7.30713-6.05115,4.03406-11.12079,9.44263-17.07635,13.74518-3.34357,2.45197-6.53949,5.12006-10.03131,7.34204-7.73181,5.20441-15.84222,10.08081-23.9715,14.84589-14.0957,9.79852-27.58118,20.43091-42.52155,29.02252-8.56421,4.75043-14.79108,13.07037-22.66095,18.75745-13.95612,8.96124-28.53253,17.59363-42.24359,27.06134-7.45441,5.13141-13.59552,12.19257-21.24316,17.07275-5.07068,3.48071-10.71893,3.53839-15.70081.37195-6.03278-3.46967-11.8573-7.61224-18.17065-10.7511-6.8244-3.19775-13.42444-6.89923-19.74548-10.97748-6.40875-3.97949-13.10571-6.9939-19.43732-10.94708-8.87567-5.81293-17.73358-11.82922-26.50793-17.70813-6.75317-4.76447-14.09802-8.56586-21.00574-13.08325-10.45667-6.77905-21.33527-13.03363-32.15363-19.1803-13.1839-6.35999-24.87048-15.14417-37.00446-23.1593-19.33093-10.22839-28.90295-17.35321-29.75977-40.2193-1.29242-14.23083-3.04132-28.32129-5.31512-42.34924-1.38818-10.00525-2.2561-20.02509-4.69397-29.86646-1.21735-5.79425-1.88373-11.66516-2.79108-17.50922-.96033-6.42389-2.96948-12.74774-3.84052-19.24158-1.03467-10.36163.03369-21.02075-2.72821-31.12134-1.43048-6.6156-3.79883-13.09857-4.40942-19.90723-.26233-2.96094,1.0799-5.84424,2.61383-8.05969,2.01691-3.31305,6.7533-4.74738,10.93048-6.51489,10.62866-4.29944,21.83026-6.55219,33.02576-8.74139,22.58838-4.82373,44.4007-12.53955,66.25458-19.69458,7.12701-2.21857,14.34052-3.69537,21.43274-5.93573,6.44281-1.99878,12.4425-4.76636,19.03583-6.50104,9.19904-2.34613,17.96753-5.29645,25.68744-11.34351,6.32941-4.6123,10.9104-10.47919,15.77753-16.48309,4.83673-6.02478,11.47931-10.69434,15.62988-17.26587,2.75116-4.26355,6.10321-7.95703,9.3335-11.88605,6.90802-8.07648,14.79321-15.5769,20.72083-24.59351,4.37213-6.00977,8.61279-11.76489,13.03717-17.75891,2.68701-3.60217,6.69751-6.13147,9.67133-9.4975,5.64282-6.14728,11.7677-11.77338,17.22729-18.1087,7.13934-7.3269,12.3739-16.36334,18.95453-24.15515,4.50458-5.01807,8.55469-10.52057,12.9198-15.77167,4.65466-5.44745,9.89447-10.37408,14.44495-15.90131,10.01019-11.75299,19.49109-23.9176,30.28217-34.94385,6.20844-6.38831,10.94019-14.49805,16.70435-20.98346,5.98865-6.22595,11.38513-13.02692,16.75946-19.82556,4.15918-4.98206,9.52838-8.74219,13.64215-13.62122,6.91479-8.75549,12.34869-18.44196,19.646-26.80054C732.335,10.90843,736.88309,5.47453,741.53324-.00002h-6.034c-4.14496,5.98535-8.02368,12.05151-12.64032,17.66724-6.54041,7.2486-13.41779,14.22577-19.57739,21.72034-4.03217,4.74402-6.88245,10.40778-10.97913,15.3205-5.3783,6.81256-11.77954,12.75385-17.77423,18.98999-6.25879,7.12878-11.909,15.10181-18.73346,21.88049-10.21973,10.45563-19.80798,21.9411-29.37415,33.07446-5.05756,6.12292-9.43274,12.68805-14.72296,18.56818-7.4314,7.71399-15.13922,15.38464-21.10718,24.40308-7.93011,10.22925-15.12531,20.82959-24.05853,30.14648-3.85034,4.03235-8.25848,7.5614-11.57288,12.04126-4.05518,5.52533-8.37317,10.53345-12.40106,15.87885-2.39142,3.13708-4.12018,6.81781-6.72302,9.79059-4.76953,5.54156-11.27106,9.81866-15.90363,15.61017-3.86823,4.68597-5.74158,10.70697-9.15631,15.70471-3.74976,5.52539-8.68433,10.24957-12.79224,15.37445-4.70245,5.78827-9.46503,12.20898-15.50085,16.61652-7.3501,5.74646-17.16687,6.96881-25.90521,9.27856-6.76721,1.78833-13.55798,2.11462-20.14105,4.13287-7.01379,2.18323-13.90106,4.84302-20.909,7.04187-22.07397,7.2179-43.8924,16.47382-66.65314,21.13068-7.95898,1.49237-15.89258,2.71698-23.73279,4.86096-4.49158,1.20386-8.66089,3.01379-12.86908,4.90826-5.55084,2.75372-8.55756,1.11578-10.34442-5.91736-2.27686-7.20563-3.5686-14.67285-4.56628-22.21631-.8739-6.16254-4.44373-11.82532-5.11578-17.94269-.66724-5.69171.51801-11.62152-.19403-17.34686-.69183-5.79663-1.64258-11.5733-2.57721-17.3515-2.17853-13.06683-4.50452-25.94525-7.36755-38.89899-1.14874-4.79443-.59045-9.88843-1.40479-14.75592-.92566-5.28564-3.74713-10.29968-4.36615-15.63074-1.3941-10.86023-1.89124-21.54779-2.5791-32.45685-1.98468-15.24469-7.05438-30.41315-5.0965-45.83954,1.15503-8.57153,5.41138-16.70435,6.76117-25.42603,1.58197-11.71484,1.71558-23.4845,4.12598-35.12543,1.7807-13.2937,6.02466-26.08936,9.45789-39.02051,2.08435-8.62836,3.08765-17.64746,5.36414-26.21179h-5.3446c-.08575.28473-.16492.56256-.22925.82153-2.42407,10.56573-2.99408,21.36841-6.12134,31.74744-6.84906,22.31689-8.62018,45.58246-11.72174,68.758-2.37109,11.06494-6.34015,22.14038-5.57922,33.91327-.09235,12.45367,1.65479,24.56555,3.2381,36.83344.68671,10.99982,2.64044,21.8739,4.0246,32.73297.60657,5.34088,1.90131,10.57269,2.84204,15.87805.81732,4.8476,1.95605,9.60968,3.10834,14.37903,2.52899,11.20502,2.25781,23.00623,3.99969,34.35907.79468,7.4295,3.64215,14.56262,4.62451,21.86835.70294,5.65692-.23785,11.65717.45605,17.43036,1.23639,8.94598,5.70978,17.38318,6.89136,26.34882.7865,4.85101,1.04877,9.66144,2.39502,14.31647.80017,2.66101,2.30945,7.45117.45728,9.42688-1.41748,1.80225-5.91797.80164-8.36383,1.2243-7.6817,1.22192-15.39252,3.04565-22.85431,5.54279-11.52167,3.18274-22.36139,8.68231-33.83826,11.36542-5.25275,1.091-10.41168,2.68634-15.5603,4.24072-4.56696,1.31085-8.40802,4.39508-12.8031,6.16455-6.75946,2.79907-14.84259,1.8465-21.72949,4.203-4.34528,1.45319-8.28522,4.11469-12.73145,5.23438-13.61499,2.79388-27.49994,4.71844-40.83527,8.5426-11.53918,3.04755-21.98248,8.79626-33.18091,12.52936-4.58075,1.50336-9.29633,2.82538-13.98236,3.95508-2.72247.62329-5.54657,1.16846-7.50763.25409-2.8316-1.21661-5.1792-5.14526-6.54376-8.00214-3.1214-6.38971-7.36639-12.04352-10.47559-18.32471-4.06158-8.51434-7.50909-17.17682-12.96881-24.94025-10.43677-15.40588-16.43982-33.16357-26.62891-48.71716-3.87183-5.94727-3.98395-13.85071-6.69067-20.35693C7.81333,295.37406,3.69047,289.79197.00004,283.94517v7.48383c2.6239,3.96356,5.19775,7.94312,7.11816,12.20801,2.13324,5.01544,3.87469,10.03723,6.44629,14.86383,5.45685,9.08191,9.45422,18.68353,14.06067,28.34985,3.70593,7.05164,6.06409,14.88507,10.39728,21.59406,2.71613,4.26562,6.51617,7.85419,8.9007,12.32172,2.53308,4.65442,4.73236,9.51331,7.02545,14.29126,3.42944,7.37085,6.42303,14.76874,9.83026,21.97186,3.44995,6.58624,2.02869,9.76227-4.16766,11.38019-5.56946,1.63269-11.45868,1.96075-16.90613,3.71167-3.73065,1.2124-7.06232,4.18066-10.90857,4.95898-8.83173,1.77832-17.80432,2.90228-26.61627,6.07483-1.79211.6593-3.50208,1.51044-5.18018,2.41144v4.7063c4.07947-1.51672,8.13519-3.15265,12.25958-4.5202,10.51971-3.97565,21.11688-4.37866,31.75012-7.16266,7.04852-2.13605,13.3139-7.96887,20.64764-9.15399,5.26886-.88696,9.07867,3.50061,11.22681,7.70801,3.6073,6.58337,7.52856,13.04962,10.12292,20.45728,3.87439,9.76031,2.65588,20.64435,3.7204,30.90613,1.85907,12.86017,4.53711,25.49194,5.99701,38.43903,2.89062,14.08173,4.84595,28.37213,6.17743,42.67084,2.6012,16.97284,2.58575,34.2644,4.87134,51.20367.58826,6.29376,1.30267,12.64404,2.04926,18.99146.72144,6.51215.47382,13.04626,1.3576,19.55066,1.86334,14.6922,3.09058,29.61432,5.91858,44.20563.78522,4.26849,1.67999,8.45032,2.14746,12.76666.18799.88275.33716,2.14954.46741,3.66449h4.65179c-.05298-1.2215-.12823-2.44354-.25464-3.66724-2.40912-16.02606-6.27124-32.25702-7.43665-48.37933-.58441-9.64087-2.89563-18.92438-4.20856-28.45868-.80676-7.11426.83228-14.53906-.08649-21.58759-1.13879-8.02649-2.41595-16.00897-3.05981-24.09717-.78156-8.09918-3.07367-16.00903-4.05743-24.18365-.9231-7.4422.60822-15.12109.00073-22.59131-1.51691-14.00787-5.09723-27.55804-7.88776-41.29688-1.13721-5.0097-3.24921-9.86633-3.99976-14.9527-1.29077-7.97528-.69611-16.06171-2.10199-24.09369-2.0434-10.54297-5.51691-21.1842-10.28674-30.36865-3.00665-5.42975-4.25482-9.54382,3.43994-11.39148,15.84497-3.96014,30.80487-9.89185,46.6546-14.10632,9.7373-2.54565,19.14673-6.70868,29.09357-8.61084,8.39148-1.39124,16.83215-2.45184,24.81592-5.37018,6.95093-2.37097,14.32751-3.52179,21.13702-6.35248,4.30664-1.73285,8.13959-4.8139,12.60852-6.10101,5.57599-1.67627,11.38306-2.57855,17.04224-3.90851,6.00928-1.36145,11.64923-2.34369,17.4137-4.47266,13.82678-4.68921,27.9455-10.95697,42.58997-11.94647,4.612-.02039,4.42181,5.24902,4.6449,9.09528.55408,10.45093,4.02728,20.53113,6.03107,30.7439.96808,6.1886,1.96552,12.41809,2.87006,18.66736,1.20721,8.24835,1.10638,16.45691,2.06464,24.64465.82379,6.90796,3.0343,13.67975,4.34955,20.50861,1.52045,8.79004,2.15118,17.67944,3.90106,26.43073,2.23444,12.58527,5.65997,25.41046,6.7818,38.06732.65955,8.89069,1.01562,18.49127,6.55524,25.83014,6.28906,8.85498,14.65063,14.12384,23.58618,19.33002,8.90875,5.84918,18.52808,11.20465,28.0379,16.28363,13.83405,7.56268,26.98053,16.3595,40.27905,24.83636,15.14642,9.07397,29.92627,18.66608,44.76221,28.3042,7.12616,4.87109,15.37024,7.97418,22.7348,12.43311,11.40442,7.81366,24.19891,13.10278,35.94287,20.39557,1.88965,1.02332,4.5827,2.0979,4.75287,3.67255.22229,3.71326-4.44635,6.12653-6.96954,8.49493-7.96613,6.28174-15.58392,13.02271-23.3186,19.73456-1.40784,1.60852-7.23352,4.88971-13.39044,8.46393h5.03149c1.76794-1.53119,3.57147-3.02655,5.48663-4.3927,3.75897-2.64185,8.03363-4.51294,11.64203-7.3363,5.15125-4.10468,11.08209-7.57245,16.30487-11.78583,2.85834-2.17133,6.1062-3.84296,9.17236-5.69336,6.13715-3.99982,11.21143.11639,16.42908,3.2254,2.77075,1.70251,5.07446,4.49963,7.93933,5.94623,12.21552,5.68921,23.54175,12.98151,34.97662,20.03656h8.10693c-6.5824-4.24438-13.0415-8.70312-19.59113-13.13904-9.14343-6.0705-19.73798-9.31805-29.19458-14.71655Z" fill="#fff"/><path d="M1439.99992,303.66941c-.40576-.08362-.80664-.16754-1.21362-.25116-3.16968-.68774-5.77417-3.68549-8.90845-4.52283-7.42761-2.04895-14.85205-3.97894-22.36548-5.74341-13.57056-3.38757-27.56519-5.56348-40.93872-10.14105-6.42725-2.24335-13.25854-4.59583-20.07727-4.05463-12.49866.66138-22.3761,9.16522-32.46307,16.26324-9.54492,5.79181-20.68896,9.80359-29.42664,16.75842-6.09766,4.78577-7.58197,8.39288-9.52411.09778-1.32758-5.00464-2.31183-9.89655-4.47589-14.77948-3.17413-7.31665-9.69745-13.14948-13.77704-20.02136-4.9082-8.93878-8.49176-18.24921-14.31549-26.62457-4.30914-6.62006-7.70581-13.7962-11.57422-20.66418-3.80676-6.76935-7.78943-13.25702-11.67792-19.97888-5.51581-9.74762-10.42535-19.81677-16.0047-29.51025-2.7431-4.65009-7.07385-8.41156-9.58044-13.19928-2.68567-5.11267-3.5083-11.33954-6.17426-16.36737-3.58411-6.77643-7.01141-13.4978-10.64587-20.32233-4.61359-9.20422-12.6131-16.18134-17.79694-25.12653-4.85901-8.43542-8.9259-17.1153-14.02094-25.34167-4.84393-7.22797-10.14838-14.30878-13.41565-22.41821-3.2356-7.40369-6.31671-14.98047-10.45874-21.74915-2.25269-3.74152-6.05151-6.57397-8.18665-10.38263-3.30328-6.00104-6.83344-12.03027-9.88464-18.20416-1.18787-2.46942-2.40332-4.93445-3.64911-7.38574h-5.25256c2.31622,2.87036,5.03601,5.52637,6.66827,8.75562,3.46472,6.92609,6.49902,13.71039,9.98016,20.40924,4.41595,9.03851,11.77307,16.4425,16.5058,25.28607,3.27008,6.40515,5.02228,13.62396,9.08789,19.60333,7.70435,10.44397,11.7262,22.8194,17.95807,34.1145,5.17059,8.97968,14.25739,15.49896,18.90973,24.76776,3.58087,6.70203,7.81592,12.90479,11.31152,19.54199,2.69275,5.1153,2.47375,11.68439,5.15961,16.80829,2.41559,4.65649,5.95605,8.73083,8.66797,13.19611,5.80835,9.95398,11.00494,20.23041,16.70081,30.23108,3.44885,5.94733,8.50452,10.99646,12.0943,16.90417,2.98578,4.86456,6.35834,9.48029,8.98065,14.53375,5.15192,9.5824,9.29083,19.32062,13.78192,29.30249,5.12158,9.72369,11.99323,19.77289,15.88519,29.72913,2.21063,5.62738,5.84973,11.82666,4.45026,17.80145-1.16736,4.2088-5.35309,5.76855-9.08594,8.7843-5.5296,4.48492-10.9245,8.94702-16.77863,13.09552-5.56512,4.05261-11.46039,7.55011-17.39563,11.05011-8.61029,5.59857-16.86475,12.08209-25.52539,17.68439-5.27637,3.6474-9.50861,8.44482-14.59796,12.07166-4.3208,3.12567-9.88892,4.52136-14.14697,7.75549-7.0694,5.63904-13.00739,13.31635-20.32349,18.22693-4.51843,3.24158-8.96051,7.09363-13.69666,9.92621-14.24469,7.58484-26.22278,19.98834-39.69171,28.21851-6.76532,4.24115-14.05634,7.67035-20.65216,12.18646-8.02289,5.36554-15.58148,10.97668-23.45868,16.42731-10.59155,7.32776-22.98956,13.4798-30.73462,24.07574-6.90308,10.33093-4.95337,24.46295-6.20294,36.38885-1.12488,12.55402-5.55646,24.63184-8.95886,36.76385-5.78668,16.18988-2.24438,34.12152-6.08441,50.61493-3.75763,14.24591-7.50946,28.45752-9.67621,42.995-1.39471,10.28827-1.66632,20.70367-4.41339,30.74042-1.96985,7.14386-4.58319,14.22467-5.23761,21.63275-.0144.12915-.00787.25012-.01495.37659h3.30707c.87445-7.04047,2.77295-14.03943,4.75293-20.83142,2.85327-10.23224,4.00677-20.73773,5.41754-31.28076,2.14972-14.43634,5.96979-28.63959,9.70923-42.73914,3.91473-16.53314.41113-34.41412,6.18665-50.58655,3.3999-12.17596,5.42328-24.63452,6.57202-37.26196.54694-7.63373,1.66199-15.466,3.36676-23.09283.87518-3.85504,3.90082-6.85608,6.13055-10.05939,6.91888-9.58246,16.79181-16.15613,26.41437-22.66248,8.01923-5.28888,14.51715-12.66522,22.41815-18.18579,7.3656-5.17535,15.78644-8.95355,23.42859-13.78473,9.76105-6.01746,19.89392-12.97998,29.36023-19.89838,2.88757-2.0155,5.73053-3.75146,8.7417-5.54962,7.11719-4.13959,12.41248-10.97089,19.01074-15.53754,6.13666-4.14716,11.6214-9.18494,17.521-13.66595,4.70013-3.50299,9.83948-6.39105,14.47913-9.98285,6.84552-5.57312,13.9104-10.73468,21.56976-15.17548,8.31055-5.45184,15.92072-11.82703,24.3562-17.02795,7.54535-5.42657,15.33203-10.69476,23.09888-15.87335,2.22742-1.58044,5.18604-2.23376,7.3006-3.80975,3.64874-2.80621,7.14673-3.11139,7.88586,1.94025.86865,6.2381,1.01801,12.85736,2.70746,18.96576,2.19019,7.7406,3.67859,15.6806,5.27667,23.55865,1.2453,6.14423,2.48383,12.30212,3.14294,18.5495.82928,7.64642,1.57831,15.1394,2.88965,22.75458,2.69965,13.30963,3.12585,27.34967,5.40216,40.57526,1.70074,7.56219,3.89539,15.01923,4.2915,22.76898.42877,7.95996,2.77521,15.30841,4.2514,23.12531.77527,4.14868.75897,8.45398,1.3194,12.62659,1.60956,14.38995,4.37964,28.92462,7.33514,43.15479,1.37073,8.42053,1.06714,17.12946,1.91296,25.61761.63757,8.17072,1.96423,16.36346,4.17792,24.23779,2.36304,9.65845,3.94397,19.34082,6.23608,28.98468,1.87952,9.23419,2.22937,18.71051,3.98474,27.96796,1.97461,9.41589,1.97144,18.92535,3.24927,28.42712,1.10913,7.79083,4.53625,15.06787,5.66992,22.75879.0509.32263.03992.65521.00024.99231h4.25098c-1.14771-8.2356-4.39539-16.32092-5.58374-24.61005-1.00549-6.61774-.52905-13.47729-1.30273-20.23456-.40588-3.76959-.53564-7.58649-1.17065-11.31903-1.84277-11.9209-4.96802-23.83337-7.76965-35.66193-1.15881-5.99695-2.61609-12.01465-4.19885-17.95959-1.24243-4.79199-2.42535-9.71088-3.19305-14.61554-2.14771-13.31854-1.84375-26.73315-4.72119-39.97638-4.10437-16.73706-3.45483-34.34711-6.12494-51.18781-1.00446-5.65326-3.16284-11.14893-4.07513-16.85303-1.07501-6.38623-.32391-13.02759-1.07458-19.41815-1.88989-11.56158-4.18512-22.78674-5.87836-34.54364-.84015-5.1651-3.98694-9.98993-4.85004-15.15552-1.30994-7.62665-.49475-15.47943-1.32629-23.0379-.67877-6.36487-2.62317-12.53217-3.89496-18.80676-1.52197-7.4939-1.04205-15.71094-3.10388-23.13409-1.50537-5.68835-3.39478-11.22784-4.26691-17.05884-.95605-5.40411-1.52734-10.47845,2.4234-14.24072,6.66797-5.89441,15.30756-10.44141,23.11652-15.599,4.66168-2.98242,9.40845-5.2915,13.8811-8.43604,6.52789-4.58685,12.83075-9.47217,20.29401-12.38171,8.76746-3.8985,18.03552-3.48615,26.71313-.14459,11.12744,3.84473,22.25244,8.23798,33.45972,11.00208,10.16418,2.14783,20.2113,4.35992,30.12268,7.39703,3.08459.83228,6.1051,2.00836,9.22754,2.67889.83813.16779,1.67529.34137,2.51294.5119v-3.54559Z" fill="#fff"/></g></svg>