<svg id="a" xmlns="http://www.w3.org/2000/svg" width="24" height="24" viewBox="0 0 48 48"><path d="M24,9.5c3.54,0,6.71,1.22,9.21,3.6l6.85-6.85C35.9,2.38,30.47,0,24,0,14.62,0,6.51,5.38,2.56,13.22l7.98,6.19c1.89-5.69,7.2-9.91,13.46-9.91Z" fill="#ea4335" stroke-width="0"/><path d="M46.98,24.55c0-1.57-.15-3.09-.38-4.55h-22.6v9.02h12.94c-.58,2.96-2.26,5.48-4.78,7.18l7.73,6c4.51-4.18,7.09-10.36,7.09-17.65Z" fill="#4285f4" stroke-width="0"/><path d="M10.53,28.59c-.48-1.45-.76-2.99-.76-4.59s.27-3.14.76-4.59l-7.98-6.19c-1.63,3.24-2.55,6.9-2.55,10.78s.92,7.54,2.56,10.78c0,0,7.97-6.19,7.97-6.19Z" fill="#fbbc05" stroke-width="0"/><path d="M24,48c6.48,0,11.93-2.13,15.89-5.81l-7.73-6c-2.15,1.45-4.92,2.3-8.16,2.3-6.26,0-11.57-4.22-13.47-9.91l-7.98,6.19c3.96,7.85,12.07,13.23,21.45,13.23Z" fill="#34a853" stroke-width="0"/><path d="M0,0h48v48H0V0Z" fill="none" stroke-width="0"/></svg>