<?xml version="1.0" encoding="UTF-8"?><svg id="a" xmlns="http://www.w3.org/2000/svg" viewBox="0 0 160 160"><polygon points="120.86581 159.96986 119.52456 159.68324 118.28283 159.49755 117.04114 159.53659 115.79935 159.71933 114.55734 159.54283 113.31495 159.63761 112.07268 159.93982 110.8307 159.60295 109.58886 159.68286 108.347 159.77247 107.10495 159.68783 105.86254 159.72513 104.62021 159.75874 103.37816 160 102.13621 159.51127 100.89416 159.92133 99.6518 159.93183 98.40935 159.98403 97.16721 159.94198 95.92516 159.73064 94.68295 159.75103 93.44034 159.50793 92.19803 159.85618 90.95589 159.79645 89.71363 159.92429 88.47097 159.71502 87.22864 159.55226 85.98641 159.91774 84.74429 159.54921 83.50202 159.8527 82.26051 159.52067 81.01937 159.99434 79.77822 159.60375 78.53661 159.99939 77.2941 159.67216 76.05186 159.58088 74.81022 159.61716 73.56867 159.96909 72.32662 159.93911 71.08362 159.72464 69.84154 159.86268 68.59967 159.73751 67.35728 159.82685 66.1145 159.72105 64.87235 159.58731 63.62992 159.80081 62.38699 159.88348 61.14463 159.65169 59.90167 159.51133 58.65904 159.62193 57.41617 159.58419 56.17338 159.79783 54.93024 159.62678 53.6874 159.7647 52.44422 159.73404 51.20084 159.57754 49.95765 159.50044 48.71567 159.70811 47.47253 159.77641 46.23013 159.93817 44.98712 159.81349 43.74358 159.50915 42.50003 159.65209 41.25646 159.52723 40.01325 159.505 38.76986 159.87381 37.5254 159.67761 36.28008 159.87114 35.10219 159.58977 34.29486 158.74424 33.20001 158.09079 32.50685 157.03749 31.56575 156.23129 30.78645 155.26317 29.68195 154.61793 28.92692 153.62474 28.02059 152.78321 27.19449 151.86183 26.45358 150.85483 25.43164 150.12662 24.66213 149.14808 23.50565 148.55555 22.83458 147.47848 22.00928 146.55457 21.08788 145.72733 20.18676 144.87948 19.41072 143.90627 18.24278 143.32448 17.54591 142.2723 16.70154 141.36762 15.65537 140.66373 14.72556 139.84398 14.0667 138.75366 13.03703 138.03528 12.24876 137.07429 11.51781 136.0581 10.43517 135.39042 9.71302 134.3644 8.88029 133.44695 7.75976 132.81741 7.16675 131.66123 5.95028 131.12569 5.26663 130.05909 4.23657 129.33979 3.4956 128.33038 2.78049 127.29495 1.64746 126.67564 .9722 125.59722 .21441 124.74237 .05422 123.59994 0 122.36523 .48631 121.17984 .38269 119.94109 .72292 118.74266 .6145 117.50343 .84835 116.29596 .77888 115.06139 1.14146 113.86594 1.32084 112.65345 1.06559 111.40068 1.48819 110.20959 1.47278 108.97942 1.51816 107.75483 1.55681 106.52915 1.98883 105.33818 2.06641 104.11599 1.8707 102.86924 2.20353 101.66988 2.3361 100.45199 2.53833 99.24103 2.61836 98.01871 2.35455 96.76475 2.55202 95.55315 2.74528 94.34058 2.69516 93.10628 2.78217 91.88416 3.29679 90.70087 3.39303 89.47933 3.10386 88.22316 3.60842 87.03857 3.44436 85.7932 3.76186 84.59165 3.88392 83.37361 3.76531 82.13258 3.78223 80.90459 4.03638 79.69749 4.27735 78.48865 4.2189 77.25269 4.24926 76.02475 4.59329 74.82559 4.66536 73.60161 4.6135 72.36533 4.95476 71.16383 5.10966 69.96652 5.44358 68.77099 6.17018 67.74386 6.85094 66.69466 7.3332 65.54922 7.65647 64.32628 8.14072 63.18026 8.73239 62.08605 9.1381 60.90273 9.70501 59.79781 10.2679 58.69091 11.04098 57.6852 11.42851 56.49197 12.07229 55.423 12.40915 54.20623 13.21919 53.21846 13.60196 52.02344 14.09132 50.87893 14.84894 49.86521 15.53041 48.81489 15.85132 47.58957 16.29572 46.42355 17.02323 45.39518 17.47178 44.23156 18.10453 43.15649 18.59231 42.01193 19.06274 40.8583 19.50053 39.68925 20.27199 38.68135 20.84487 37.57748 21.44748 36.48759 22.03544 35.39096 22.22072 34.09914 22.95636 33.07335 23.39873 31.90643 23.80655 30.72356 24.44474 29.65084 25.01475 28.54597 25.4939 27.39647 26.02812 26.273 26.93183 25.32828 27.37952 24.16293 27.86412 23.01584 28.23909 21.81551 29.04198 20.821 29.40055 19.61059 29.94642 18.43366 31.22995 18.2609 32.40194 17.8878 33.6063 17.62701 34.75726 17.17878 35.98773 17.01027 37.16099 16.64161 38.2701 16.04759 39.48453 15.8212 40.72916 15.70169 41.80968 15.00775 42.97136 14.59778 44.266 14.65222 45.42943 14.2536 46.5965 13.86587 47.79175 13.57378 48.97213 13.22907 50.11922 12.77046 51.28702 12.38576 52.51843 12.22387 53.69457 11.8667 54.88826 11.56778 55.98484 10.92956 57.24717 10.87427 58.45305 10.62148 59.65718 10.36081 60.81242 9.92539 61.94206 9.40356 63.20998 9.36703 64.33493 8.82769 65.58172 8.71381 66.68474 8.09851 67.90491 7.89262 69.08417 7.54161 70.24533 7.12925 71.43213 6.80452 72.67944 6.69304 73.774 6.04548 75.01487 5.91084 76.16074 5.44206 77.28932 4.91384 78.58513 4.97026 79.66269 4.2613 80.94321 4.26587 82.15096 4.01801 83.2937 3.53811 84.4181 2.99667 85.69581 2.99015 86.77269 2.27805 88.06198 2.3102 89.17406 1.72134 90.41917 1.59992 91.53124 1.0117 92.68037 .54944 93.93648 .45892 95.12721 0 96.01628 .90474 96.85555 1.80921 97.8428 2.54677 98.71596 3.41127 99.73075 4.11638 100.48455 5.114 101.54958 5.76293 102.31353 6.75024 103.45573 7.31469 104.2954 8.21859 105.18034 9.07059 106.23153 9.7356 107.18897 10.50578 108.00651 11.4335 108.81351 12.37438 109.97051 12.92241 110.62543 14.03251 111.53165 14.86072 112.64174 15.46105 113.54568 16.29395 114.36576 17.21953 115.29531 18.02204 116.17973 18.87593 117.24058 19.53257 117.98507 20.54301 119.06462 21.17816 119.98918 21.98785 120.96262 22.74187 121.68656 23.77655 122.54207 24.6632 123.72405 25.18416 124.49383 26.16718 125.43182 26.96213 126.36371 27.76145 127.13452 28.74349 128.04234 29.56986 129.19919 30.11914 129.92576 31.14987 130.92141 31.88061 132.01053 32.50544 132.71946 33.55748 133.57545 34.44543 134.49702 35.25984 135.7033 35.75504 136.59792 36.59916 137.46605 37.47325 138.48555 38.17808 139.37833 39.02797 140.10272 40.03481 140.67886 41.13202 140.58147 42.42987 141.04979 43.57722 141.34851 44.76967 141.93074 45.88695 141.93968 47.15698 142.37345 48.31401 142.6724 49.50659 143.14356 50.6533 143.45262 51.84319 143.82938 53.0154 144.13548 54.20649 144.45461 55.3938 144.81124 56.57106 144.84723 57.83369 145.12209 59.03324 145.34322 60.24678 145.67039 61.43195 146.40693 62.50844 146.67571 63.70966 146.88701 64.92427 146.92782 66.18472 147.45946 67.31559 147.718 68.5192 148.04676 69.70336 148.6266 70.8204 148.91979 72.01366 148.91419 73.2868 149.18434 74.48756 149.90445 75.56846 150.18261 76.7662 150.31767 78.00189 150.88526 79.12313 151.19846 80.31295 151.24712 81.57215 151.58541 82.75415 151.83133 83.96123 152.18345 85.14049 152.37966 86.36054 152.85488 87.50672 153.20913 88.68556 153.61243 89.85078 153.93905 91.037 154.11517 92.26288 154.48589 93.43728 154.5494 94.69326 155.26131 95.77725 155.64058 96.94935 155.50212 98.25942 156.1483 99.36112 156.23003 100.61217 156.82701 101.72556 157.17956 102.90512 157.49434 104.09395 157.43871 105.38186 157.99002 106.509 158.37458 107.68046 158.64955 108.88107 159.08893 110.03761 159.4746 111.20861 159.59011 112.45252 159.89209 113.64775 160 114.79917 159.47707 115.87341 158.38983 116.57604 157.88526 117.78594 156.83238 118.51713 155.92996 119.37942 155.08646 120.29336 154.47768 121.4127 153.58517 122.28572 152.78792 123.24203 151.94103 124.15402 151.00777 124.99019 150.30328 126.0259 149.70609 127.1558 148.60465 127.84712 147.94756 128.92562 146.90857 129.67024 146.39254 130.87085 145.47828 131.72481 144.63987 132.64616 143.7933 133.55921 142.855 134.39196 142.28899 135.55008 141.13322 136.19438 140.59404 137.37559 139.71209 138.25824 138.79467 139.11061 137.96465 140.03844 137.17956 141.00626 136.51337 142.07734 135.49986 142.84582 134.63045 143.73988 134.05389 144.88981 133.16578 145.76761 132.45908 146.80361 131.55991 147.66991 130.72817 148.59694 129.67997 149.33427 129.08906 150.47198 128.17763 151.32916 127.40345 152.30684 126.61416 153.27207 125.76591 154.18588 124.98154 155.15542 123.88145 155.84915 123.396 157.07915 122.39844 157.86293 121.4413 158.70512 120.86581 159.96986" fill="#c93020"/><path d="M73.24596,40.70055c.053-.0815.11901-.15376.19538-.21401.05988-.06475-.0015-.24664-.01425-.37339-.043-.42615-.09663-.85142-.13188-1.27819-.01813-.21989-.00675-.44227-.007-.66366,0-.05913-.014-.15826.01275-.17188.76491-.39039.21739-1.18068.5204-1.72083.10601-.18901.0205-.4769.06313-.71229.03788-.25426.11163-.50177.21901-.73529.21876-.4339.4789-.84692.72479-1.26694.02025-.03288.052-.05713.08913-.06775.85054-.17951,1.45545-1.15681,2.47625-.73179l-.12801.36164.99267-.4739c.02625.035.14151.20176.27101.35664.11726.14026.27051.39627.37264.37989.78716-.12588.82142.57615,1.0518.98017.24039.48952.42465,1.00455.54953,1.53533.07538.32339.13188.65091.16913.98092l.15601.07238c-.03188.20451-.05238.41065-.06138.61753.00488.28464.05463.56903.05375.85342.00675.31964-.01463.63928-.064.95517-.07075.66516.18801,1.32282.69303,1.76146-.24176.26739-.60828.52465.04825.84579-.53978.14576-.64491.41277-.54765.87079.04063.19113-.24214.4389-.34489.67528-.16813.38664.092.66916.30752.92192.49152.5764.50515.56478.13976,1.16518l.52453.26601-.75741.56753c.01963.42802.00788.88554.068,1.33344.11901.88604.30752,1.76346.40552,2.65126-.0155.37077-.05663.74004-.12326,1.10518-.05288.30139-.01725.61178.10263.89329.32639.64078.48327,1.35444.45552,2.07298.04638.32039.15526.67228-.19463.96417-.12576.10488-.12651.4069-.11738.61603.08638.35989.12126.73016.10388,1.0998-.14463.51815.13513.76291.39777,1.09368.15863.19938.43177.4479.13663.78316-.05263.05975.064.26839.12426.48752-.83204,1.22281.14551,2.22648.65366,3.33116-.06363.01963-.12526.04525-.18401.07638-.05213.04688-.09838.09988-.13738.15801.77204.4364.5609,1.18193.57953,1.88909-.81429-.21976-.51628.50928-.67128.86417-.16951.33852-.38477.65228-.63966.9323-.21839.29276-.4664.56203-.74029.80379-.30652.19451-.85504.12638-1.04068.36952-.46077.60353-.85604.0955-1.28344.11338-.87829.03688-1.47532-.51578-2.21248-.74904.08263-.62441-.61066-.65403-.81367-1.06043.06575-.0845.13201-.16813.19788-.25151l-.39402-.30176c.23501-.67691-.62628-1.13606-.22114-1.90734.23826-.4539-.099-1.22444-.21414-1.84584-.12651-.68266-.30664-1.35532-.44215-2.0366-.12788-.64303-.22814-1.29144-.32764-1.86334.01988-.20751.0175-.41652-.00725-.62353-.09438-.37152-.21851-.73491-.37127-1.08655-.24039-.38202-.30076-.85029-.16538-1.28081.13588-.35014.53153-.84829.13126-1.35207-.08413-.10588.05163-.38477.083-.5844.08463-.32214.12988-.65341.13451-.98655-.03938-.40977-.21664-.80429-.29551-1.21293-.02413-.23901-.02925-.47965-.01513-.71954-.018-.64466-.02213-1.29056-.07113-1.9331-.05788-.19876-.14938-.38602-.27051-.5539.00863-.01275.13438-.11426.12001-.18851-.10988-.5649-.25164-1.12343-.37102-1.68658-.0075-.09738.007-.19513.04238-.28626.22614-.51003.36439-1.05455.4089-1.6107-.0525-.54465.18463-1.21006-.36852-1.67421-.06963-.05838-.0095-.27164-.0095-.51365l.18738.36239.08838-.02888c-.00913-.06263.00513-.15113-.031-.18376-.41352-.26914-.53065-.82242-.26164-1.23606ZM58.26972,41.72535c.02988.13888.03675.28164.0205.42265-.02188.21451-.14601.4479-.09275.63503.17326.60803-.31552,1.26919.16201,1.84472.0165.01988-.0565.10013-.06163.15463-.0165.17613-.00888.35502-.032.5299-.05725.4319.43915.97055-.08,1.19056.06025.31702.23201.64053.13551.81979-.25889.52128-.25251,1.13506.01738,1.65071.23851.49052-.04225.64191-.25701.9213l.40027.32339c-.28401.83717-.23464,1.75159.13788,2.55325.094.16551.45277.71216-.20626.83217-.07988.00725-.16013.00725-.24001-.00025.05063.09.10963.17501.17613.25389.04463.04388.0825.094.11238.14901.16676.30677.05338.69078-.25351.85767.25001,1.16943.5084,2.32799.73041,3.49342.0225.11876-.17376.27914-.21376.33852.10088.28751.27789.52978.23801.72841-.11401.49815.07725,1.01668.48752,1.32157-.18776.14013-.49327.27039-.48565.37839.04288.60378.16951,1.20106.25064,1.80271.039.28839.04113.58165.05988.87267.16238.22614.37964.57478.28339.73454-.28901.58615-.22201,1.28544.17313,1.80609.59503,1.26331,1.83584,2.0976,3.23028,2.17211.09863-.00775.19776.01025.28739.05213.51703.35777,1.22206.25914,1.6212-.22664.32502-.29989.47452-.31589.67128-.0635l.97255-1.75634.12301-.70978c-.02175-.5739-.08925-1.14518-.20176-1.70846-.09463-.27039-.22014-.52903-.37389-.77079l.14413-.91417.5049-.16238c-.10238-.32627-.73466-.35689-.32839-.81266.31164-.34952.15263-.65341-.03325-1.00905-.15713-.27176-.21351-.59015-.15938-.89942.17076-.4919.11663-1.03405-.14826-1.48245-.07388-.47252-.12426-.81617-.18176-1.15856-.1-.59503-.21289-1.18793-.30339-1.78434-.0445-.29289-.05125-.59165-.08638-1.0293l-.32564-.31089c.17263-.06775.40539-.12251.40289-.16351.09263-.76579-.09925-1.53895-.53903-2.17273.05088-.025.09863-.056.14226-.09225.30464-.25339.34627-.70591.09275-1.01067-.26339-.42065-.18188-.5939.22939-.72541-.15976-.31289-.57853-.56528-.10163-.9198.04925-.0365.0375-.19388.01313-.28414-.15738-.58403-.34127-1.16143-.48327-1.74896-.07675-.21626-.07688-.4524-.00038-.66878.21901-.4604.30001-.97442.23289-1.47982-.06063-.80829-.18526-1.61045-.37264-2.39899l.5254.13126c-.23901-.40815-.5499-.75579.055-1.0333.04813-.022.014-.28901-.029-.42752-.06888-.18251-.15051-.35989-.24439-.5309-.4209-.88542-.82767-1.77846-1.27419-2.65088-.09488-.18551-.34427-.28701-.50565-.44452-.23101-.22514-.44652-.46627-.75116-.78754.10801-.5214-.59053-.34814-.90442-.5349-.37514-.31414-.93305-.26864-1.25244.10213l-.15213-.65991c-.18563.17013-.40439.27239-.43265.4129-.17026.84704-.92855,1.26581-1.36882,1.91284-.28301.35289-.35214.83154-.18063,1.25006-.09925.05338-.19763.10676-.30664.16588l.22326.42277c-.40127.12701.21264.64591-.28414.73604.13163.51978.26876,1.03843.39114,1.56045ZM122.01548,44.37348c-.18238-.053-.33152-.18488-.4064-.35939-.15701-.45777-.35727-.57478-.78916-.4279-.18626.034-.37652.0405-.56465.01938l.03888-.42477h-1.89384l.29839-.36739c-.35114-.01488-.70241.02488-1.0413.11788-.55353.26514-.70641-.017-.77916-.4429-.29139.16088-.61078.26451-.94117.30489-.62991-.06625-1.24369-.27414-1.86984-.39477-.22801-.01538-.45677-.01425-.68466.00338-.34289-.014-.68503-.04563-1.02743-.06963l.00713.16001-.24064-.31264c-.06125.09288-.10201.22589-.18826.27039-.19126.09475-.39289.16663-.6009.21426-.22476.05475-.45752.0765-.72541.11876-.0505-.05688-.16688-.29064-.26964-.28476-.33277.04513-.66241.11076-.98717.19651-.30426.056-.78529.23251-.89029.10688-.51215-.61328-.79054-.07013-1.14281.14488-.61716-.25639-.82842-.20701-1.03893.23114l-.15663-.19863c-.39689.38152-1.12518-.14163-1.42607.52153-.04963.06363-.12701.09925-.20764.09588-.57353-.06313-.83779.40214-1.11743.73129-.35789.5429-.5159,1.19318-.44702,1.83972-.10338.72754.24901,1.4442.88842,1.80634.074.04975.12013.13163.12426.22076-.024.34352.20163.65478.53553.73904.60115-.01113.31414.38002.36977.68891h3.50267c-.4099.24001-.30239.43752.04513.55303.46152.15338.4149.5459.46427.89292.03175.22239.02813.44977.04675.79516-.33514.27564-.23201,1.00292.35402,1.34357-.38414.63453.09075,1.10355.35914,1.67221l-.63278-.23489c.054.31614.10613.58078.14301.84742.03813.27564.18813.65816.06425.80754-.19488.23239-.26439.54515-.18638.83829.02075.40364-.01713.80816-.11238,1.20093-.05175.28889-.20313.56065-.24839.84967-.01288.23676.00013.47415.03888.70803l.58815.36252-.86692.07138.15801.57665.49152-.066.15138.73054c-.16701.11676-.38552.19688-.39064.28901.01338.13913.06013.27301.13613.39027-.13901.47202-.24751.95255-.32489,1.43857-.0255.5259-.023,1.0528.00738,1.57845.00338.33614.014.67266-.00163,1.00792-.02025.19901-.05263.39652-.097.59153-.07275.16938.064.35402.055.53128-.05138,1.0123-.15063,2.02222-.20501,3.03452-.02025.37777-.42602.64328-.42515.85167.0025.70341-.36764,1.37144-.16426,2.0866.05563.19513.0845.53078-.02288.61703-.53765.43215-.23464,1.1108-.53553,1.60833-.18088.32164-.31177.66891-.38802,1.02993-.03288.22564-.03675.45452-.01138.68116l.24676.29701-.50252.16263c.78829.98867.03725,1.92822-.15051,2.88777-.0785.40127-.74466.46302-.65291,1.15506-.02663.65728-.16763,1.30494-.41665,1.91384-.05725.23064-.13026.45727-.22989.80354-.62303.47165-.64466.54678-.39977,1.42582.05075.13938.05763.29089.02.4344-.13801.39302-.32427.76741-.55428,1.11468-.54728.60328-.73004,1.45332-.47915,2.22823.03925.11538-.05425.27576-.08638.4154l-.34002-.13026c.25901.45952.17201,1.03655-.21101,1.39932-.20576.18201-.32527.4424-.32902.71704.11763.67528-.28064,1.09818-.5819,1.60183-.26451.51328-.49677,1.04255-.69528,1.58483-.33277.11126-.57428.86179-.24751,1.4317-.4324-.10713-.4214.39564-.50652.42202-.5834.18088-.4684.60215-.53865,1.0348-.15213.80979-.35364,1.60945-.60328,2.39449-.08013.16138-.21414.28951-.37877.36227-.35802.19301-.79754.32652-.82167.80741-.02113.64453-.30114,1.25344-.77691,1.68883-.0575.04213-.05588.15863-.09513.23364-.05188.09313-.10876.18338-.17038.27039-.14901.22114-.4774.53453-.41902.64541.25364.4819-.18963.77691-.35639.87667-.63641.48702-1.08093,1.18256-1.25581,1.9646-.16176.4194-.15738.73504-.76691.62078l.22064.5324c-.25664.13588-.58753.20651-.72729.40902-.18251.32102-.32702.66216-.43065,1.01655-.65428-.02138-.51315.4564-.61628.75179-.08575.30539-.20776.59928-.36314.87567-.42165.64516-.88567,1.26256-1.33257,1.89109-.23764.10951-.24351.11501-.5189.53215-.01688.0255-.06925.03125-.10663.03888-.75904.15326-.9943.89192-1.33169,1.39844-.26914.40439-.39627.80479-.88592.82404l-.11913.56603c-.33539-.24539-.54528.06238-.78954.18763-.4579.23489-.90979.48052-1.0213,1.05818-.02613.14813-.07713.29064-.15088.42177-.13513.22739-.29751.43865-.45852.67103-.22464-.13651-.94242.16188-1.17756.60428-.5204-.14901-1.07968.29626-1.26644,1.00817-.60903-.24501-2.54438.93417-2.92039,1.73821l-.88979.08538-.88342-.26351.26776.4184c-.27426.0695-.74366.09913-.76266.20789-.12151.69166-.4719.25314-.72116.29726l-.76879.18588-.10838.32777-.35677-.29039c-.23926.37964-.66516.60003-1.11318.57628-.30652-.02638-.72241-.11751-.90717.0375-.38102.35527-.96867.36639-1.36282.02563-.11076-.066-.36002.0365-.51465.11913-.60403.32302-1.15681.31727-1.36807.06288-.20551.04525-.4154.06738-.62578.06613-.33052-.04688-.65091-.17113-.9818-.21026-.64278-.07613-1.31956.39277-1.94285-.12051-.07613-.02238-.15838-.00438-.21801.04775-.46427.59703-.92367.11226-1.37769-.0045-.29139-.07488-.57203-.19038-.9488-.31864-.02638-.032-.11838-.25364-.26276-.29576-.36177-.10551-.75279-.10663-1.12231-.19188-.63616-.14688-1.26831-.31414-1.89572-.49527-.45065-.10776-.88917-.26101-1.30894-.45727-.38564-.20389-.68741-.56228-1.0653-.78654-.28101-.12751-.5759-.22201-.87867-.28139l.22039-.12163c-.42965-.27489-1.03905-.45265-1.25069-.84504-.41952-.77816-1.26181-.96067-1.79134-1.55308-.39189-.43852-.90079-.77104-1.30431-1.20106-.43152-.4599-.76004-1.0203-1.21093-1.45695-.34127-.24651-.70591-.4589-1.08868-.63416-.15563-.10963-.28939-.24764-.39402-.40677-.48552-.67853-.99755-1.34244-1.42557-2.05623-.39214-.5704-.68091-1.20531-.85317-1.87572-.07738-.42752-.20476-.54378-.5584-.5849.01438-.18563.09213-.37977.02663-.48127-.33327-.51603-.73204-.9908-1.05155-1.51432-.22851-.39102-.41577-.80491-.55865-1.23469-.10226-.55715-.27276-1.09955-.50765-1.61508-.5269-.79141-.83192-1.70971-.88304-2.65913-.00663-.09525.00838-.19076.04413-.27926.16863-.41677.05525-.58503-.27976-.56815-.03538-.22939-.0005-.48102-.10888-.62478-.48865-.64891-1.01793-1.26731-1.54958-1.91759l.51465-.26076c-.43215-.19301-.61203-.41015-.35739-.83592.06163-.16813.03913-.35564-.06075-.50427-.51353-.77891-.83242-1.66971-.9298-2.5975-.10713-.51353-.07575-1.05468-.16088-1.57445-.09488-.41815-.21414-.83042-.35714-1.23469.0075-.01963.16013-.21214.11851-.34302-.12326-.38852-.34339-.74504-.48715-1.12856-.14488-.39077-.26551-.79004-.36127-1.19556-.12226-.50965-.21101-1.02743-.31339-1.54195-.06138-.30827-.12088-.61691-.18126-.92542-.40239-.60978-.50377-1.05218-.14288-1.25719l-.27426-.58453.38989-.23764c-.13801-.31327-.36002-.60615-.29364-.70478.23651-.35114.27101-.6019-.09788-.86167-.05663-.03975-.06125-.17001-.069-.26014-.02175-.66928-.08175-1.33682-.17976-1.99935-.15951-.5864-.36114-1.16056-.60328-1.71796l.82442-1.36182-.40527-.4374c.72029-.61478.0395-1.28919-.18251-1.64058-.44677-.70678.0785-.9313.30964-1.36594l-.45777.0375.37477-1.32382-.28776-.31227.15563-.002-.20551-1.72859c.15851-.38864.4639-.93055.38952-.98892-.46277-.36352-.14313-.71204-.0975-1.07418.00163-.19263-.02088-.38464-.06675-.57178l.29351-.19026c-.0995-.19376-.29701-.40064-.25489-.52853.15226-.4629-.0395-.90929.00238-1.34094-.06438-.70053.22526-1.38682.77204-1.82934-.13326-.04838-.29014-.08338-.28851-.10776.03988-.58078-.05475-1.17356-.009-1.73271.06075-.74441.73879-1.33444.75541-2.15023.00988-.48365.0985-.96592.15401-1.44845.00763-.03213.01988-.063.03625-.09163l.48677-.11676.03088-.14638-.64116-.29851.32327-.62353.10213.25964.14601-.10075c-.07425-.25626-.25626-.54228-.19551-.76104.074-.26651.35214-.4764.54965-.72029.27976.20889.53203.5884.79166-.04763.07813-.19151.41002-.73904.78829-.0735.22651-.80879,1.0128-1.09855,1.34882-1.85059.28039-.90792.39377-1.85909.33477-2.80751.00413-.07238-.02225-.14313-.07288-.19513-.4219-.34114-.86667-.65578-1.26981-1.01718-.13438-.12026-.12413-.45515-.25701-.51203-.25376-.047-.51153-.07013-.76966-.069-.38327-.07575-.80216-.35939-1.12668-.26939-.90792.11276-1.79709.34414-2.64488.68828-.40389.23451-.83279.4259-1.20231.61266l-.30164-.52265-.22014.18413.07813.49752-1.31456-.16576-.15563.40177-1.0093-.29276-.26001.80029-.18851-.41002c-.53253.33527-1.10743.5979-1.70958.78079-.35639.06038-.73791-.11501-1.00967.27476-.01938.02775-.10738.0045-.16288.01025-.19701.02025-.39364.04263-.56903.062l-1.83134.51478-.0465-.47115c-.00175.00938-.00363.01863-.00575.02775-.10676.47102-.57515.76641-1.04618.65966l.20326.41152c-.87104-.12226-1.01968.60953-1.32632,1.08243-.28539.44027-.91492.84904-.5059,1.40269-.14013.23451-.23389.41515-.35189.5784-.06875.06825-.14788.12513-.23451.16863v.11888c.20163.0425.22014.12788.29589.34614.15138.31877.21251.67291.17676,1.02405-.25439.9293,1.0988,1.83947,1.93235,1.60483l.08275.43202q.95842-.07113.9708-.21951l1.30794.27739.44177-.76429c.06863.24839.069.38139.11951.40427.11001.0305.22439.0425.33839.0355-.049-.59165.38614-.5649.77341-.62003.14976-.02138.35377-.06013.42465-.16463.27076-.39927.44315-.36014.63678.05675.10013.14876.22164.28189.36052.39539-.24426.35827-.05088,1.04618-.80729.93155l.34477.79041-.32064.50352.48477.20013-.71804.58303c.24164.34639.57765.68753.20751,1.24644-.14176.21414.0355.63941.0575.86692-.05275.21714-.0905.43777-.11313.66016-.01325.5309.031,1.0658-.022,1.5917-.06288.20476-.21864.36814-.42027.44065-.33889.10376-.26576.21126-.13063.4414.10263.19638.16826.41002.19363.63003-.45077.18651-.15276.50552-.13738.74866.02713.19676.07638.38989.14701.57553l-.55903.34389.51578.79566-.59315.37477c.32327.23264.48202.63166.40702,1.02268-.0415.32739.25551.69728-.18151.96455.66891.32264.17001.9463.35414,1.40182.05525.24701.0795.4999.07225.75291.03888.32502.22276.67128-.21026.89954-.04163.12976-.02363.27126.04913.38639.30339.29139.26639.23176.01275.50715-.13926.15126-.07675.4884-.10526.74166.47077.0435.22951.27889.16026.50965-.08088.26914-.21526.62228-.10913.82542.18576.35539.36014.64691.13826,1.03943-.03325.09275-.03613.19351-.0085.28801.10551.54215.22064,1.08243.33089,1.6237.13176.64703-.24101,1.38119.30126,1.86122l-.51915.41102c.66978.59815.72941,1.05768.42077,1.28556l1.37969,3.85994-.70003-.04725c-.02188.10301-.04563.21464-.0425.20026.14526.14201.28251.29189.4114.44902.23564.33127.07725.5414-.25151.69728.08538.07975.15701.17301.21226.27601.32214.9898.65778,1.97685.9213,2.9824.0455.17376.37752.02575.26101.45765-.13713.64041-.016,1.30906.33714,1.86072.29826.4249.24826.60203.10188.87379.31452,1.70921,1.37419,3.09328,1.86522,4.82911.01125-.01738-.13913.12438-.11163.18476.22701.53928.4929,1.06118.79579,1.56183.23414.36102.32439.62003-.14276.84104.48377.31702.68028.9288.47152,1.4682.1.05725.25176.09025.29114.17538.26339.5684.4674,1.16656.75941,1.71871.33714.63766.36889,1.40494.91955,1.95872.29214.29376.56415.53403,1.00817.43552l-.67878.57115c.72966.25089.92042.93855,1.31131,1.4897.56753.80029,1.01968,1.53458.78604,1.75334.11526.10125.27264.18001.33627.30602.26776.5304.36502,1.32069.78616,1.56495.9818.56928,1.23844,1.64996,1.99847,2.36249.66491.73916,1.27769,1.5237,1.83384,2.34787.33964.4234.74091.79729,1.11668,1.19593l.11038-.16938c.24476.33089.42577.80066.62903.81054.81004.03925.97767.78016,1.36044,1.20543.36977.4109.59728.9438,1.12643,1.23956.68766.38402,1.33869.83417,2.03035,1.21043.37664.20489.94505.20263,1.17906.4934.34614.47152.96417.65428,1.5112.44715l-.0325.18676c.40777.21051.72791.39889,1.0663.54453.40127.17163.81091.32302,1.22744.45377.24214.06725.4899.11226.74029.13426.13163.01625.28114-.0475.39989-.00775.32139.10763.62103.28789.94667.37239.58103.15088,1.17793.23989,1.76246.37889.4189.09988.82479.25414,1.24319.35727.55128.13563,1.10843.24789,1.66433.36452.39527.08288.89967.03288,1.16368.26264.27851.27689.71641.31189,1.0353.08263.02925-.014.0745.00575.13813.01263l-.02075.37014c.15451-.082.32064-.23514.39439-.19901.69216.33814,1.25906-.41315,2.05623-.12438.64328.23314,1.52357-.19351,2.30036-.31702.11801-.00325.23601.00913.35064.03713.40715.05.81417.10013,1.22106.15026l.05838-.16963.11213.34152c.14476-.11151.29451-.29526.36314-.26889.57003.22001.90804-.07238,1.36257-.38264.54278-.26701,1.12718-.43915,1.72796-.50915.36277-.02413.72104-.09488,1.06568-.21064.35789-.20414.61628-.57728,1.07093-.19976.02988.02475.16601-.08688.25689-.12501.14938-.0625.32189-.19301.4499-.16013.36914.095.53003-.13851.78266-.32077.39464-.28439.5694-.84242,1.22894-.83804.4774-.031.93805-.18826,1.33482-.4559.42102-.25914,1.02043-.27601,1.24669-.84042.0265-.06625.19513-.07563.32439-.12063l-.05513.58565.17863.07225c.14038-.22126.28389-.44077.42015-.66453.11113-.18251.16913-.43577.32802-.54353.52265-.35389,1.1008-.62703,1.61758-.98842.31089-.26526.60678-.54765.88629-.84579.22251-.19713.46327-.37239.71929-.52353.35652-.20901.84617-.26301.86979-.82129.45602.11463.51628-.15438.5564-.5164.03938-.17613.15213-.32714.30977-.4149.26714-.11751.54303-.21401.82529-.28864l-.21339-.76579.62191.4214c.42715-.91404.77991-1.81384,1.92372-1.99922.17888-.02913.43765-.59028.38314-.84667-.18151-.85492.09463-1.21156.98067-1.03305.15513-.40377.30702-.81204.47065-1.21543.03388-.09325.09438-.17438.17426-.23314.84242-.37214,1.44557-1.13781,1.60995-2.0441.01925-.16988.27664-.31402.4264-.46765.34764-.35689.71154-.69953,1.04043-1.07293.21701-.24664.35852-.56103.5809-.80141.30226-.24876.43127-.65116.33027-1.0293-.03088-.10901.10913-.28801.20551-.40652.18963-.23339.40377-.44677.60778-.66841l-.11901-.10963c.71291-.26976.88992-.65628.58528-1.23381l.46802-.08188c-.08088-.39477.25551-.54003.45002-.77879.27114-.33314.57178-.67278.34589-1.16668-.01313-.02888.10188-.11638.15726-.17663l.09863.13538c.57078-.52928.9308-1.24719,1.0138-2.0211.00038-.01325.03238-.02288.04313-.03875.37727-.4814.68741-1.01192.92192-1.57683.097-.27964-.05538-1.00755.67366-.91329l-.59953-.22564.96605-1.03693-.16401-.85304c.51678-.11763.56353-.11138.64578-.73641.06788-.51665.59915-.86467.47552-1.44407-.00863-.04075.29576-.14826.54228-.26701-.06275-.24526-.10301-.4959-.12001-.74854-.00113-.14476.12013-.39352.22826-.4194.68778-.16488.58728-.82104.82742-1.25856.08175-.14888.19613-.34702.15726-.48315-.16551-.5784.09738-.66428.5294-.54965-.66341-.76779.15513-1.44995.14488-2.17123.00813-.15126.02725-.30176.05713-.45015l.16638.23439.19601-1.35494.29839-.0225c.0145-.19476.0485-.38752.1015-.57553.11663-.29151.31277-.55503.40414-.85229.13313-.4334.20313-.88617.30001-1.33069.08288-.15151-.01488-.37139.04563-.5314.13601-.28826.10201-.62803-.08863-.88342-.20138-.31477-.15576-.72741.10938-.99067.50627-.45265.79416-1.1008.79054-1.77996-.03875-.38977.16763-.5394.5514-.37889.29376-.44227-.5469-.89467.06025-1.41607.22501-.19326.04463-.81492.13276-1.22319.12363-.4569.27389-.90617.4499-1.34557l-.20063-2.15511c.14588-.075.40027-.13051.41665-.22651.10163-.59903.15026-1.20706.21639-1.81209-.03063-.11913.18538-.19126.22914-.32127.10488-.34589.17751-.70078.21726-1.06005.04688-.33602.0585-.67691.091-1.08293l.36127-.17676c-.17451-.40227-.28026-.83104-.31264-1.26831.18713-.5819.29601-1.18606.32364-1.79671-.00788-.055.21314-.14238.25801-.17063-.06813-.26576-.08413-.54203-.047-.81379.24764-.63116.26601-1.32907.05225-1.97247l.77741-.04113c-.88579-.22101-.15488-.94767-.52528-1.35044l.30314-.21189c-.02525-.26289-.10838-.48127-.03963-.62878.04988-.10688.30101-.12013.34439-.13488-.17788-.77979-.37252-1.58083-.53865-2.38762-.0585-.28426-.0115-.59115-.07675-.87279-.07975-.34464-.07688-.37739.30964-.37814-.25564-.89667-.16538-1.85672.25289-2.69013-.08475-.27351-.15551-.55103-.21239-.83167-.04538-.29076.0665-.75504-.08125-.85192-.38802-.25414.24589-.59153-.13638-.76479.40727-.30126.15963-.53153-.0445-.82467-.02025-.03613-.03713-.07413-.05025-.11338-.11763-.34952.07038-.72829.4199-.84592-.15338-.14451-.28276-.31252-.38339-.49765-.10451-.29951-.16376-.61291-.17563-.92992-.02875-.47327-.0065-.9483.06675-1.41694.027-.14713.33677-.27426.54003-.34577.12701-.04475.31639.088.4434.04325.48277-.17026.32402.17676.33414.39139l2.0441.18463.40339.40152.10313-.69266c.32814.07275.66153.25176.89942.16601.19163-.06913.26789-.45827.39677-.70841.36564.32514.62216.077.81542-.31289.066-.13313.02238-.35152.11526-.4354.4669-.51915.75916-1.17168.83554-1.86559.19101-.45915.27901-.95455.25789-1.45132-.07963-.72529-.60803-1.32169-1.31844-1.48807Z" fill="#fff"/></svg>