<?xml version="1.0" encoding="UTF-8"?><svg id="a" xmlns="http://www.w3.org/2000/svg" xmlns:xlink="http://www.w3.org/1999/xlink" viewBox="0 0 24 24"><defs><radialGradient id="b" cx="-8.92718" cy="-200.4803" fx="-8.92718" fy="-200.4803" r="1.25644" gradientTransform="translate(396.86122 1737.4665) rotate(164.25031) scale(12.20487 -8.79302)" gradientUnits="userSpaceOnUse"><stop offset="0" stop-color="#ff005f"/><stop offset="1" stop-color="#fc01d8"/></radialGradient><radialGradient id="c" cx="-58.87264" cy="-121.19665" fx="-58.87264" fy="-121.19665" r="1.25644" gradientTransform="translate(-1954.23056 -871.80009) rotate(-90) scale(15.2473 -16.17706)" gradientUnits="userSpaceOnUse"><stop offset="0" stop-color="#fc0"/><stop offset=".1242" stop-color="#fc0"/><stop offset=".5672" stop-color="#fe4a05"/><stop offset=".6942" stop-color="#ff0f3f"/><stop offset="1" stop-color="#fe0657" stop-opacity="0"/></radialGradient><radialGradient id="d" cx="-14.928" cy="-66.93164" fx="-14.928" fy="-66.93164" r="1.56" gradientTransform="translate(-332.04339 -264.01133) rotate(-59.87031) scale(5.07801 -6.61099)" gradientUnits="userSpaceOnUse"><stop offset="0" stop-color="#fc0"/><stop offset="1" stop-color="#fc0" stop-opacity="0"/></radialGradient><radialGradient id="e" cx="-120.19859" cy="520.04807" fx="-120.19859" fy="520.04807" r="1.60994" gradientTransform="translate(-1538.78002 -1298.62373) rotate(164.27367) scale(9.4193 -3.20915)" gradientUnits="userSpaceOnUse"><stop offset="0" stop-color="#780cff"/><stop offset="1" stop-color="#820bff" stop-opacity="0"/></radialGradient></defs><path d="M12.00392,0C6.99403,0,5.52882.00517,5.24402.0288c-1.02811.08548-1.66786.24741-2.36485.5945-.53712.2668-.96074.57605-1.37882,1.00957C.73896,2.42346.27751,3.3961.11046,4.55226.02925,5.11354.00562,5.228.00082,8.09496-.00102,9.05061.00082,10.30832.00082,11.99529.00082,17.00248.00635,18.46661.03035,18.75094c.08306,1.0007.23995,1.63029.5722,2.31897.63496,1.31826,1.84764,2.30788,3.27631,2.67715.49468.12739,1.04104.19755,1.74244.23078.29718.01292,3.32614.02216,6.35696.02216s6.06163-.00369,6.35142-.01846c.81216-.03822,1.28376-.10155,1.8052-.23633,1.43789-.37111,2.62844-1.34596,3.27631-2.68269.32579-.67206.49099-1.32565.56575-2.2741.01624-.20678.02307-3.50374.02307-6.79626,0-3.29309-.00738-6.58395-.02363-6.79074-.07568-.96377-.24088-1.61182-.57718-2.29681-.27595-.56072-.58235-.97947-1.02719-1.40762-.79388-.75847-1.76478-1.22005-2.92174-1.38695C18.88969.02898,18.77803.00498,15.90964,0h-3.90572Z" fill="url(#b)"/><path d="M12.00392,0C6.99403,0,5.52882.00517,5.24402.0288c-1.02811.08548-1.66786.24741-2.36485.5945-.53712.2668-.96074.57605-1.37882,1.00957C.73896,2.42346.27751,3.3961.11046,4.55226.02925,5.11354.00562,5.228.00082,8.09496-.00102,9.05061.00082,10.30832.00082,11.99529.00082,17.00248.00635,18.46661.03035,18.75094c.08306,1.0007.23995,1.63029.5722,2.31897.63496,1.31826,1.84764,2.30788,3.27631,2.67715.49468.12739,1.04104.19755,1.74244.23078.29718.01292,3.32614.02216,6.35696.02216s6.06163-.00369,6.35142-.01846c.81216-.03822,1.28376-.10155,1.8052-.23633,1.43789-.37111,2.62844-1.34596,3.27631-2.68269.32579-.67206.49099-1.32565.56575-2.2741.01624-.20678.02307-3.50374.02307-6.79626,0-3.29309-.00738-6.58395-.02363-6.79074-.07568-.96377-.24088-1.61182-.57718-2.29681-.27595-.56072-.58235-.97947-1.02719-1.40762-.79388-.75847-1.76478-1.22005-2.92174-1.38695C18.88969.02898,18.77803.00498,15.90964,0h-3.90572Z" fill="url(#c)"/><path d="M12.00392,0C6.99403,0,5.52882.00517,5.24402.0288c-1.02811.08548-1.66786.24741-2.36485.5945-.53712.2668-.96074.57605-1.37882,1.00957C.73896,2.42346.27751,3.3961.11046,4.55226.02925,5.11354.00562,5.228.00082,8.09496-.00102,9.05061.00082,10.30832.00082,11.99529.00082,17.00248.00635,18.46661.03035,18.75094c.08306,1.0007.23995,1.63029.5722,2.31897.63496,1.31826,1.84764,2.30788,3.27631,2.67715.49468.12739,1.04104.19755,1.74244.23078.29718.01292,3.32614.02216,6.35696.02216s6.06163-.00369,6.35142-.01846c.81216-.03822,1.28376-.10155,1.8052-.23633,1.43789-.37111,2.62844-1.34596,3.27631-2.68269.32579-.67206.49099-1.32565.56575-2.2741.01624-.20678.02307-3.50374.02307-6.79626,0-3.29309-.00738-6.58395-.02363-6.79074-.07568-.96377-.24088-1.61182-.57718-2.29681-.27595-.56072-.58235-.97947-1.02719-1.40762-.79388-.75847-1.76478-1.22005-2.92174-1.38695C18.88969.02898,18.77803.00498,15.90964,0h-3.90572Z" fill="url(#d)"/><path d="M12.00392,0C6.99403,0,5.52882.00517,5.24402.0288c-1.02811.08548-1.66786.24741-2.36485.5945-.53712.2668-.96074.57605-1.37882,1.00957C.73896,2.42346.27751,3.3961.11046,4.55226.02925,5.11354.00562,5.228.00082,8.09496-.00102,9.05061.00082,10.30832.00082,11.99529.00082,17.00248.00635,18.46661.03035,18.75094c.08306,1.0007.23995,1.63029.5722,2.31897.63496,1.31826,1.84764,2.30788,3.27631,2.67715.49468.12739,1.04104.19755,1.74244.23078.29718.01292,3.32614.02216,6.35696.02216s6.06163-.00369,6.35142-.01846c.81216-.03822,1.28376-.10155,1.8052-.23633,1.43789-.37111,2.62844-1.34596,3.27631-2.68269.32579-.67206.49099-1.32565.56575-2.2741.01624-.20678.02307-3.50374.02307-6.79626,0-3.29309-.00738-6.58395-.02363-6.79074-.07568-.96377-.24088-1.61182-.57718-2.29681-.27595-.56072-.58235-.97947-1.02719-1.40762-.79388-.75847-1.76478-1.22005-2.92174-1.38695C18.88969.02898,18.77803.00498,15.90964,0h-3.90572Z" fill="url(#e)"/><path d="M12.00486,3.08165c-2.42344,0-2.72757.01059-3.67941.05387-.94996.04347-1.5984.19375-2.16578.41427-.58689.22774-1.08475.5324-1.58073,1.0282-.49636.49563-.80125.99311-1.02991,1.57938-.22123.56715-.37181,1.21528-.41457,2.16417-.04257.95112-.05373,1.25522-.05373,3.67686s.01079,2.72462.05391,3.67574c.04369.94927.19409,1.59722.41457,2.16417.2281.58647.53299,1.08394,1.02916,1.57957.49581.496.99366.8014,1.58018,1.02914.56775.2205,1.21638.37079,2.16615.41427.95183.04327,1.25578.05386,3.67904.05386,2.42363,0,2.72684-.01059,3.67866-.05387.94997-.04347,1.59915-.19375,2.16689-.41427.58671-.22773,1.08382-.53314,1.57963-1.02914.49636-.49562.80125-.9931,1.02991-1.57937.21936-.56715.36995-1.21528.41457-2.16417.04275-.95112.05391-1.25429.05391-3.67593s-.01116-2.72555-.05391-3.67668c-.04462-.94927-.1952-1.59721-.41457-2.16416-.22866-.58647-.53355-1.08395-1.02991-1.57957-.49637-.49599-.99273-.80065-1.58018-1.02821-.56887-.2205-1.21767-.37079-2.16764-.41426-.95183-.04329-1.25486-.05387-3.67903-.05387h.00278ZM11.20436,4.68852c.23759-.00037.50269,0,.8005,0,2.38254,0,2.66493.00854,3.60579.05127.87003.03976,1.34223.18502,1.65678.30707.41643.16162.71331.35482,1.02544.6669.31232.31209.50565.60932.66777,1.02543.12214.31394.2677.78579.30729,1.65518.04276.93997.05206,1.22234.05206,3.602s-.0093,2.66203-.05206,3.602c-.03978.86938-.18515,1.34123-.30729,1.65517-.16173.41612-.35545.71242-.66777,1.02431-.31231.31209-.60884.50528-1.02544.6669-.31418.12261-.78674.2675-1.65678.30726-.94067.04272-1.22324.05201-3.60579.05201-2.38273,0-2.66511-.00929-3.60579-.05201-.87002-.04012-1.34222-.18539-1.65696-.30744-.41643-.16161-.71388-.35482-1.02619-.6669-.31232-.31208-.50566-.60856-.66777-1.02487-.12214-.31394-.2677-.78579-.30729-1.65517-.04276-.93998-.05131-1.22234-.05131-3.60348s.00855-2.66203.05131-3.602c.03978-.86939.18515-1.34123.30729-1.65554.16173-.41612.35545-.71334.66777-1.02543.31231-.31209.60976-.50528,1.02619-.66727.31455-.12261.78693-.2675,1.65696-.30745.82318-.03715,1.14219-.04829,2.80529-.05016v.00224ZM16.76809,6.16907c-.59118,0-1.07082.47872-1.07082,1.06964,0,.59074.47964,1.07002,1.07082,1.07002s1.07081-.47928,1.07081-1.07002-.47964-1.07-1.07082-1.07v.00036ZM12.00486,7.41927c-2.53071,0-4.58252,2.0503-4.58252,4.57913s2.05181,4.57819,4.58252,4.57819,4.58179-2.04936,4.58179-4.57819-2.05126-4.57913-4.58197-4.57913h.00018ZM12.00486,9.02615c1.64264,0,2.97446,1.33064,2.97446,2.97225,0,1.64143-1.33182,2.97225-2.97446,2.97225-1.64282,0-2.97446-1.33082-2.97446-2.97225,0-1.64161,1.33163-2.97225,2.97446-2.97225h0Z" fill="#fff"/></svg>