<?xml version="1.0" encoding="UTF-8"?><svg id="a" xmlns="http://www.w3.org/2000/svg" viewBox="0 0 24 24"><path d="M23.99812,14.18152c-.04877.8666-.43143,1.68069-1.06544,2.26968-.63401.58899-1.4706.91537-2.33721.90412h-8.17835c-.18007,0-.35264-.07503-.4802-.20258-.12755-.12755-.19883-.30012-.19883-.4802V7.86393c-.0075-.15006.03376-.30012.1163-.42767.08253-.12755.19883-.22884.33764-.28887,0,0,.75406-.52146,2.33721-.52146.9679,0,1.91703.25886,2.74988.75406.64902.38266,1.21175.89287,1.65443,1.50437.44268.6115.75031,1.30554.90787,2.04084.28137-.07878.57398-.12005.8666-.12005.43893-.00375.87411.08253,1.28303.25135.40892.16882.76906.42392,1.07669.73905.30762.31513.54772.68653.70904,1.0992s.23635.84785.22134,1.28678ZM10.71769,8.42291c.00375-.03752,0-.07503-.01126-.10879-.01125-.03376-.03001-.06753-.05627-.09754-.02626-.03001-.05627-.04877-.09004-.06378-.06753-.03001-.15006-.03001-.21759,0-.03376.01501-.06378.03752-.09004.06378-.02626.02626-.04502.06002-.05627.09754-.01125.03752-.01501.07128-.01125.10879-.22509,2.95996-.39766,5.7361,0,8.68856.0075.06378.03752.1238.08628.16882.09754.09004.25511.09004.35265,0,.04877-.04502.07878-.10504.08628-.16882.42392-2.97872.2476-5.70233,0-8.68856h.0075ZM9.06701,9.44708c-.0075-.06753-.04127-.1313-.09004-.17632s-.1163-.07128-.18758-.07128-.13506.02626-.18758.07128c-.05252.04502-.08253.10879-.09004.17632-.29637,2.54729-.29637,5.12085,0,7.66814.01125.06753.04502.12755.09379.16882.04877.04127.1163.06753.18007.06753s.1313-.02251.18007-.06753c.04877-.04502.08253-.10504.09379-.16882.33014-2.54354.33014-5.12085.00375-7.66814h.00375ZM7.40508,9.18822c-.0075-.06753-.03752-.12755-.08628-.17257-.04877-.04502-.11255-.06753-.18007-.06753s-.1313.02626-.18007.06753c-.04877.04127-.07878.10504-.08629.17257-.25135,2.70111-.38266,5.22589,0,7.91949,0,.07128.02626.13881.07878.18758.05252.04877.1163.07878.18758.07878s.13881-.02626.18758-.07878.07878-.1163.07878-.18758c.39391-2.73112.27386-5.18462.00375-7.91949h-.00375ZM5.7544,9.96104c0-.07128-.03001-.14256-.07878-.19508-.04877-.05252-.12005-.07878-.19508-.07878s-.14256.03001-.19508.07878c-.05252.04877-.07878.12005-.07878.19508-.30387,2.37472-.30387,4.78321,0,7.15793.0075.06753.03752.12755.09004.17257.05252.04502.1163.07128.18007.07128s.1313-.02626.18007-.07128.08253-.10504.09004-.17257c.33014-2.37472.33389-4.78321.01125-7.15793h-.00375ZM4.08497,11.74677c0-.07128-.03001-.14256-.07878-.19133-.04877-.04877-.12005-.07878-.19133-.07878s-.14256.03001-.19133.07878c-.04877.04877-.07878.12005-.07878.19133-.39391,1.84575-.20633,3.52269.01501,5.3872.01125.06002.04127.1163.08629.15756.04502.04127.10504.06378.16882.06378s.12005-.02251.16882-.06378c.04877-.04127.07878-.09379.08629-.15756.2476-1.89077.43518-3.53019.01501-5.3872ZM2.43054,11.46541c-.0075-.06753-.04127-.1313-.09004-.18007-.04877-.04877-.12005-.07128-.18758-.07128s-.13506.02626-.18758.07128c-.05252.04502-.08253.10879-.09004.18007-.34889,1.88327-.2326,3.54145.01125,5.42097.02626.28512.51021.28137.54022,0,.27011-1.90953.39391-3.51894.01125-5.42097h-.0075ZM.75736,12.38828c-.0075-.06753-.04127-.1313-.09004-.18007-.04877-.04877-.12005-.07128-.18758-.07128s-.13506.02626-.18758.07128c-.05252.04502-.08629.10879-.09004.18007-.31888,1.26427-.22134,2.31095.02251,3.57897.0075.06378.03752.1238.08629.16507s.10879.06753.17632.06753.12755-.02251.17632-.06753c.04877-.04502.07878-.10129.08629-.16507.28137-1.29428.42017-2.31845.01501-3.57897h-.0075Z"/></svg>