<?xml version="1.0" encoding="UTF-8"?><svg id="a" xmlns="http://www.w3.org/2000/svg" viewBox="0 0 24 24"><path d="M12.4755.01C5.8535-.253.2725,4.902.0095,11.524c-.263,6.623,4.892,12.204,11.515,12.466,6.622.263,12.203-4.892,12.466-11.514S19.0975.272,12.4755.01" fill="#1ed760"/><path d="M17.5415,17.589c-.19602.3435-.63316.46341-.977.268-1.58646-.90271-3.33009-1.49557-5.138-1.747-1.80701-.25661-3.64633-.16735-5.42.263-.38874.07544-.76502-.17854-.84046-.56727-.07052-.3634.14719-.72075.50246-.82473,1.95-.474,3.955-.571,5.958-.29,2.003.282,3.903.928,5.647,1.92.34406.19603.46407.63386.26805.97792l-.00005.00008"/><path d="M19.1185,14.439c-.24381.45207-.80794.62089-1.26.37708-.00067-.00036-.00133-.00072-.002-.00108-1.85779-1.00438-3.88034-1.66818-5.972-1.96-2.0911-.29602-4.2183-.21542-6.281.238-.50145.11118-.99808-.20519-1.10926-.70664-.00025-.00112-.00049-.00224-.00074-.00336-.11118-.50145.20519-.99808.70664-1.10926.00112-.00025.00224-.00049.00336-.00074,2.27902-.5019,4.62963-.59064,6.94-.262,2.31149.32098,4.5466,1.05428,6.599,2.165.452.245.62.81.376,1.263"/><path d="M20.8665,10.888c-.29241.56138-.98429.77977-1.546.488-2.16337-1.12474-4.50305-1.87149-6.918-2.208-2.41424-.34242-4.86925-.2697-7.259.215-.62178.11821-1.22166-.29001-1.33988-.91179-.11614-.61088.27607-1.20292.88388-1.33421,2.6448-.53684,5.36187-.618,8.034-.24,2.67293.37308,5.2625,1.19997,7.657,2.445.561.292.78.984.488,1.546"/></svg>