<?xml version="1.0" encoding="UTF-8"?><svg id="a" xmlns="http://www.w3.org/2000/svg" viewBox="0 0 24 24"><path d="M23.47625,6.22336c-.27728-1.03209-1.09371-1.84852-2.1258-2.1258-1.86393-.50834-9.36585-.50834-9.36585-.50834,0,0-7.50192.0154-9.36585.52375-1.03209.27728-1.84852,1.09371-2.1258,2.1258-.49294,1.86393-.49294,5.76123-.49294,5.76123,0,0,0,3.8973.50834,5.77664.27728,1.03209,1.09371,1.84852,2.1258,2.1258,1.86393.50834,9.36585.50834,9.36585.50834,0,0,7.50192,0,9.36585-.50834,1.03209-.27728,1.84852-1.09371,2.1258-2.1258.50834-1.86393.50834-5.77664.50834-5.77664,0,0-.01541-3.8973-.52375-5.77664Z" fill="#f03"/><polygon points="9.59692 15.60462 15.82028 12 9.59692 8.39538 9.59692 15.60462" fill="#fff"/></svg>